<svg width="46" height="48" viewBox="0 0 46 48" fill="none" xmlns="http://www.w3.org/2000/svg">
<g clip-path="url(#clip0)">
<path d="M10.2754 2.37061C9.88485 2.37061 9.57043 2.63493 9.57043 2.96326V11.8531C9.57043 12.1814 9.88485 12.4458 10.2754 12.4458H13.8196C14.2102 12.4458 14.5246 12.1814 14.5246 11.8531V2.96326C14.5246 2.63493 14.2102 2.37061 13.8196 2.37061H10.2754ZM15.9153 2.37061V12.4458C18.2758 12.6555 19.7399 13.989 20.8503 15.409C22.1 17.0073 22.2892 18.9653 22.2892 21.0184C22.2892 21.5116 22.7429 21.7793 23.3508 21.8113C23.4376 21.816 23.5271 21.8151 23.6193 21.8102C24.8499 21.743 26.4902 20.817 26.4902 18.965V14.2237H36.3614C36.6671 14.2237 36.853 13.8475 36.853 13.5315V12.249C36.853 11.992 36.6671 11.5568 36.3614 11.5568H32.8323C32.8233 11.5568 32.8127 11.5572 32.802 11.5568V11.5556C32.3675 11.513 32.395 10.9753 32.8323 10.9653H36.36C36.666 10.9653 36.7649 10.5439 36.7649 10.273V9.28451C36.7649 9.01479 36.6674 8.59463 36.3628 8.59463H32.8323C32.8206 8.59502 32.8127 8.59502 32.802 8.59463C32.3303 8.57715 32.3605 7.98102 32.8323 7.9985H36.3642C36.6687 7.9985 36.7649 7.57779 36.7649 7.30861V6.32123C36.7649 6.0504 36.6663 5.62787 36.36 5.62787H32.1301C32.1184 5.6284 32.1076 5.6284 32.0943 5.62787C31.6575 5.58429 31.6903 5.04293 32.1301 5.03756H34.2464C34.5521 5.03756 34.7122 4.6023 34.7122 4.34535C34.7122 3.94954 34.7122 3.54644 34.7122 3.14962C34.7122 2.86625 34.5513 2.37061 34.2451 2.37061H31.4251H15.9153ZM9.13394 26.0618C9.1091 26.0619 9.08428 26.063 9.05958 26.0653C8.7938 26.087 8.56548 26.2341 8.47026 26.445L7.30262 29.0413L4.02552 29.1721C3.37411 29.1953 3.10771 29.8907 3.61932 30.2324L6.17904 31.9733L5.31433 34.6495C5.14942 35.1755 5.83782 35.5968 6.37732 35.3001L9.12843 33.7791L11.8699 35.3001C12.4097 35.5988 13.1006 35.1765 12.9343 34.6495L12.0696 31.9733L14.6293 30.2324C15.1409 29.8907 14.8745 29.1953 14.2231 29.1721L10.9446 29.0413L9.78523 26.4449C9.68226 26.216 9.42368 26.0639 9.13394 26.0618ZM22.9735 26.0745C22.9487 26.0746 22.9238 26.0757 22.8991 26.078C22.6339 26.1001 22.4062 26.2471 22.3112 26.4577L21.1435 29.054L17.8651 29.1848C17.2117 29.2068 16.9446 29.9049 17.4589 30.2463L20.0186 31.9861L19.1539 34.6623C18.9876 35.1893 19.6785 35.6116 20.2183 35.3128L22.968 33.7918L25.7095 35.3128C26.2492 35.6116 26.9401 35.1893 26.7738 34.6623L25.9091 31.9861L28.4688 30.2463C28.9831 29.9049 28.716 29.2068 28.0626 29.1848L24.7842 29.054L23.6248 26.4577C23.5218 26.2287 23.2632 26.0766 22.9735 26.0746V26.0745ZM36.8585 26.0745C36.8336 26.0746 36.8088 26.0757 36.7841 26.078C36.5183 26.0997 36.29 26.2468 36.1948 26.4577L35.0272 29.054L31.7501 29.1848C31.098 29.2071 30.8305 29.9031 31.3425 30.2451L33.9036 31.9861L33.0389 34.6623C32.874 35.1883 33.5624 35.6096 34.1019 35.3128L36.853 33.7918L39.5945 35.3128C40.1342 35.6116 40.8251 35.1893 40.6588 34.6623L39.7927 31.9861L42.3538 30.2451C42.8654 29.9034 42.599 29.2081 41.9476 29.1848L38.6692 29.054L37.5098 26.4577C37.4068 26.2287 37.1482 26.0766 36.8585 26.0746V26.0745ZM22.968 28.3445L23.6344 29.8365C23.7317 30.0593 23.9764 30.2117 24.2568 30.2243L26.1418 30.3042L24.6726 31.2985C24.4551 31.4477 24.3631 31.6919 24.4386 31.9201L24.9315 33.4631L23.348 32.5857C23.1142 32.4564 22.8121 32.4564 22.5783 32.5857L20.9962 33.4631L21.4974 31.9201C21.571 31.6905 21.4757 31.446 21.2551 31.2985L19.7845 30.3042L21.6709 30.2243C21.9514 30.2117 22.1961 30.0593 22.2933 29.8365L22.968 28.3445ZM36.853 28.3445L37.518 29.8365C37.6155 30.0596 37.8608 30.2122 38.1418 30.2243L40.0268 30.3042L38.5562 31.2985C38.3392 31.448 38.2478 31.6922 38.3235 31.9201L38.8165 33.4631L37.233 32.5857C36.9992 32.4564 36.6971 32.4564 36.4633 32.5857L34.8812 33.4631L35.3824 31.9201C35.456 31.6905 35.3606 31.446 35.1401 31.2985L33.6695 30.3042L35.5559 30.2243C35.8363 30.2117 36.081 30.0593 36.1783 29.8365L36.853 28.3445Z" fill="#434343"/>
</g>
<defs>
<clipPath id="clip0">
<rect width="45.1193" height="47.4125" fill="white" transform="translate(0.424835)"/>
</clipPath>
</defs>
</svg>
