<svg width="37" height="47" viewBox="0 0 37 47" fill="none" xmlns="http://www.w3.org/2000/svg">
<g clip-path="url(#clip0)">
<path d="M7.15769 2.87482C7.13732 2.87486 7.11696 2.87599 7.09671 2.8782C6.87876 2.89935 6.69153 3.04283 6.61344 3.24857L5.65592 5.78125L2.96854 5.90884C2.43435 5.9315 2.21589 6.60983 2.63544 6.94315L4.73453 8.64139L4.02542 11.252C3.8902 11.7651 4.45472 12.176 4.89713 11.8866L7.15317 10.4029L9.40131 11.8866C9.84395 12.178 10.4105 11.7661 10.2741 11.252L9.56504 8.64139L11.6641 6.94315C12.0837 6.60983 11.8652 5.9315 11.331 5.90884L8.64252 5.78125L7.69178 3.24857C7.60733 3.0252 7.39529 2.87681 7.15769 2.87482ZM18.544 2.87482C18.5233 2.87482 18.5026 2.87595 18.4819 2.8782C18.2644 2.89976 18.0777 3.04317 17.9998 3.24857L17.0423 5.78125L14.3538 5.90884C13.8196 5.9315 13.6011 6.60983 14.0207 6.94315L16.1209 8.64139L15.4106 11.252C15.2743 11.7661 15.8408 12.178 16.2835 11.8866L18.5395 10.4029L20.7877 11.8866C21.2301 12.176 21.7946 11.7651 21.6594 11.252L20.9503 8.64139L23.0505 6.94315C23.4704 6.60947 23.251 5.93052 22.7163 5.90884L20.0289 5.78125L19.0781 3.24857C18.9937 3.0252 18.7816 2.87681 18.544 2.87482ZM29.9293 2.87482C29.9089 2.87486 29.8885 2.87599 29.8683 2.8782C29.6508 2.89976 29.4641 3.04317 29.3861 3.24857L28.4286 5.78125L25.7401 5.90884C25.2059 5.9315 24.9875 6.60983 25.407 6.94315L27.5061 8.64139L26.797 11.252C26.6606 11.7661 27.2272 12.178 27.6698 11.8866L29.9247 10.4029L32.174 11.8866C32.6164 12.176 33.1809 11.7651 33.0457 11.252L32.3366 8.64139L34.4357 6.94315C34.8552 6.60983 34.6368 5.9315 34.1026 5.90884L31.4141 5.78125L30.4645 3.24857C30.3799 3.02482 30.1673 2.87635 29.9293 2.87482ZM18.8162 15.7234C18.3176 15.7547 17.9456 16.0158 17.9456 16.4969C17.9456 18.4997 17.7905 20.4096 16.7656 21.9688C15.8551 23.354 14.6545 24.6547 12.7188 24.8594V34.6875H25.4375H27.75C28.0012 34.6875 28.082 34.2245 28.082 33.9276V32.7612C28.082 32.4975 28.0018 32.0859 27.7511 32.0859H26.0156C25.655 32.0807 25.628 31.5526 25.9863 31.5101C25.9972 31.5096 26.006 31.5096 26.0156 31.5101H29.4844C29.7355 31.5101 29.8163 31.0979 29.8163 30.8337V29.8705C29.8163 29.608 29.7375 29.1976 29.4878 29.1976H26.5915C26.2045 29.2146 26.1798 28.6331 26.5667 28.6161C26.5754 28.6157 26.5819 28.6157 26.5915 28.6161H29.4866C29.7364 28.6161 29.8163 28.2062 29.8163 27.9431V26.9788C29.8163 26.7146 29.7353 26.3036 29.4844 26.3036H26.5915C26.2328 26.2937 26.2103 25.7692 26.5667 25.7277V25.7266C26.5754 25.7262 26.5841 25.7266 26.5915 25.7266H29.4855C29.7362 25.7266 29.7611 25.2857 29.7878 25.0513V23.8002C29.7878 23.5366 29.7362 23.125 29.4855 23.125H21.3906V18.5C21.3906 16.6934 20.0455 15.7901 19.0364 15.7245C18.9607 15.7198 18.8873 15.7189 18.8162 15.7234V15.7234ZM8.09375 24.8594C7.77347 24.8594 7.51563 25.1172 7.51563 25.4375V34.1094C7.51563 34.4297 7.77347 34.6875 8.09375 34.6875H10.9844C11.3047 34.6875 11.5625 34.4297 11.5625 34.1094V25.4375C11.5625 25.1172 11.3047 24.8594 10.9844 24.8594H8.09375Z" fill="#4F4F4F"/>
</g>
<defs>
<clipPath id="clip0">
<rect width="37" height="46.25" fill="white"/>
</clipPath>
</defs>
</svg>
