<svg width="37" height="47" viewBox="0 0 37 47" fill="none" xmlns="http://www.w3.org/2000/svg">
<path d="M31.598 16.243L21.164 2.25699C20.535 1.40599 19.536 0.924988 18.5 0.924988C17.427 0.924988 16.465 1.40599 15.836 2.25699L5.402 16.243C4.625 17.279 4.514 18.611 5.106 19.758C5.661 20.905 6.808 21.608 8.103 21.608H9.472V32.153C9.472 34.336 11.248 36.075 13.394 36.075H23.606C25.789 36.075 27.528 34.299 27.528 32.153V21.571H28.897C30.155 21.571 31.302 20.868 31.894 19.721C32.486 18.611 32.375 17.279 31.598 16.243ZM29.933 18.759C29.748 19.166 29.341 19.388 28.897 19.388H26.418C25.826 19.388 25.308 19.869 25.308 20.498V32.153C25.308 33.115 24.531 33.892 23.569 33.892H13.394C12.432 33.892 11.655 33.115 11.655 32.153V20.498C11.655 19.906 11.174 19.388 10.545 19.388H8.066C7.622 19.388 7.252 19.166 7.03 18.759C6.845 18.352 6.882 17.908 7.141 17.575L17.575 3.58899C17.797 3.29299 18.13 3.10799 18.5 3.10799C18.87 3.10799 19.203 3.29299 19.425 3.55199L29.859 17.538C30.081 17.908 30.118 18.352 29.933 18.759Z" fill="#434343"/>
<path d="M19.092 18.796H17.908C16.983 18.796 16.28 18.019 16.354 17.094C16.428 16.28 17.168 15.688 17.982 15.688H19.351C19.869 15.688 20.313 16.058 20.424 16.539C20.461 16.687 20.572 16.761 20.72 16.761H22.311C22.496 16.761 22.644 16.613 22.607 16.428C22.459 14.837 21.164 13.616 19.573 13.505V11.951C19.573 11.766 19.425 11.655 19.277 11.655H17.723C17.538 11.655 17.427 11.803 17.427 11.951V13.542C15.503 13.801 14.023 15.577 14.208 17.612C14.393 19.536 16.132 20.979 18.093 20.979H19.092C20.017 20.979 20.72 21.756 20.646 22.681C20.572 23.495 19.832 24.087 19.018 24.087H17.649C17.131 24.087 16.687 23.717 16.576 23.236C16.539 23.088 16.428 23.014 16.28 23.014H14.689C14.504 23.014 14.356 23.162 14.393 23.347C14.541 24.938 15.836 26.159 17.427 26.27V27.824C17.427 28.009 17.575 28.12 17.723 28.12H19.277C19.462 28.12 19.573 27.972 19.573 27.824V26.233C21.238 25.937 22.607 24.642 22.792 22.94C23.014 20.683 21.275 18.796 19.092 18.796Z" fill="#434343"/>
</svg>
