<svg width="37" height="37" viewBox="0 0 37 37" fill="none" xmlns="http://www.w3.org/2000/svg">
<path d="M31.894 13.7548C31.339 12.8662 30.192 12.3215 28.897 12.3215H27.528V4.15215C27.528 2.46094 25.752 1.11371 23.606 1.11371H13.394C11.211 1.11371 9.47201 2.4896 9.47201 4.15215V12.3215H8.10301C6.84501 12.3215 5.69801 12.8662 5.10601 13.7548C4.55101 14.6434 4.66201 15.6753 5.40201 16.4779L15.836 27.3131C16.465 27.9723 17.464 28.345 18.5 28.345C19.536 28.345 20.535 27.9723 21.164 27.3131L31.598 16.4779C32.375 15.6753 32.486 14.6434 31.894 13.7548ZM29.822 15.446L19.425 26.2811C18.981 26.7398 18.019 26.7398 17.575 26.2811L7.17801 15.446C6.91901 15.1593 6.88201 14.8153 7.06701 14.5287C7.25201 14.2134 7.65901 14.0414 8.10301 14.0414H10.582C11.174 14.0414 11.692 13.6688 11.692 13.1815V4.15215C11.692 3.40687 12.469 2.80491 13.431 2.80491H23.643C24.605 2.80491 25.382 3.40687 25.382 4.15215V13.1815C25.382 13.6401 25.863 14.0414 26.492 14.0414H28.971C29.415 14.0414 29.785 14.2134 30.007 14.5287C30.118 14.844 30.081 15.188 29.822 15.446Z" fill="#434343"/>
<path d="M19.092 12.8088H17.908C16.983 12.8088 16.28 12.2068 16.354 11.4902C16.428 10.8596 17.168 10.401 17.982 10.401H19.351C19.869 10.401 20.313 10.6876 20.424 11.0603C20.461 11.1749 20.572 11.2323 20.72 11.2323H22.311C22.496 11.2323 22.644 11.1176 22.607 10.9743C22.459 9.7417 21.164 8.79577 19.573 8.70978V7.50587C19.573 7.36254 19.425 7.27655 19.277 7.27655H17.723C17.538 7.27655 17.427 7.39121 17.427 7.50587V8.73844C15.503 8.93909 14.023 10.315 14.208 11.8915C14.393 13.3821 16.132 14.5 18.093 14.5H19.092C20.017 14.5 20.72 15.102 20.646 15.8186C20.572 16.4492 19.832 16.9078 19.018 16.9078H17.649C17.131 16.9078 16.687 16.6212 16.576 16.2485C16.539 16.1339 16.428 16.0766 16.28 16.0766H14.689C14.504 16.0766 14.356 16.1912 14.393 16.3345C14.541 17.5671 15.836 18.513 17.427 18.599V19.8029C17.427 19.9463 17.575 20.0323 17.723 20.0323H19.277C19.462 20.0323 19.573 19.9176 19.573 19.8029V18.5704C21.238 18.341 22.607 17.3378 22.792 16.0192C23.014 14.2707 21.275 12.8088 19.092 12.8088Z" fill="#434343"/>
</svg>
