<svg width="100" height="125" viewBox="0 0 100 125" fill="none" xmlns="http://www.w3.org/2000/svg">
<path d="M71.9696 28.5129C66.95 17.3534 55.7354 9.561 42.7282 9.561C29.7463 9.561 18.552 17.3229 13.5181 28.4453C7.00599 29.3027 1.93906 34.1836 1.46636 40.2281C1.43846 40.5114 1.41985 40.8107 1.41901 41.1431C1.41901 41.1456 1.41901 41.1473 1.41901 41.1498C1.41901 41.1507 1.41901 41.1507 1.41901 41.1515C1.41901 41.1532 1.41901 41.154 1.41901 41.1549C1.41901 41.554 1.4393 41.9481 1.4782 42.3362C1.47989 42.3523 1.48327 42.3658 1.48496 42.381C1.52471 42.7556 1.57967 43.1269 1.65324 43.4913C1.65916 43.5167 1.66762 43.5421 1.67185 43.5674C1.74626 43.9209 1.83336 44.2701 1.93821 44.6126C1.94498 44.6338 1.95428 44.654 1.9602 44.6743C2.06844 45.021 2.19021 45.3618 2.33058 45.6958C2.33396 45.7052 2.33904 45.7136 2.34326 45.7221C4.081 49.8673 8.11121 52.9834 13.0302 53.7909C17.1475 62.9447 25.437 69.8246 35.4618 72.0046C36.0326 75.3795 38.9618 77.9527 42.4982 77.9527C46.4447 77.9527 49.6436 74.7537 49.6436 70.8081C49.6436 66.8616 46.4447 63.6626 42.4982 63.6626C39.3237 63.6626 36.6355 65.7352 35.7053 68.6002C26.4729 66.4278 18.9512 59.777 15.5569 51.0765V50.0448V38.4574V32.4839C19.379 21.1392 30.1099 12.9426 42.7273 12.9426C54.8729 12.9426 65.2714 20.5388 69.4412 31.2274V53.9998C77.2496 53.9998 83.579 48.2479 83.579 41.1507C83.5799 34.8373 78.5704 29.597 71.9696 28.5129Z" fill="#634CC2"/>
<path d="M42.9033 21.4773C32.5098 21.4773 24.0833 29.9038 24.0833 40.2973C24.0833 50.6916 32.5098 59.1181 42.9033 59.1181C53.2968 59.1181 61.7242 50.6916 61.7242 40.2973C61.7242 29.9038 53.2968 21.4773 42.9033 21.4773ZM42.9033 55.7357C34.3913 55.7357 27.4657 48.8101 27.4657 40.2973C27.4657 31.7845 34.3905 24.8597 42.9033 24.8597C51.4153 24.8597 58.3417 31.7845 58.3417 40.2973C58.3417 48.8101 51.4153 55.7357 42.9033 55.7357Z" fill="#634CC2"/>
<path d="M41.2144 38.6037H33.8152V41.9861H44.5909L44.5968 30.0385H41.2144V38.6037Z" fill="#634CC2"/>
</svg>
