<svg width="80" height="87" viewBox="0 0 80 87" fill="none" xmlns="http://www.w3.org/2000/svg">
<path d="M21.8667 50.6667H19.2693C18.533 50.6667 17.936 51.2636 17.936 52C17.936 52.7364 18.533 53.3334 19.2693 53.3334H21.8667C22.6031 53.3334 23.2 52.7364 23.2 52C23.2 51.2636 22.6031 50.6667 21.8667 50.6667Z" fill="#634CC2"/>
<path d="M14.0733 50.6667H13.3333C13.0211 50.6658 12.7191 50.5554 12.48 50.3547C11.9152 49.8808 11.0732 49.9546 10.5993 50.5194C10.1255 51.0842 10.1992 51.9262 10.764 52.4C11.4846 53.0026 12.394 53.333 13.3333 53.3334H14.0733C14.8097 53.3334 15.4067 52.7364 15.4067 52C15.4067 51.2637 14.8097 50.6667 14.0733 50.6667Z" fill="#634CC2"/>
<path d="M12 46.464V43.8667C12 43.1303 11.4031 42.5334 10.6667 42.5334C9.9303 42.5334 9.33334 43.1303 9.33334 43.8667V46.4667C9.33334 47.2031 9.9303 47.8 10.6667 47.8C11.4031 47.8 12 47.2031 12 46.4667V46.464Z" fill="#634CC2"/>
<path d="M29.6653 50.6667H27.0667C26.3303 50.6667 25.7333 51.2636 25.7333 52C25.7333 52.7364 26.3303 53.3334 27.0667 53.3334H29.6653C30.4017 53.3334 30.9987 52.7364 30.9987 52C30.9987 51.2636 30.4017 50.6667 29.6653 50.6667Z" fill="#634CC2"/>
<path d="M37.4667 50.6667H34.8667C34.1303 50.6667 33.5333 51.2636 33.5333 52C33.5333 52.7364 34.1303 53.3334 34.8667 53.3334H37.4667C38.203 53.3334 38.8 52.7364 38.8 52C38.8 51.2636 38.203 50.6667 37.4667 50.6667Z" fill="#634CC2"/>
<path d="M22.1773 5.33331H19.5427C18.8063 5.33331 18.2093 5.93027 18.2093 6.66665C18.2093 7.40303 18.8063 7.99998 19.5427 7.99998H22.1773C22.9137 7.99998 23.5107 7.40303 23.5107 6.66665C23.5107 5.93027 22.9137 5.33331 22.1773 5.33331Z" fill="#634CC2"/>
<path d="M62.6667 13.3854C62.6667 14.1217 63.2636 14.7187 64 14.7187C64.7364 14.7187 65.3333 14.1217 65.3333 13.3854V10.7507C65.3333 10.0143 64.7364 9.41736 64 9.41736C63.2636 9.41736 62.6667 10.0143 62.6667 10.7507V13.3854Z" fill="#634CC2"/>
<path d="M10.6667 10.768C9.9303 10.768 9.33334 11.365 9.33334 12.1013V14.7347C9.33334 15.4711 9.9303 16.068 10.6667 16.068C11.4031 16.068 12 15.4711 12 14.7347V12.1013C12 11.365 11.4031 10.768 10.6667 10.768Z" fill="#634CC2"/>
<path d="M14.2773 5.33332H13.3267C12.476 5.33187 11.6477 5.60548 10.9653 6.11332C10.5695 6.39139 10.3554 6.86202 10.4057 7.34311C10.456 7.82421 10.763 8.24031 11.2078 8.4304C11.6526 8.6205 12.1655 8.55477 12.548 8.25865C12.7749 8.0897 13.0505 7.99893 13.3333 7.99999H14.28C15.0164 7.99999 15.6133 7.40303 15.6133 6.66665C15.6133 5.93027 15.0164 5.33332 14.28 5.33332H14.2773Z" fill="#634CC2"/>
<path d="M37.9747 5.33331H35.3427C34.6063 5.33331 34.0093 5.93027 34.0093 6.66665C34.0093 7.40303 34.6063 7.99998 35.3427 7.99998H37.9747C38.711 7.99998 39.308 7.40303 39.308 6.66665C39.308 5.93027 38.711 5.33331 37.9747 5.33331Z" fill="#634CC2"/>
<path d="M43.2413 7.99998H45.8747C46.611 7.99998 47.208 7.40303 47.208 6.66665C47.208 5.93027 46.611 5.33331 45.8747 5.33331H43.2413C42.5049 5.33331 41.908 5.93027 41.908 6.66665C41.908 7.40303 42.5049 7.99998 43.2413 7.99998Z" fill="#634CC2"/>
<path d="M59.04 7.99998H61.3333C61.3895 7.9999 61.4457 8.00391 61.5013 8.01198C61.5584 8.01885 61.6158 8.02242 61.6733 8.02265C62.3815 8.0292 62.9712 7.48095 63.0163 6.77416C63.0613 6.06738 62.5459 5.44871 61.8427 5.36531C61.6737 5.34453 61.5036 5.33384 61.3333 5.33331H59.04C58.3036 5.33331 57.7067 5.93027 57.7067 6.66665C57.7067 7.40303 58.3036 7.99998 59.04 7.99998Z" fill="#634CC2"/>
<path d="M30.076 5.33331H27.4427C26.7063 5.33331 26.1093 5.93027 26.1093 6.66665C26.1093 7.40303 26.7063 7.99998 27.4427 7.99998H30.076C30.8124 7.99998 31.4093 7.40303 31.4093 6.66665C31.4093 5.93027 30.8124 5.33331 30.076 5.33331Z" fill="#634CC2"/>
<path d="M51.14 7.99998H53.7733C54.5097 7.99998 55.1067 7.40303 55.1067 6.66665C55.1067 5.93027 54.5097 5.33331 53.7733 5.33331H51.14C50.4036 5.33331 49.8066 5.93027 49.8066 6.66665C49.8066 7.40303 50.4036 7.99998 51.14 7.99998Z" fill="#634CC2"/>
<path d="M17.3333 33.3334C19.5425 33.3334 21.3333 31.5425 21.3333 29.3334C21.3333 27.1242 19.5425 25.3334 17.3333 25.3334C15.1242 25.3334 13.3333 27.1242 13.3333 29.3334C13.3333 31.5425 15.1242 33.3334 17.3333 33.3334ZM17.3333 28C18.0697 28 18.6667 28.597 18.6667 29.3334C18.6667 30.0698 18.0697 30.6667 17.3333 30.6667C16.597 30.6667 16 30.0698 16 29.3334C16 28.597 16.597 28 17.3333 28Z" fill="#634CC2"/>
<path d="M76 18.6667H70.6667V6.66667C70.6623 2.9866 67.6801 0.00440816 64 0H10.6667C6.9866 0.00440816 4.00441 2.9866 4 6.66667V20.1893C1.65242 20.7955 0.00908642 22.9088 0 25.3333V33.3334C0.00908642 35.7579 1.65242 37.8712 4 38.4774V52C4.00441 55.6801 6.9866 58.6623 10.6667 58.6667H47.1133C50.434 62.9595 54.5953 66.53 59.3427 69.16C59.7504 69.3911 60.2496 69.3911 60.6573 69.16C79.78 58.308 80 40.5054 80 39.752V22.6667C80 20.4575 78.2091 18.6667 76 18.6667ZM2.66667 33.3334V25.3333C2.66667 23.8606 3.86057 22.6667 5.33333 22.6667H21.3333C22.8061 22.6667 24 23.8606 24 25.3333V33.3334C24 34.8061 22.8061 36 21.3333 36H5.33333C3.86057 36 2.66667 34.8061 2.66667 33.3334ZM10.6667 56C8.45753 56 6.66667 54.2092 6.66667 52V38.6667H9.33333C9.33333 39.4031 9.93029 40 10.6667 40C11.403 40 12 39.4031 12 38.6667H21.3333C24.2789 38.6667 26.6667 36.2789 26.6667 33.3334V25.3333C26.6667 22.3878 24.2789 20 21.3333 20H12C12 19.2636 11.403 18.6667 10.6667 18.6667C9.93029 18.6667 9.33333 19.2636 9.33333 20H6.66667V6.66667C6.66667 4.45753 8.45753 2.66667 10.6667 2.66667H64C66.2091 2.66667 68 4.45753 68 6.66667V18.6667H65.3333C65.3333 17.9303 64.7364 17.3333 64 17.3333C63.2636 17.3333 62.6667 17.9303 62.6667 18.6667H44C41.7909 18.6667 40 20.4575 40 22.6667V39.752C40.1629 43.5233 41.0148 47.2328 42.5133 50.6974C41.8458 50.7679 41.3378 51.3288 41.3333 52C41.3333 52.7364 41.9303 53.3334 42.6667 53.3334H43.7413C44.192 54.2089 44.7 55.0978 45.2653 56H10.6667ZM77.3333 39.7507C77.3333 40.432 77.0773 56.3734 60 66.46C55.6534 63.9509 51.8653 60.5802 48.868 56.5547C48.8283 56.4922 48.7837 56.4329 48.7347 56.3774C45.1332 51.5463 43.0239 45.7671 42.6667 39.752V22.6667C42.6667 21.9303 43.2636 21.3333 44 21.3333H76C76.7364 21.3333 77.3333 21.9303 77.3333 22.6667V39.7507Z" fill="#634CC2"/>
<path d="M72 24C71.2636 24 70.6667 24.597 70.6667 25.3333C70.6667 26.0697 71.2636 26.6667 72 26.6667V39.7333C71.992 40.236 71.676 52.1507 59.2493 60.6214C58.8411 60.8834 58.6075 61.3466 58.6393 61.8306C58.671 62.3147 58.9631 62.7433 59.4021 62.9498C59.841 63.1563 60.3575 63.1081 60.7507 62.824C74.308 53.584 74.6587 40.332 74.6667 39.752V26.6667C74.6667 25.1939 73.4728 24 72 24Z" fill="#634CC2"/>
<path d="M48 39.752V26.6667H62.6667C63.4031 26.6667 64 26.0697 64 25.3333C64 24.597 63.4031 24 62.6667 24H48C46.5273 24 45.3333 25.1939 45.3333 26.6667V39.752C45.7079 45.207 47.6476 50.4382 50.92 54.8187C51.1996 55.2045 51.6639 55.4119 52.1378 55.3627C52.6118 55.3134 53.0235 55.0151 53.2178 54.58C53.4122 54.1449 53.3596 53.6392 53.08 53.2533C50.1466 49.3224 48.3854 44.6416 48 39.752Z" fill="#634CC2"/>
<path d="M68.9427 33.5574C68.422 33.0369 67.578 33.0369 67.0573 33.5574L57.1667 43.448L55.6093 41.8907C55.0862 41.3854 54.2546 41.3926 53.7403 41.907C53.2259 42.4213 53.2187 43.2529 53.724 43.7761L56.224 46.2761C56.7447 46.7966 57.5887 46.7966 58.1093 46.2761L68.9427 35.4427C69.4632 34.922 69.4632 34.078 68.9427 33.5574Z" fill="#634CC2"/>
</svg>
