<svg width="86" height="108" viewBox="0 0 86 108" fill="none" xmlns="http://www.w3.org/2000/svg">
<path fill-rule="evenodd" clip-rule="evenodd" d="M34.1216 44.8971C34.5524 44.9269 34.8266 44.9831 35.2677 45.3952L39.0729 49.1997C39.3165 49.4611 39.3361 49.5249 39.4059 49.6722C39.7099 50.31 39.6749 50.9631 39.0721 51.6077L29.5533 61.2116C29.4461 61.3878 29.4137 61.4295 29.2724 61.5811L25.4679 65.3855C24.7288 66.0761 24.2588 66.667 22.8871 65.3855L19.0826 61.5811C18.828 61.3086 18.7991 61.2243 18.7225 61.0481L15.3353 57.6609C15.0917 57.3995 15.0721 57.3356 15.0015 57.1883C14.6983 56.5505 14.7333 55.8974 15.3353 55.2529L19.1397 51.4484C19.4011 51.2041 19.465 51.1845 19.6131 51.1147C20.2509 50.8107 20.9031 50.8456 21.5485 51.4484L24.1771 54.077L32.9448 45.316C33.4812 44.8792 33.6711 44.8971 34.1216 44.8971ZM25.3819 57.6898C25.1205 57.9333 25.0567 57.9529 24.9085 58.0236C24.2707 58.3267 23.6185 58.2927 22.9731 57.6898L20.3445 55.0604L18.9481 56.4569L21.5775 59.0863C21.8312 59.3587 21.8602 59.443 21.9368 59.6193L24.1771 61.8595L26.4437 59.5588C26.5195 59.4132 26.5297 59.3519 26.7775 59.0863L35.4601 50.4037L34.0637 49.0072C31.1695 51.9014 28.2761 54.7956 25.3819 57.6898Z" fill="#634CC2"/>
<path fill-rule="evenodd" clip-rule="evenodd" d="M40.3289 36.4674C41.0041 36.6147 41.5176 37.1145 42.0565 37.5633C43.2427 38.5527 44.3309 39.6596 45.2973 40.8645C45.8925 41.6061 46.3889 42.4482 45.941 43.367L44.6689 45.6898C45.196 46.6299 45.9163 48.2009 46.4076 49.8808L49.1085 50.6957C51.1172 51.6102 50.5893 55.6386 50.1925 58.5404C50.0912 59.2744 49.6663 59.8926 48.9553 60.1378L46.4127 60.8803C46.1207 61.9183 45.5187 63.5378 44.6783 65.0739L46.0125 67.5594C46.7857 69.6268 43.5645 72.1021 41.2315 73.8731C40.6414 74.321 39.904 74.4573 39.2271 74.1277L36.9042 72.8548C35.9642 73.3818 34.3932 74.1022 32.7132 74.5935L31.8983 77.2944C30.9838 79.3039 26.9555 78.776 24.0536 78.3783C23.3196 78.2779 22.7014 77.853 22.4562 77.1411L21.7137 74.5986C20.6766 74.3074 19.0562 73.7054 17.5202 72.8641L15.0347 74.1984C12.9673 74.9724 10.492 71.7504 8.7209 69.4173C8.27302 68.8272 8.13679 68.0898 8.46631 67.4129L9.73928 65.0909C9.21221 64.1509 8.49186 62.579 8.00055 60.8991L5.29964 60.085C3.29013 59.1697 3.81805 55.1422 4.2157 52.2395C4.31617 51.5055 4.74192 50.8882 5.45291 50.6429L7.99544 49.9004C8.2875 48.8625 8.8895 47.2421 9.72992 45.7069L8.39564 43.2205C7.62164 41.1531 10.8437 38.6787 13.1767 36.9076C13.7668 36.4597 14.5042 36.3235 15.1811 36.653L17.5031 37.9251C18.4432 37.3981 20.015 36.6777 21.695 36.1864L22.509 33.4855C23.4244 31.4769 27.4519 32.0048 30.3546 32.4024C31.0886 32.5029 31.7067 32.9278 31.952 33.6396L32.6945 36.1813C33.7316 36.4734 35.352 37.0754 36.8872 37.9158L39.3735 36.5815C39.6068 36.4947 39.6886 36.3899 40.3289 36.4674ZM17.8199 69.2181C19.5867 69.608 21.322 71.0266 23.4703 71.5358C23.4703 71.5358 24.3908 71.7853 24.7118 72.716L25.41 75.1061C26.6038 75.2091 27.8044 75.2091 28.9982 75.1061L29.6955 72.716C30.1741 71.328 30.5947 71.6397 31.6097 71.3664C33.1475 70.933 34.6197 70.2858 35.9812 69.4471C35.9812 69.4471 36.808 68.972 37.6927 69.4028L39.8767 70.6C40.7938 69.8286 41.6427 68.9797 42.4133 68.0626L41.217 65.8794C40.575 64.5621 41.0918 64.483 41.6155 63.5719C42.3971 62.1788 42.9804 60.6802 43.3499 59.1237C43.3499 59.1237 43.5986 58.2033 44.5293 57.8822L46.9194 57.184C47.0224 55.9902 47.0224 54.7897 46.9194 53.5967L44.5293 52.8985C43.1422 52.42 43.4538 51.9993 43.1797 50.9852C42.7471 49.4474 42.1008 47.9752 41.2613 46.6128C41.2613 46.6128 40.7861 45.7861 41.217 44.9014L42.4133 42.7173C41.6427 41.8003 40.7938 40.9522 39.8767 40.1807L37.6927 41.3771C36.3737 42.0199 36.2971 41.5022 35.3852 40.9786C33.993 40.1969 32.4944 39.6136 30.937 39.2441C30.937 39.2441 30.0165 38.9955 29.6955 38.0648L28.9982 35.6747C27.8044 35.5716 26.6038 35.5716 25.41 35.6747L24.7118 38.0648C24.2333 39.4519 23.8135 39.1402 22.7985 39.4144C21.2616 39.8469 19.7894 40.4941 18.427 41.3336C18.427 41.3336 17.6002 41.8079 16.7146 41.3771L14.5314 40.1807C13.6144 40.9522 12.7655 41.8003 11.9949 42.7173L13.1912 44.9014C13.8324 46.2186 13.3164 46.2969 12.7927 47.2089C12.011 48.6019 11.4269 50.0997 11.0582 51.657C11.0582 51.657 10.8087 52.5775 9.87807 52.8985L7.48795 53.5967C7.38493 54.7897 7.38493 55.9902 7.48795 57.184L9.87807 57.8822C11.266 58.3608 10.9544 58.7806 11.2285 59.7955C11.6611 61.3325 12.3074 62.8055 13.1469 64.1671C13.1469 64.1671 13.6221 64.9939 13.1912 65.8794L11.9949 68.0626C12.7655 68.9797 13.6144 69.8286 14.5314 70.6L16.7146 69.4028C17.3354 69.1006 17.3814 69.1644 17.8199 69.2181Z" fill="#634CC2"/>
<path fill-rule="evenodd" clip-rule="evenodd" d="M48.8318 1.70383C49.2993 1.70979 49.7659 1.73533 50.2317 1.78642C51.2245 1.89456 52.0624 2.86525 52.1262 3.05854L52.443 4.14248C53.2204 4.39622 54.2703 4.89945 54.2703 4.89945L55.3687 4.30171C57.5817 3.38296 61.1137 7.17888 60.0995 9.1969L59.5571 10.1863C59.9284 10.916 60.3141 12.0136 60.3141 12.0136L61.5139 12.3687C63.8444 13.3309 63.4289 18.5019 61.3981 19.1746L60.3141 19.4914C60.0604 20.2696 59.5571 21.3186 59.5571 21.3186L60.1549 22.4179C61.0745 24.6301 57.2777 28.162 55.2597 27.1488L54.2703 26.6064C53.5405 26.9768 52.443 27.3633 52.443 27.3633L52.0879 28.5622C51.1734 30.7769 45.9921 30.5896 45.282 28.4464L44.9652 27.3633C44.187 27.1087 43.1379 26.6064 43.1379 26.6064L42.0387 27.2033C39.8257 28.1229 36.2946 24.3261 37.3078 22.3089L37.8502 21.3186C37.4798 20.5889 37.0932 19.4914 37.0932 19.4914L35.8944 19.1363C33.5638 18.1741 33.9794 13.003 36.0102 12.3304L37.0932 12.0136C37.3478 11.2362 37.8502 10.1863 37.8502 10.1863L37.2533 9.08791C36.286 6.75909 40.2361 3.39658 42.1477 4.35705L43.1379 4.89945C43.8677 4.5282 44.9652 4.14248 44.9652 4.14248L45.3203 2.94274C45.8116 1.75236 47.191 1.69616 48.8318 1.70383ZM54.4695 22.968C54.8655 23.0327 54.914 23.0829 55.0758 23.1638L55.8864 23.6074C56.2219 23.2983 56.5591 22.9348 56.5591 22.9348L56.1154 22.1241C55.4496 20.7924 56.8349 19.5646 57.2709 17.7296C57.2709 17.7296 57.6302 16.7606 58.4502 16.4873L59.3366 16.2285C59.3553 15.7729 59.3366 15.2765 59.3366 15.2765L58.4502 15.0176C57.0376 14.5468 57.1491 12.6982 56.1589 11.0932C56.1589 11.0932 55.7289 10.1531 56.1154 9.38082L56.5591 8.5702C56.25 8.23472 55.8864 7.89753 55.8864 7.89753L55.0758 8.34115C53.7441 9.00701 52.5162 7.62165 50.6804 7.18569C50.6804 7.18569 49.7123 6.82636 49.4389 6.00638L49.1801 5.11999C48.7237 5.10125 48.2281 5.11999 48.2281 5.11999L47.9693 6.00638C47.4984 7.41899 45.6498 7.30745 44.0439 8.29773C44.0439 8.29773 43.1047 8.72773 42.3324 8.34115L41.5218 7.89753C41.1863 8.20662 40.8492 8.5702 40.8492 8.5702L41.2928 9.38082C41.9586 10.7125 40.5733 11.9404 40.1373 13.7762C40.1373 13.7762 39.7771 14.7443 38.958 15.0176L38.0708 15.2765C38.0529 15.7329 38.0708 16.2285 38.0708 16.2285L38.958 16.4873C40.3706 16.9582 40.2591 18.8068 41.2494 20.4127C41.2494 20.4127 41.6794 21.3518 41.2928 22.1241L40.8492 22.9348C41.1582 23.2702 41.5218 23.6074 41.5218 23.6074L42.3324 23.1638C43.6642 22.4979 44.892 23.8842 46.727 24.3193C46.727 24.3193 47.6959 24.6794 47.9693 25.4986L48.2281 26.3858C48.6837 26.4037 49.1801 26.3858 49.1801 26.3858L49.4389 25.4986C49.9098 24.086 51.7584 24.1975 53.3634 23.2081C53.3634 23.2081 53.8786 22.916 54.4695 22.968Z" fill="#634CC2"/>
<path fill-rule="evenodd" clip-rule="evenodd" d="M67.2869 26.2683C67.8301 26.276 68.3717 26.3058 68.9115 26.3645C69.7741 26.4591 70.5975 26.7843 70.8878 27.6477L71.3093 29.0884C71.449 29.131 71.5869 29.1779 71.7248 29.2238C72.5516 29.5125 73.7267 30.0898 73.7267 30.0898L75.1674 29.3064C77.6375 28.3247 81.3279 32.6885 80.3453 34.6699L79.6232 35.9872C79.6922 36.1158 79.7569 36.2469 79.8216 36.3772C80.2022 37.1656 80.6246 38.4046 80.6246 38.4046L82.1981 38.8695C84.6393 39.9219 84.1616 45.6166 82.0661 46.3234L80.6246 46.744C80.5828 46.8836 80.536 47.0224 80.4892 47.1604C80.2005 47.9863 79.6232 49.1614 79.6232 49.1614L80.4066 50.6029C81.3892 53.0731 77.0245 56.7626 75.0431 55.78L73.7267 55.0588C73.5972 55.1277 73.467 55.1924 73.3358 55.2572C72.5474 55.6378 71.3093 56.0601 71.3093 56.0601L70.8435 57.6337C69.7911 60.074 64.0964 59.5972 63.3896 57.5017L62.969 56.0601C62.8294 56.0175 62.6906 55.9716 62.5526 55.9247C61.7267 55.6361 60.5516 55.0588 60.5516 55.0588L59.1101 55.8421C56.6399 56.8247 52.9504 52.46 53.933 50.4786L54.6543 49.1614C54.5853 49.0328 54.5206 48.9017 54.4559 48.7714C54.0761 47.9829 53.6529 46.744 53.6529 46.744L52.0802 46.2791C49.639 45.2267 50.1158 39.5319 52.2122 38.8252L53.6529 38.4046C53.6955 38.2649 53.7423 38.1261 53.7891 37.9882C54.0778 37.1622 54.6543 35.9872 54.6543 35.9872L53.8709 34.5456C52.8891 32.0755 57.253 28.386 59.2352 29.3686L60.5516 30.0898C60.6802 30.0208 60.8113 29.9561 60.9416 29.8914C61.7301 29.5116 62.969 29.0884 62.969 29.0884L63.4348 27.5149C63.9797 26.2504 65.48 26.2607 67.2869 26.2683ZM74.0077 51.4306C74.2469 51.4834 74.3065 51.5047 74.5262 51.6136L75.6774 52.2446C76.0768 51.8895 76.454 51.5123 76.8091 51.113L76.1781 49.9609C75.4535 48.5023 77.0807 47.0659 77.5745 44.984C77.5745 44.984 77.9892 43.9997 78.7538 43.7425L80.0149 43.3747C80.0464 42.8408 80.0464 42.3078 80.0149 41.7747L78.7538 41.406C77.2092 40.8858 77.3446 38.7205 76.2215 36.8991C76.2215 36.8991 75.8188 35.9105 76.1781 35.1876L76.8091 34.0356C76.3229 33.4881 75.6774 32.904 75.6774 32.904L74.5262 33.5349C73.0659 34.2604 71.6303 32.6332 69.5484 32.1393C69.5484 32.1393 68.6127 31.8668 68.307 30.9592L67.9391 29.699C67.2077 29.6555 66.3392 29.699 66.3392 29.699L65.9705 30.9592C65.4511 32.5038 63.2858 32.3684 61.4644 33.4915C61.4644 33.4915 60.475 33.8942 59.7521 33.5349L58.6 32.904C58.2007 33.259 57.8235 33.6362 57.4693 34.0356L58.1002 35.1876C58.8248 36.6471 57.1976 38.0827 56.7038 40.1646C56.7038 40.1646 56.4313 41.1004 55.5236 41.406L54.2634 41.7747C54.2319 42.3078 54.2319 42.8408 54.2634 43.3747L55.5236 43.7425C57.0691 44.2628 56.9328 46.4281 58.0559 48.2494C58.0559 48.2494 58.4587 49.2389 58.1002 49.9609L57.4693 51.113C57.9555 51.6605 58.6 52.2446 58.6 52.2446L59.7521 51.6136C61.2124 50.889 62.6471 52.5162 64.729 53.0101C64.729 53.0101 65.7133 53.4248 65.9705 54.1894L66.3392 55.4496C66.8722 55.4811 67.4053 55.4811 67.9391 55.4496L68.307 54.1894C68.8272 52.6456 70.9926 52.7802 72.8139 51.6571C72.8139 51.6571 73.2839 51.331 74.0077 51.4306Z" fill="#634CC2"/>
</svg>
