<svg width="85" height="107" viewBox="0 0 85 107" fill="none" xmlns="http://www.w3.org/2000/svg">
<path d="M70.3906 30.6142V26.5625C70.3906 21.4361 66.2195 17.2656 61.0938 17.2656H49.5389C48.0259 14.0603 44.7895 11.9531 41.1719 11.9531H17.2656C12.1399 11.9531 7.96875 16.1236 7.96875 21.25V26.5625C7.96875 28.5553 8.61384 30.4795 9.77911 32.0626C5.45266 34.3223 2.65625 38.8336 2.65625 43.8281V63.75C2.65625 68.8764 6.82739 73.0469 11.9531 73.0469H26.5625C29.4924 73.0469 31.875 70.6636 31.875 67.7344C31.875 67.3822 31.7349 67.0444 31.4859 66.7953L29.7687 65.0781L31.4859 63.3609C32.0047 62.8421 32.0047 62.0016 31.4859 61.4828L29.5871 59.5827C29.3497 59.346 29.2188 59.0335 29.2188 58.7034C29.2188 58.2222 29.482 57.7922 29.9049 57.5808L33.7959 55.6418C34.137 55.4719 34.3886 55.1632 34.4872 54.7949C34.5844 54.4265 34.5196 54.0335 34.3082 53.7164L29.2188 46.0823V43.8281C29.2188 40.9046 28.2705 38.1401 26.5426 35.8594H28.8205C30.3334 39.0647 33.5699 41.1719 37.1875 41.1719H56.0607C55.8823 42.0389 55.7812 42.9253 55.7812 43.8281V46.0823L50.6918 53.7164C50.4804 54.0335 50.4156 54.4265 50.5128 54.7949C50.6114 55.1632 50.863 55.4719 51.2041 55.6418L55.0938 57.5802C55.518 57.7922 55.7812 58.2222 55.7812 58.7034C55.7812 59.0335 55.6503 59.346 55.4129 59.5834L53.5141 61.4828C52.9953 62.0016 52.9953 62.8421 53.5141 63.3609L55.2313 65.0781L53.5141 66.7953C53.2651 67.0444 53.125 67.3822 53.125 67.7344C53.125 70.6636 55.5076 73.0469 58.4375 73.0469H73.0469C78.1726 73.0469 82.3438 68.8764 82.3438 63.75V43.8281C82.3438 36.953 77.0922 31.2828 70.3906 30.6142ZM10.625 21.25C10.625 17.5886 13.6042 14.6094 17.2656 14.6094H41.1719C43.9902 14.6094 46.5025 16.3856 47.4286 19.0483C47.6828 19.7481 47.8125 20.4887 47.8125 21.25V26.5625C47.8125 30.2239 44.8333 33.2031 41.1719 33.2031H29.6831H23.8842C23.6823 33.0512 23.4645 32.9246 23.2546 32.7852C23.0947 32.6793 22.9401 32.5661 22.7758 32.4675C22.4228 32.2552 22.0571 32.0685 21.6865 31.8907C21.5807 31.8401 21.4802 31.7795 21.3731 31.7318C20.378 31.2869 19.3308 30.9669 18.2573 30.7754C18.2101 30.767 18.162 30.7644 18.1147 30.7566C17.6316 30.6757 17.1452 30.6198 16.6552 30.5918C16.5437 30.5855 16.4321 30.5892 16.3203 30.5857C15.895 30.5721 15.4703 30.5736 15.0444 30.6008C14.8957 30.6102 14.7482 30.6292 14.5995 30.6436C14.217 30.681 13.8369 30.7308 13.4575 30.8019C13.2714 30.8363 13.0873 30.8789 12.9021 30.9215C12.7245 30.9628 12.5445 30.9875 12.3682 31.0365C11.2527 29.8173 10.625 28.2227 10.625 26.5625V21.25ZM26.7856 47.2211L31.2628 53.9363L28.7181 55.2041C27.3887 55.8688 26.5625 57.2099 26.5625 58.7034C26.5625 59.7436 26.9698 60.7235 27.709 61.4614L28.6688 62.4219L26.9516 64.1391C26.4328 64.6579 26.4328 65.4984 26.9516 66.0172L29.1708 68.237C28.936 69.462 27.8556 70.3906 26.5625 70.3906H11.9531C8.2917 70.3906 5.3125 67.4114 5.3125 63.75V43.8281C5.3125 39.3036 8.17757 35.2712 12.4382 33.7952C12.938 33.6231 13.4469 33.5041 13.9578 33.4068C14.1811 33.3655 14.4056 33.3402 14.63 33.3133C14.9055 33.2788 15.1815 33.2561 15.4582 33.2435C17.5382 33.1573 19.6087 33.6672 21.384 34.7279C21.4582 34.7726 21.532 34.818 21.6052 34.8645C21.9348 35.0728 22.2561 35.2954 22.5617 35.5415C22.5733 35.5509 22.586 35.5588 22.5976 35.5682C22.892 35.8036 23.1747 36.0507 23.4484 36.3237C25.4562 38.3191 26.5625 40.9838 26.5625 43.8281V46.4844C26.5625 46.7464 26.6403 47.0032 26.7856 47.2211ZM31.8737 35.8594H41.1719C46.2976 35.8594 50.4688 31.6889 50.4688 26.5625V21.25C50.4688 20.8019 50.4363 20.359 50.3728 19.9219H61.0938C64.7552 19.9219 67.7344 22.9011 67.7344 26.5625V30.6117C67.3231 30.6522 66.9169 30.7147 66.5149 30.7923C66.3914 30.8161 66.2711 30.8496 66.1486 30.8769C65.8717 30.9386 65.5963 31.0037 65.3251 31.0828C65.1788 31.1254 65.0356 31.1757 64.8912 31.2233C64.6478 31.3036 64.4064 31.3878 64.1684 31.4821C64.0199 31.5409 63.8736 31.6042 63.7273 31.6685C63.4983 31.7691 63.2726 31.8761 63.0497 31.9897C62.9069 32.0626 62.7649 32.1362 62.6248 32.2143C62.4024 32.3382 62.1853 32.4711 61.9701 32.6082C61.8396 32.6913 61.708 32.7719 61.5803 32.8597C61.3519 33.0167 61.1314 33.1858 60.9122 33.3578C60.8078 33.4397 60.7 33.516 60.5978 33.6014C60.2819 33.8652 59.9748 34.1419 59.6813 34.4372C59.3576 34.7576 59.055 35.0998 58.766 35.4543C58.674 35.5673 58.5913 35.6869 58.5029 35.803C58.3135 36.0521 58.1295 36.3046 57.9579 36.5672C57.8636 36.7116 57.7759 36.859 57.6871 37.007C57.5379 37.2561 57.3968 37.5089 57.2641 37.7676C57.1831 37.9254 57.1038 38.0829 57.0293 38.2439C56.9868 38.3356 56.9357 38.423 56.8954 38.5156H37.1875C35.0552 38.5156 33.0994 37.4994 31.8737 35.8594ZM79.6875 63.75C79.6875 67.4114 76.7083 70.3906 73.0469 70.3906H58.4375C57.1444 70.3906 56.064 69.462 55.8292 68.237L58.0484 66.0172C58.5672 65.4984 58.5672 64.6579 58.0484 64.1391L56.3312 62.4219L57.291 61.4621C58.0302 60.7235 58.4375 59.7436 58.4375 58.7034C58.4375 57.2099 57.6113 55.8688 56.2806 55.2034L53.7372 53.9363L58.2144 47.2211C58.3597 47.0032 58.4375 46.7464 58.4375 46.4844V43.8281C58.4375 42.6051 58.6424 41.4164 59.0523 40.2841C59.5776 38.7919 60.4401 37.4229 61.5568 36.3179C63.5529 34.3095 66.2182 33.2031 69.0625 33.2031C74.921 33.2031 79.6875 37.9696 79.6875 43.8281V63.75Z" fill="#634CC2"/>
<path d="M29.2188 27.8906C31.4159 27.8906 33.2031 26.1034 33.2031 23.9062C33.2031 21.7091 31.4159 19.9219 29.2188 19.9219C27.0216 19.9219 25.2344 21.7091 25.2344 23.9062C25.2344 26.1034 27.0216 27.8906 29.2188 27.8906ZM29.2188 22.5781C29.9516 22.5781 30.5469 23.1741 30.5469 23.9062C30.5469 24.6384 29.9516 25.2344 29.2188 25.2344C28.4859 25.2344 27.8906 24.6384 27.8906 23.9062C27.8906 23.1741 28.4859 22.5781 29.2188 22.5781Z" fill="#634CC2"/>
<path d="M18.5938 27.8906C20.7909 27.8906 22.5781 26.1034 22.5781 23.9062C22.5781 21.7091 20.7909 19.9219 18.5938 19.9219C16.3966 19.9219 14.6094 21.7091 14.6094 23.9062C14.6094 26.1034 16.3966 27.8906 18.5938 27.8906ZM18.5938 22.5781C19.3266 22.5781 19.9219 23.1741 19.9219 23.9062C19.9219 24.6384 19.3266 25.2344 18.5938 25.2344C17.8609 25.2344 17.2656 24.6384 17.2656 23.9062C17.2656 23.1741 17.8609 22.5781 18.5938 22.5781Z" fill="#634CC2"/>
<path d="M39.8438 27.8906C42.0409 27.8906 43.8281 26.1034 43.8281 23.9062C43.8281 21.7091 42.0409 19.9219 39.8438 19.9219C37.6466 19.9219 35.8594 21.7091 35.8594 23.9062C35.8594 26.1034 37.6466 27.8906 39.8438 27.8906ZM39.8438 22.5781C40.5766 22.5781 41.1719 23.1741 41.1719 23.9062C41.1719 24.6384 40.5766 25.2344 39.8438 25.2344C39.1109 25.2344 38.5156 24.6384 38.5156 23.9062C38.5156 23.1741 39.1109 22.5781 39.8438 22.5781Z" fill="#634CC2"/>
<path d="M61.0938 29.2188C61.0938 27.0216 59.3065 25.2344 57.1094 25.2344C54.9123 25.2344 53.125 27.0216 53.125 29.2188C53.125 31.4159 54.9123 33.2031 57.1094 33.2031C59.3065 33.2031 61.0938 31.4159 61.0938 29.2188ZM55.7812 29.2188C55.7812 28.4866 56.3766 27.8906 57.1094 27.8906C57.8422 27.8906 58.4375 28.4866 58.4375 29.2188C58.4375 29.9509 57.8422 30.5469 57.1094 30.5469C56.3766 30.5469 55.7812 29.9509 55.7812 29.2188Z" fill="#634CC2"/>
</svg>
