<svg width="167" height="38" viewBox="0 0 167 38" fill="none" xmlns="http://www.w3.org/2000/svg">
<g clip-path="url(#clip0)">
<path d="M75.1764 22.8293V17.7175C75.1764 15.792 73.9236 14.497 71.9051 14.48C71.3301 14.4433 70.7555 14.5583 70.2414 14.8131C69.7272 15.0678 69.2922 15.453 68.9817 15.9284C68.6988 15.4671 68.2941 15.0892 67.8103 14.8343C67.3264 14.5794 66.7813 14.457 66.2324 14.48C65.7539 14.4564 65.2774 14.5557 64.8501 14.7679C64.4229 14.9801 64.0596 15.2979 63.7963 15.6898V14.6845H61.9865V22.8293H63.8136V18.3138C63.8136 16.8995 64.6141 16.15 65.8495 16.15C67.0502 16.15 67.6593 16.9166 67.6593 18.2968V22.8293H69.4864V18.3138C69.4864 16.8995 70.3217 16.15 71.5223 16.15C72.7577 16.15 73.3494 16.9166 73.3494 18.2968V22.8293H75.1764ZM102.218 14.6845H99.2594V12.2138H97.4324V14.6845H95.7444V16.3032H97.4324V20.0178C97.4324 21.9092 98.1806 23.0338 100.321 23.0338C101.12 23.0362 101.904 22.8176 102.583 22.4034L102.061 20.8868C101.576 21.1703 101.025 21.3286 100.46 21.3469C99.5552 21.3469 99.2594 20.8015 99.2594 19.9838V16.3032H102.218V14.6845ZM117.652 14.48C117.211 14.4672 116.774 14.5713 116.389 14.7813C116.003 14.9912 115.682 15.2992 115.46 15.6727V14.6845H113.667V22.8293H115.477V18.2627C115.477 16.9166 116.069 16.1669 117.252 16.1669C117.639 16.1617 118.024 16.2312 118.383 16.3714L118.94 14.7015C118.527 14.5566 118.091 14.4817 117.652 14.48ZM94.3176 15.332C93.2932 14.7355 92.1154 14.4398 90.9243 14.48C88.8188 14.48 87.4616 15.4682 87.4616 17.087C87.4616 18.4161 88.4708 19.234 90.3326 19.4896L91.1854 19.6089C92.1771 19.7451 92.647 20.0007 92.647 20.4608C92.647 21.0913 91.9857 21.4491 90.7503 21.4491C89.7566 21.4771 88.7821 21.177 87.9835 20.5971L87.1309 21.9772C88.185 22.6982 89.4477 23.0686 90.7329 23.0338C93.1342 23.0338 94.5263 21.9261 94.5263 20.3756C94.5263 18.9442 93.4301 18.1945 91.6203 17.9389L90.7678 17.8196C89.9847 17.7174 89.3583 17.5642 89.3583 17.019C89.3583 16.4225 89.9498 16.0647 90.9418 16.0647C91.8526 16.0781 92.7449 16.3186 93.5345 16.7633L94.3176 15.332ZM142.797 14.48C142.356 14.4672 141.919 14.5713 141.533 14.7812C141.147 14.9912 140.826 15.2991 140.604 15.6727V14.6845H138.812V22.8293H140.622V18.2627C140.622 16.9166 141.213 16.1669 142.396 16.1669C142.784 16.1616 143.168 16.2311 143.528 16.3714L144.084 14.7015C143.671 14.5566 143.236 14.4817 142.797 14.48ZM119.479 18.7568C119.479 21.2276 121.237 23.0338 123.917 23.0338C125.003 23.0873 126.071 22.7408 126.91 22.0625L126.04 20.6312C125.414 21.0982 124.651 21.3551 123.864 21.3638C122.42 21.3469 121.359 20.3245 121.359 18.7568C121.359 17.1893 122.42 16.1669 123.864 16.15C124.651 16.1586 125.414 16.4156 126.04 16.8826L126.91 15.4513C126.071 14.773 125.003 14.4265 123.917 14.48C121.237 14.48 119.479 16.2861 119.479 18.7568ZM136.428 18.7568V14.6845H134.618V15.6727C134.309 15.2829 133.91 14.9712 133.452 14.7637C132.995 14.5562 132.494 14.4589 131.991 14.48C129.659 14.48 127.832 16.2692 127.832 18.7568C127.832 21.2446 129.659 23.0338 131.991 23.0338C132.494 23.0549 132.995 22.9576 133.452 22.7501C133.91 22.5425 134.309 22.2308 134.618 21.841V22.8293H136.428V18.7568ZM129.694 18.7568C129.694 17.3255 130.651 16.15 132.217 16.15C133.713 16.15 134.723 17.2744 134.723 18.7568C134.723 20.2392 133.713 21.3638 132.217 21.3638C130.651 21.3638 129.694 20.1881 129.694 18.7568ZM107.856 14.48C105.419 14.48 103.714 16.218 103.714 18.7568C103.714 21.3469 105.489 23.0338 107.977 23.0338C109.219 23.0765 110.433 22.6701 111.388 21.8921L110.5 20.5801C109.813 21.1193 108.962 21.4191 108.082 21.432C106.916 21.432 105.854 20.9039 105.593 19.4384H111.771C111.788 19.2169 111.806 18.9955 111.806 18.7568C111.788 16.218 110.187 14.48 107.856 14.48ZM107.821 16.0647C108.987 16.0647 109.735 16.7803 109.926 18.0412H105.611C105.802 16.8655 106.533 16.0647 107.821 16.0647ZM153.22 18.7568V11.413H151.41V15.6727C151.101 15.283 150.702 14.9713 150.244 14.7638C149.787 14.5562 149.286 14.4589 148.783 14.48C146.451 14.48 144.624 16.2692 144.624 18.7568C144.624 21.2446 146.451 23.0338 148.783 23.0338C149.286 23.0549 149.787 22.9576 150.244 22.75C150.702 22.5425 151.101 22.2308 151.41 21.841V22.8293H153.22V18.7568ZM155.335 22.0777C155.407 22.0772 155.478 22.091 155.544 22.1182C155.607 22.1443 155.665 22.1819 155.715 22.2291C155.764 22.2762 155.803 22.3322 155.83 22.3938C155.858 22.4572 155.872 22.5254 155.872 22.5943C155.872 22.6632 155.858 22.7314 155.83 22.7948C155.802 22.8561 155.763 22.9118 155.715 22.9588C155.665 23.0061 155.607 23.0439 155.544 23.0703C155.478 23.098 155.407 23.112 155.335 23.1115C155.229 23.1126 155.125 23.0831 155.037 23.0268C154.948 22.9704 154.878 22.8897 154.836 22.7948C154.808 22.7314 154.794 22.6632 154.794 22.5943C154.794 22.5254 154.808 22.4572 154.836 22.3938C154.891 22.2687 154.993 22.1697 155.122 22.1182C155.19 22.0909 155.262 22.0772 155.335 22.0777ZM155.335 22.9975C155.39 22.9979 155.444 22.9871 155.494 22.9658C155.542 22.9453 155.586 22.916 155.623 22.8796C155.7 22.8037 155.743 22.7013 155.743 22.5945C155.743 22.4878 155.7 22.3853 155.623 22.3095C155.586 22.2732 155.542 22.2442 155.494 22.224C155.444 22.2031 155.39 22.1925 155.335 22.193C155.279 22.1926 155.224 22.2031 155.173 22.224C155.111 22.2499 155.056 22.2901 155.014 22.3413C154.971 22.3925 154.942 22.4531 154.929 22.5178C154.917 22.5824 154.92 22.6492 154.939 22.7123C154.959 22.7754 154.994 22.8328 155.041 22.8796C155.079 22.9163 155.124 22.9456 155.173 22.9658C155.224 22.9871 155.279 22.9978 155.335 22.9975ZM155.366 22.3526C155.418 22.3493 155.469 22.3639 155.512 22.3938C155.528 22.4073 155.542 22.4245 155.551 22.444C155.559 22.4634 155.564 22.4846 155.563 22.5059C155.563 22.5241 155.56 22.5423 155.553 22.5592C155.546 22.5761 155.535 22.5914 155.522 22.604C155.49 22.632 155.449 22.6487 155.406 22.6516L155.567 22.8327H155.441L155.292 22.6528H155.244V22.8327H155.14V22.3526H155.366ZM155.244 22.4426V22.5705H155.365C155.388 22.5717 155.411 22.5662 155.431 22.5546C155.439 22.5493 155.445 22.542 155.45 22.5335C155.454 22.5249 155.456 22.5154 155.455 22.5059C155.456 22.4966 155.454 22.4872 155.449 22.4789C155.445 22.4706 155.439 22.4635 155.431 22.4584C155.411 22.4469 155.388 22.4415 155.365 22.4426H155.244ZM146.486 18.7568C146.486 17.3255 147.443 16.15 149.009 16.15C150.505 16.15 151.514 17.2744 151.514 18.7568C151.514 20.2392 150.505 21.3638 149.009 21.3638C147.443 21.3638 146.486 20.1881 146.486 18.7568ZM85.3735 18.7568V14.6845H83.5637V15.6727C83.2548 15.2829 82.8551 14.9712 82.3979 14.7637C81.9408 14.5562 81.4395 14.4589 80.9361 14.48C78.6044 14.48 76.7774 16.2692 76.7774 18.7568C76.7774 21.2446 78.6044 23.0338 80.9361 23.0338C81.4395 23.0549 81.9408 22.9576 82.3979 22.7501C82.8551 22.5425 83.2548 22.2308 83.5637 21.841V22.8293H85.3735V18.7568ZM78.6393 18.7568C78.6393 17.3255 79.5964 16.15 81.1624 16.15C82.6589 16.15 83.6681 17.2744 83.6681 18.7568C83.6681 20.2392 82.6589 21.3638 81.1624 21.3638C79.5964 21.3638 78.6393 20.1881 78.6393 18.7568Z" fill="#231F20"/>
<path d="M38.8973 9.07776H27.9538V28.3351H38.8973V9.07776Z" fill="#FF5F00"/>
<path d="M28.6485 18.7056C28.6467 16.851 29.0759 15.0203 29.9036 13.3521C30.7312 11.6839 31.9355 10.222 33.4254 9.07693C31.5804 7.65682 29.3645 6.77368 27.0312 6.52844C24.6978 6.2832 22.341 6.68575 20.2302 7.6901C18.1195 8.69445 16.3398 10.2601 15.0948 12.208C13.8497 14.1559 13.1895 16.4076 13.1895 18.7056C13.1895 21.0036 13.8497 23.2552 15.0948 25.2032C16.3398 27.1511 18.1195 28.7167 20.2302 29.721C22.341 30.7254 24.6978 31.1279 27.0312 30.8827C29.3645 30.6375 31.5804 29.7543 33.4254 28.3342C31.9355 27.1892 30.7312 25.7272 29.9036 24.0591C29.076 22.3909 28.6468 20.5602 28.6485 18.7056Z" fill="#EB001B"/>
<path d="M53.6608 18.7056C53.6609 21.0036 53.0007 23.2552 51.7557 25.2031C50.5107 27.151 48.7311 28.7167 46.6204 29.721C44.5097 30.7254 42.153 31.128 39.8196 30.8827C37.4863 30.6375 35.2705 29.7543 33.4255 28.3342C34.9141 27.188 36.1175 25.7259 36.945 24.0579C37.7724 22.39 38.2024 20.5599 38.2024 18.7056C38.2024 16.8513 37.7724 15.0211 36.945 13.3532C36.1175 11.6853 34.9141 10.2231 33.4255 9.07693C35.2705 7.65683 37.4863 6.77368 39.8196 6.52844C42.153 6.2832 44.5097 6.68577 46.6204 7.69013C48.7311 8.69449 50.5107 10.2601 51.7557 12.208C53.0007 14.156 53.6609 16.4076 53.6608 18.7056Z" fill="#F79E1B"/>
<path d="M52.4676 26.2942V25.9H52.63V25.8196H52.2165V25.9H52.3789V26.2942H52.4676ZM53.2704 26.2942V25.8188H53.1436L52.9978 26.1458L52.852 25.8188H52.7252V26.2942H52.8147V25.9356L52.9514 26.2448H53.0442L53.1809 25.9349V26.2942H53.2704Z" fill="#F79E1B"/>
</g>
<defs>
<clipPath id="clip0">
<rect width="166.41" height="37.4099" fill="white"/>
</clipPath>
</defs>
</svg>
