<svg width="182" height="130" viewBox="0 0 182 130" fill="none" xmlns="http://www.w3.org/2000/svg">
<path d="M75.8142 56.8361H69.193C68.7418 56.8361 68.3546 57.1672 68.2839 57.6126L65.606 74.593C65.6012 74.6211 65.5992 74.6501 65.5992 74.6782C65.5992 74.9813 65.8481 75.2301 66.1511 75.2301H69.3131C69.7642 75.2301 70.1524 74.898 70.2221 74.4526L70.9444 69.8727C71.0141 69.4273 71.4013 69.0952 71.8525 69.0952H73.9485C78.31 69.0952 80.8272 66.9844 81.4846 62.8015C81.7808 60.9715 81.4972 59.5336 80.6404 58.5266C79.6993 57.4209 78.0302 56.8361 75.8142 56.8361ZM76.578 63.0378C76.2159 65.4139 74.4007 65.4139 72.6454 65.4139H71.6463L72.3472 60.9763C72.3898 60.7091 72.6222 60.5106 72.8923 60.5106H73.3502C74.5459 60.5106 75.6738 60.5106 76.2566 61.1923C76.6042 61.5989 76.7107 62.2031 76.578 63.0378ZM95.606 62.9613H92.4353C92.1652 62.9613 91.9328 63.1598 91.8902 63.427L91.7498 64.3139L91.5281 63.9925C90.8417 62.9961 89.3111 62.6631 87.7833 62.6631C84.2796 62.6631 81.2871 65.3171 80.7043 69.04C80.4012 70.8972 80.8321 72.673 81.8854 73.9114C82.8516 75.05 84.2341 75.5245 85.879 75.5245C88.7021 75.5245 90.2676 73.709 90.2676 73.709L90.1263 74.5901C90.1214 74.6192 90.1195 74.6482 90.1195 74.6773C90.1195 74.9793 90.3683 75.2292 90.6704 75.2292H93.5264C93.9775 75.2292 94.3658 74.897 94.4355 74.4516L96.1491 63.5984C96.1539 63.5694 96.1559 63.5403 96.1559 63.5113C96.1559 63.2092 95.908 62.9613 95.606 62.9613ZM91.1864 69.133C90.8804 70.9446 89.4427 72.1607 87.6091 72.1607C86.6884 72.1607 85.9526 71.8654 85.4801 71.3058C85.0115 70.75 84.8334 69.9589 84.9825 69.0778C85.2681 67.2817 86.73 66.0258 88.5356 66.0258C89.436 66.0258 90.1679 66.325 90.65 66.8895C91.1331 67.4598 91.3248 68.2557 91.1864 69.133ZM112.492 62.9613H109.306C109.001 62.9613 108.716 63.1133 108.544 63.365L104.15 69.8388L102.287 63.6178C102.17 63.2295 101.81 62.9613 101.404 62.9613H98.2732C98.2722 62.9613 98.2722 62.9613 98.2713 62.9613C97.9692 62.9613 97.7194 63.2101 97.7194 63.5132C97.7194 63.5742 97.7301 63.6342 97.7494 63.6914L101.259 73.9917L97.9595 78.65C97.8937 78.743 97.8579 78.8553 97.8579 78.9696C97.8579 79.2726 98.1067 79.5215 98.4097 79.5215H101.592C101.893 79.5215 102.177 79.3743 102.348 79.1264L112.945 63.8279C113.009 63.7359 113.044 63.6255 113.044 63.5132C113.044 63.2101 112.795 62.9613 112.492 62.9613Z" fill="#253B80"/>
<path d="M123.041 56.8591H116.419C115.968 56.8591 115.58 57.1903 115.51 57.6357L112.832 74.6157C112.828 74.6437 112.826 74.6728 112.826 74.7018C112.826 75.0039 113.074 75.2528 113.377 75.2528H116.775C117.091 75.2528 117.362 75.0204 117.41 74.7086L118.17 69.8955C118.24 69.4501 118.627 69.118 119.078 69.118H121.173C125.536 69.118 128.053 67.0072 128.711 62.8244C129.008 60.9945 128.723 59.5566 127.866 58.5497C126.926 57.4439 125.257 56.8591 123.041 56.8591ZM123.805 63.0607C123.444 65.4368 121.629 65.4368 119.872 65.4368H118.874L119.576 60.9993C119.618 60.7321 119.85 60.5336 120.12 60.5336H120.578C121.773 60.5336 122.902 60.5336 123.485 61.2152C123.832 61.6219 123.938 62.2261 123.805 63.0607ZM142.833 62.9842H139.664C139.394 62.9832 139.161 63.1827 139.12 63.4499L138.98 64.3368L138.757 64.0154C138.071 63.0191 136.541 62.686 135.013 62.686C131.509 62.686 128.517 65.3399 127.934 69.0628C127.632 70.9199 128.061 72.6956 129.115 73.934C130.083 75.0727 131.464 75.5471 133.108 75.5471C135.932 75.5471 137.497 73.7317 137.497 73.7317L137.356 74.6128C137.351 74.6418 137.349 74.6709 137.349 74.6999C137.349 75.003 137.598 75.2518 137.901 75.2518H137.902H140.757C141.208 75.2518 141.596 74.9197 141.665 74.4743L143.38 63.6213C143.384 63.5932 143.387 63.5651 143.387 63.5371C143.387 63.234 143.137 62.9842 142.834 62.9842C142.833 62.9842 142.833 62.9842 142.833 62.9842ZM138.413 69.1558C138.109 70.9673 136.67 72.1834 134.836 72.1834C133.917 72.1834 133.179 71.8881 132.707 71.3285C132.238 70.7727 132.062 69.9817 132.209 69.1006C132.497 67.3045 133.957 66.0487 135.762 66.0487C136.663 66.0487 137.395 66.3479 137.877 66.9124C138.362 67.4826 138.554 68.2785 138.413 69.1558ZM146.571 57.3248L143.854 74.6157C143.849 74.6437 143.847 74.6728 143.847 74.7018C143.847 75.0039 144.096 75.2528 144.398 75.2528H147.13C147.584 75.2528 147.969 74.9236 148.039 74.4753L150.719 57.4962C150.724 57.4681 150.726 57.4391 150.726 57.4101C150.726 57.108 150.477 56.8591 150.175 56.8582H147.115C146.845 56.8591 146.613 57.0576 146.571 57.3248Z" fill="#179BD7"/>
<path d="M38.1093 78.5469L38.6156 75.3303L37.4877 75.3042H32.1019L35.8448 51.5694C35.868 51.4203 35.9977 51.309 36.1488 51.3099H45.2299C48.2447 51.3099 50.3253 51.9374 51.4115 53.1758C51.9208 53.7567 52.2451 54.3638 52.4019 55.0319C52.5665 55.7329 52.5694 56.5705 52.4087 57.592L52.3971 57.6665V58.3211L52.9064 58.6096C53.2955 58.8061 53.645 59.0734 53.9374 59.3958C54.3731 59.8925 54.6548 60.5238 54.7739 61.2723C54.8969 62.042 54.8562 62.958 54.6548 63.995C54.4225 65.1879 54.0468 66.2268 53.5395 67.077C53.0922 67.839 52.49 68.4983 51.7727 69.0135C51.0988 69.4918 50.2982 69.8549 49.393 70.0872C48.5158 70.3158 47.5157 70.431 46.4188 70.431H45.7121C45.2067 70.431 44.7159 70.613 44.3305 70.9393C43.9462 71.2695 43.6906 71.7246 43.6102 72.2251L43.557 72.5147L42.6624 78.1838L42.6218 78.3919C42.6111 78.4578 42.5927 78.4907 42.5656 78.513C42.5395 78.5343 42.5066 78.5469 42.4727 78.5469H38.1093Z" fill="#253B80"/>
<path d="M53.3911 57.7458C53.364 57.9192 53.333 58.0963 53.2982 58.2784C52.1003 64.4274 48.0023 66.5517 42.7684 66.5517H40.1035C39.4634 66.5517 38.924 67.0164 38.8243 67.6477L37.4599 76.2996L37.0735 78.752C37.0677 78.7869 37.0648 78.8227 37.0648 78.8585C37.0648 79.2323 37.3728 79.5401 37.7465 79.5401H42.473C43.0327 79.5401 43.5082 79.1335 43.5963 78.5816L43.6428 78.3415L44.5327 72.6949L44.5898 72.3851C44.677 71.8313 45.1534 71.4247 45.7131 71.4247H46.42C50.9993 71.4247 54.5841 69.5657 55.6319 64.1864C56.0696 61.9391 55.843 60.0628 54.6849 58.7431C54.3178 58.3345 53.8792 57.9966 53.3911 57.7458Z" fill="#179BD7"/>
<path d="M52.1342 57.222C51.7518 57.1116 51.3626 57.0254 50.9695 56.9634C50.1921 56.8443 49.407 56.7862 48.6209 56.792H41.5033C40.9457 56.792 40.4665 57.2017 40.3813 57.7527L38.8672 67.3455L38.8236 67.6254C38.9204 66.9969 39.4674 66.5292 40.1025 66.5292H42.7667C47.9994 66.5292 52.0964 64.4035 53.294 58.2543C53.3298 58.0722 53.3598 57.895 53.3869 57.7217C53.0713 57.5561 52.7412 57.4166 52.4023 57.3062C52.3133 57.2772 52.2242 57.2491 52.1342 57.222Z" fill="#222D65"/>
<path d="M40.3816 57.7655C40.4668 57.2146 40.9461 56.8041 41.5038 56.806H48.6225C49.4658 56.806 50.253 56.8612 50.9715 56.9774C51.4576 57.0539 51.9369 57.1681 52.4055 57.3191C52.7589 57.4363 53.0871 57.5748 53.3902 57.7345C53.7465 55.4621 53.3873 53.9149 52.1586 52.5139C50.804 50.9716 48.3591 50.3113 45.2307 50.3113H36.1484C35.5093 50.3113 34.9642 50.776 34.8654 51.4083L31.0824 75.3859C31.0757 75.4265 31.0728 75.4672 31.0728 75.5079C31.0728 75.9358 31.4242 76.2873 31.8522 76.2882H37.4594L38.8673 67.3565L40.3816 57.7655Z" fill="#253B80"/>
</svg>
