<svg width="130" height="93" viewBox="0 0 130 93" fill="none" xmlns="http://www.w3.org/2000/svg">
<path fill-rule="evenodd" clip-rule="evenodd" d="M66.5948 41.0219C66.5419 45.1988 70.3175 47.5298 73.1615 48.9157C76.0837 50.3378 77.0652 51.2496 77.054 52.5211C77.0317 54.4674 74.7229 55.3261 72.5621 55.3595C68.7921 55.418 66.6004 54.3418 64.8577 53.5276L63.4999 59.8821C65.2482 60.6881 68.4854 61.3908 71.8427 61.4214C79.7225 61.4214 84.8779 57.5316 84.906 51.5006C84.9367 43.8466 74.3187 43.4227 74.3911 40.0014C74.4162 38.9642 75.406 37.8571 77.5754 37.5755C78.6489 37.4334 81.6129 37.3245 84.9729 38.872L86.2917 32.7239C84.4849 32.0658 82.1621 31.4355 79.2708 31.4355C71.8538 31.4355 66.6369 35.3783 66.5948 41.0219ZM98.9648 31.9653C97.526 31.9653 96.3131 32.8047 95.7722 34.0929L84.5156 60.9697H92.3899L93.9568 56.6393H103.579L104.488 60.9697H111.429L105.372 31.9653H98.9648ZM100.066 39.8006L102.339 50.6918H96.1151L100.066 39.8006ZM57.0477 31.9653L50.8409 60.9697H58.3442L64.5483 31.9653H57.0477ZM45.9474 31.9653L38.1371 51.7067L34.9779 34.9209C34.6072 33.0473 33.1433 31.9653 31.5176 31.9653H18.75L18.5714 32.8075C21.1926 33.3763 24.1705 34.2937 25.9745 35.2752C27.0785 35.8746 27.3938 36.3988 27.7562 37.8237L33.7399 60.9697H41.6701L53.8272 31.9653H45.9474Z" fill="#1A1F71"/>
</svg>
