<svg width="45" height="57" viewBox="0 0 45 57" fill="none" xmlns="http://www.w3.org/2000/svg">
<g clip-path="url(#clip0)">
<path d="M43.5462 25.1308L36.7615 18.3461C36.2769 17.8615 35.5154 17.8615 35.0308 18.3461L34.7539 18.6231L32.2615 16.1308C33.4385 14.4 34.0616 12.3923 34.0616 10.2461C34.0616 7.47691 32.9539 4.84614 31.0154 2.83845C29.0769 0.89999 26.4462 -0.207703 23.6077 -0.207703C20.8385 -0.207703 18.2077 0.89999 16.2 2.83845C12.1154 6.92307 12.1154 13.5 16.2 17.5846C18.1385 19.5231 20.7692 20.6308 23.6077 20.6308C25.7539 20.6308 27.7615 20.0077 29.4923 18.8308L31.9846 21.3231L31.8462 21.6C31.3615 22.0846 31.3615 22.8461 31.8462 23.3308L38.6308 30.1154C39.3231 30.8077 40.1539 31.1538 41.1231 31.1538C42.0923 31.1538 42.9231 30.8077 43.6154 30.1154C44.3077 29.4231 44.6539 28.5923 44.6539 27.6231C44.5846 26.6538 44.2385 25.7538 43.5462 25.1308ZM17.0308 16.8231C13.3616 13.1538 13.3616 7.19999 17.0308 3.53076C18.8308 1.73076 21.1846 0.761528 23.6769 0.761528C26.1692 0.761528 28.5231 1.73076 30.3231 3.53076C32.1231 5.33076 33.0923 7.68461 33.0923 10.1769C33.0923 12.6692 32.1231 15.0231 30.3231 16.8231C28.5231 18.6231 26.1692 19.5923 23.6769 19.5923C21.1846 19.5923 18.8308 18.6231 17.0308 16.8231ZM42.8539 29.3538C41.8846 30.3231 40.2923 30.3231 39.3231 29.3538L32.5385 22.5692C32.5385 22.5 32.5385 22.5 32.5385 22.4308C32.5385 22.3615 32.5385 22.3615 32.6077 22.2923L33.5769 21.3231L30.4615 18.2077C30.6692 18 30.9462 17.7923 31.1539 17.5846C31.3615 17.3769 31.5692 17.1692 31.7769 16.8923L34.8923 20.0077L35.8615 19.0385C35.9308 18.9692 36 18.9692 36.1385 19.0385L42.9231 25.8231C43.4077 26.3077 43.6154 26.9308 43.6154 27.5538C43.5462 28.2461 43.2692 28.8692 42.8539 29.3538Z" fill="#634CC2"/>
<path d="M40.1696 27.4386L40.9039 28.1729L41.6382 27.4386L40.9039 26.7043L40.1696 27.4386Z" fill="#634CC2"/>
<path d="M38.4532 25.6528L39.1877 26.3869L39.9217 25.6524L39.1872 24.9183L38.4532 25.6528Z" fill="#634CC2"/>
<path d="M28.8 5.12308C27.4154 3.73847 25.6154 2.97693 23.6769 2.97693C21.7385 2.97693 19.9385 3.73847 18.6231 5.05385C17.2385 6.43847 16.4769 8.23847 16.4769 10.1077C16.4769 12.0462 17.2385 13.8462 18.5539 15.2308C19.9385 16.6154 21.7385 17.3769 23.6769 17.3769C25.6154 17.3769 27.4154 16.6154 28.7308 15.3C30.1154 13.9154 30.8769 12.1154 30.8769 10.2462C30.9462 8.3077 30.1846 6.5077 28.8 5.12308ZM28.0385 14.6077C26.8615 15.7846 25.3385 16.4077 23.6769 16.4077C22.0154 16.4077 20.4923 15.7846 19.3154 14.6077C18.1385 13.4308 17.5154 11.9077 17.5154 10.2462C17.5154 8.58462 18.2077 7.06154 19.3154 5.88462C20.4923 4.7077 22.0154 4.08462 23.6769 4.08462C25.3385 4.08462 26.8615 4.7077 28.0385 5.88462C29.2154 7.06154 29.8385 8.58462 29.8385 10.2462C29.8385 11.9077 29.2154 13.4308 28.0385 14.6077Z" fill="#634CC2"/>
<path d="M19.7308 32.1231L21.9462 31.7077V28.1077L19.7308 27.6923C19.5231 26.8615 19.2462 26.1 18.7615 25.4077L20.0769 23.5385L17.5846 20.9769L15.7154 22.2231C15.0231 21.8077 14.1923 21.4615 13.4308 21.2538L13.0154 19.0385H9.41539L9.00001 21.3231C8.16924 21.5308 7.4077 21.8769 6.71539 22.2923L4.84616 20.9769L2.35385 23.5385L3.60001 25.4077C3.18462 26.1 2.83847 26.8615 2.63077 27.6923L0.41539 28.1077V31.7077L2.63077 32.1231C2.83847 32.9538 3.18462 33.7154 3.60001 34.4077L2.28462 36.2769L4.77693 38.7692L6.64616 37.5231C7.33847 37.9385 8.10001 38.2846 8.93077 38.4923L9.34616 40.7077H12.9462L13.3615 38.4923C14.1923 38.2846 14.9539 38.0077 15.6462 37.5231L17.5154 38.8384L20.0769 36.3461L18.8308 34.4769C19.1769 33.7154 19.5231 32.9538 19.7308 32.1231ZM17.3769 37.4538L15.6462 36.2769L15.3692 36.4846C14.5385 36.9692 13.7077 37.3846 12.8077 37.5231L12.4615 37.5923L12.0462 39.6H10.1769L9.83078 37.5923L9.48462 37.5231C8.58462 37.3154 7.68462 36.9692 6.92308 36.4154L6.64616 36.2077L4.91539 37.3846L3.60001 36.0692L4.77693 34.3385L4.56924 34.0615C4.08462 33.3 3.73847 32.4 3.53078 31.5L3.46154 31.1538L1.45385 30.7385V28.8692L3.46154 28.5923L3.53078 28.2461C3.73847 27.2769 4.15385 26.4461 4.63847 25.6154L4.84616 25.3385L3.66924 23.6077L4.98462 22.2923L6.71539 23.5385L6.99231 23.3308C7.75385 22.8461 8.65385 22.5 9.55385 22.2923L9.90001 22.2231L10.3154 20.2154H12.1846L12.5308 22.2231L12.8769 22.2923C13.7769 22.5 14.6769 22.8461 15.4385 23.4L15.7154 23.6077L17.4462 22.4308L18.7615 23.7461L17.5846 25.4769L17.7923 25.7538C18.2769 26.5846 18.6923 27.4154 18.8308 28.3154L18.9 28.6615L20.9077 29.0769V30.9461L18.9 31.2923L18.8308 31.6385C18.6231 32.5385 18.2769 33.4385 17.7231 34.2L17.5154 34.4769L18.6923 36.2077L17.3769 37.4538Z" fill="#634CC2"/>
<path d="M11.1462 25.1308C8.51539 25.1308 6.36923 27.2769 6.36923 29.8385C6.36923 32.4692 8.51539 34.6154 11.0769 34.6154C13.7077 34.6154 15.8538 32.4692 15.8538 29.9077C15.8538 28.6615 15.3692 27.4154 14.4692 26.5154C13.6385 25.6846 12.4615 25.1308 11.1462 25.1308ZM11.1462 33.6461V34.2V33.6461C9.06923 33.6461 7.40769 31.9846 7.40769 29.9077C7.40769 27.8308 9.06923 26.1692 11.1462 26.1692C12.1154 26.1692 13.0846 26.5846 13.7769 27.2769C14.4692 27.9692 14.8846 28.9385 14.8846 29.9077C14.8846 31.9846 13.2231 33.6461 11.1462 33.6461Z" fill="#634CC2"/>
<path d="M35.7923 36.2077L34.8923 33.5769L33.3 33.7846C33.0231 33.3692 32.6077 32.9538 32.2615 32.5384L32.6769 30.9461L30.1846 29.7692L29.2154 31.0846C28.6616 31.0154 28.1769 30.9461 27.6231 30.9461L26.8615 29.5615L24.1616 30.4615L24.3692 32.0538C23.8846 32.3308 23.5385 32.7461 23.1231 33.0923L21.5308 32.6769L20.2846 35.1692L21.6 36.1384C21.4616 36.6923 21.4616 37.2461 21.4616 37.7308L20.0769 38.4923L20.9769 41.1231L22.5692 40.9154C22.8462 41.4 23.2615 41.7461 23.6077 42.1615L23.1923 43.7538L25.6846 45L26.6539 43.6846C27.2077 43.7538 27.6923 43.8231 28.2462 43.8231L29.0077 45.2077L31.6385 44.3077L31.4308 42.7154C31.8462 42.4384 32.2616 42.0231 32.6769 41.6769L34.2692 42.0923L35.5154 39.6L34.2 38.6308C34.2692 38.0769 34.3385 37.5923 34.3385 37.0384L35.7923 36.2077ZM33.3 36.7615C33.3692 37.3846 33.3 38.0769 33.1616 38.7L33.0923 39.0461L34.2692 39.8769L33.7846 40.8461L32.4 40.4308L32.1923 40.7077C31.7769 41.1923 31.2923 41.6769 30.7385 41.9538L30.4616 42.2308L30.6692 43.6846L29.6308 44.0308L28.9385 42.7846L28.5923 42.8538C27.9692 42.9231 27.2769 42.8538 26.6539 42.7154L26.3077 42.5077L25.4769 43.6846L24.5077 43.2L24.9231 41.8154L24.6462 41.6077C24.1615 41.1923 23.6769 40.7077 23.4 40.1538L23.1923 39.8769L21.7385 40.0846L21.3923 39.0461L22.6385 38.3538L22.5692 38.0077C22.5 37.3846 22.5692 36.6923 22.7077 36.0692L22.7769 35.7231L21.6 34.8231L22.1539 33.9231L23.5385 34.3384L23.7462 34.0615C24.1615 33.5769 24.6462 33.0923 25.2 32.8154L25.4769 32.6077L25.2692 31.1538L26.3077 30.8077L27 32.0538L27.3462 31.9846C27.9692 31.9154 28.6615 31.9846 29.2846 32.1231L29.6308 32.1923L30.4616 31.0154L31.4308 31.5L31.0154 32.8846L31.2923 33.0923C31.7769 33.5077 32.2616 33.9923 32.5385 34.5461L32.7462 34.8231L34.2 34.6154L34.5462 35.6538L33.3 36.3461V36.7615Z" fill="#634CC2"/>
<path d="M27.9692 33.9231C27.5538 33.9231 27.2077 33.9923 26.8615 34.1308C25.0615 34.7538 24.0231 36.7615 24.6462 38.5615C25.1308 40.0154 26.4462 40.9154 27.9692 40.9154C28.3846 40.9154 28.7308 40.8461 29.0769 40.7077C29.9769 40.4308 30.6692 39.8077 31.0846 38.9077C31.5 38.0769 31.5692 37.1077 31.2923 36.2077C30.8077 34.8231 29.4923 33.9231 27.9692 33.9231ZM30.1846 38.4923C29.9077 39.1154 29.4231 39.5308 28.8 39.7385C28.5231 39.8077 28.2462 39.8769 28.0385 39.8769C27 39.8769 26.0308 39.1846 25.6846 38.2154C25.2692 36.9 25.9615 35.5154 27.2077 35.1C27.4846 35.0308 27.7615 34.9615 27.9692 34.9615C29.0077 34.9615 29.9769 35.6538 30.3231 36.6231C30.5308 37.2461 30.4615 37.8692 30.1846 38.4923Z" fill="#634CC2"/>
</g>
<defs>
<clipPath id="clip0">
<rect width="45" height="56.25" fill="white"/>
</clipPath>
</defs>
</svg>
