<svg width="38" height="48" viewBox="0 0 38 48" fill="none" xmlns="http://www.w3.org/2000/svg">
<path d="M8.98935 4.56001C8.93769 4.57076 8.88884 4.59215 8.84591 4.62282C8.80298 4.65349 8.7669 4.69276 8.73997 4.73813L2.71935 14.2975C2.68095 14.3579 2.66037 14.4278 2.65997 14.4994C2.65997 16.308 3.92333 17.86 5.72372 17.86C5.9906 17.86 6.23275 17.8298 6.45997 17.765V29.26C6.45998 29.3608 6.50002 29.4574 6.57128 29.5287C6.64255 29.6 6.73919 29.64 6.83997 29.64H22.3725C23.4926 31.8919 25.8158 33.44 28.5 33.44C32.2798 33.44 35.34 30.3678 35.34 26.5881C35.34 22.8084 32.2793 19.76 28.5 19.76C28.2429 19.76 27.9896 19.78 27.74 19.8075V17.765C27.9672 17.8298 28.2093 17.86 28.4762 17.86C30.2766 17.86 31.54 16.308 31.54 14.4994C31.5396 14.4278 31.519 14.3579 31.4806 14.2975L25.46 4.73813C25.4259 4.6838 25.3786 4.63898 25.3226 4.60783C25.2665 4.57669 25.2035 4.56023 25.1393 4.56001H9.0606C9.0369 4.55778 9.01305 4.55778 8.98935 4.56001ZM9.28622 5.32001H10.5093L7.23185 16.4944C6.82892 16.9359 6.42979 17.1 5.72372 17.1C4.37895 17.1 3.47279 16.0165 3.43185 14.5944L9.28622 5.32001ZM11.305 5.32001H13.4187L12.0056 16.3756C11.5581 16.8521 10.8279 17.1 10.07 17.1C9.28319 17.1 8.52832 16.829 8.08685 16.3163L11.305 5.32001ZM14.1906 5.32001H16.72V16.3519C16.2748 16.8442 15.5313 17.1 14.7606 17.1C13.9738 17.1 13.2189 16.829 12.7775 16.3163L14.1906 5.32001ZM17.48 5.32001H20.0093L21.4225 16.3163C20.981 16.829 20.2261 17.1 19.4393 17.1C18.6687 17.1 17.9251 16.8442 17.48 16.3519V5.32001ZM20.7812 5.32001H22.895L26.1131 16.3163C25.6716 16.829 24.9168 17.1 24.13 17.1C23.3721 17.1 22.6419 16.8521 22.1943 16.3756L20.7812 5.32001ZM23.6906 5.32001H24.9137L30.7681 14.5944C30.7272 16.0165 29.821 17.1 28.4762 17.1C27.7702 17.1 27.371 16.9359 26.9681 16.4944V16.4825C26.9642 16.4782 26.9601 16.475 26.9562 16.4706L23.6906 5.32001ZM7.70685 16.9931C8.33318 17.5827 9.20723 17.86 10.07 17.86C10.9242 17.86 11.7841 17.5823 12.4093 17.005C13.0347 17.5842 13.905 17.86 14.7606 17.86C15.6162 17.86 16.4746 17.5842 17.1 17.005C17.7254 17.5842 18.5838 17.86 19.4393 17.86C20.2949 17.86 21.1652 17.5842 21.7906 17.005C22.4158 17.5823 23.2757 17.86 24.13 17.86C24.9927 17.86 25.8668 17.5827 26.4931 16.9931C26.6459 17.1451 26.8088 17.2795 26.98 17.3969V19.9381C23.935 20.6279 21.66 23.3328 21.66 26.5881C21.66 27.391 21.8099 28.1636 22.0637 28.88H17.48V21.66C17.48 21.5592 17.4399 21.4626 17.3687 21.3913C17.2974 21.3201 17.2008 21.28 17.1 21.28H10.26C10.2363 21.2778 10.2124 21.2778 10.1887 21.28C10.1007 21.2968 10.0215 21.3441 9.965 21.4137C9.90851 21.4832 9.87839 21.5704 9.87997 21.66V28.88H7.21997V17.3969C7.39116 17.2795 7.55402 17.1451 7.70685 16.9931ZM28.5 20.52C31.8709 20.52 34.58 23.2178 34.58 26.5881C34.58 29.9585 31.8704 32.68 28.5 32.68C25.1298 32.68 22.42 29.959 22.42 26.5881C22.42 23.2173 25.1293 20.52 28.5 20.52ZM10.64 22.04H16.72V28.88H10.64V22.04ZM26.6 24.32C26.1802 24.32 25.84 24.6603 25.84 25.08C25.84 25.4997 26.1802 25.84 26.6 25.84C27.0197 25.84 27.36 25.4997 27.36 25.08C27.36 24.6603 27.0197 24.32 26.6 24.32ZM30.4 24.32C29.9802 24.32 29.64 24.6603 29.64 25.08C29.64 25.4997 29.9802 25.84 30.4 25.84C30.8197 25.84 31.16 25.4997 31.16 25.08C31.16 24.6603 30.8197 24.32 30.4 24.32ZM25.8043 28.4881C25.7309 28.4931 25.6605 28.5194 25.6017 28.5636C25.5429 28.6079 25.4982 28.6682 25.4731 28.7374C25.4479 28.8066 25.4434 28.8816 25.46 28.9532C25.4767 29.0249 25.5138 29.0903 25.5668 29.1413C26.316 29.9011 27.3324 30.4 28.5 30.4C29.6676 30.4 30.6839 29.9011 31.4331 29.1413C31.5033 29.0687 31.5419 28.9713 31.5405 28.8704C31.539 28.7694 31.4978 28.6731 31.4256 28.6025C31.3534 28.532 31.2563 28.4928 31.1553 28.4936C31.0544 28.4944 30.9579 28.5351 30.8868 28.6069C30.2602 29.2425 29.4566 29.64 28.5 29.64C27.5434 29.64 26.7398 29.2425 26.1131 28.6069C26.0739 28.5651 26.0258 28.5327 25.9723 28.5122C25.9189 28.4916 25.8614 28.4834 25.8043 28.4881Z" fill="#634CC2"/>
</svg>
