<svg width="34" height="30" viewBox="0 0 34 30" fill="none" xmlns="http://www.w3.org/2000/svg">
<path d="M6.98935 0.560008C6.93769 0.570761 6.88884 0.592152 6.84591 0.622819C6.80298 0.653487 6.7669 0.692758 6.73997 0.738133L0.719348 10.2975C0.68095 10.3579 0.660369 10.4278 0.659973 10.4994C0.659973 12.308 1.92333 13.86 3.72372 13.86C3.9906 13.86 4.23275 13.8298 4.45997 13.765V25.26C4.45998 25.3608 4.50002 25.4574 4.57128 25.5287C4.64255 25.6 4.73919 25.64 4.83997 25.64H20.3725C21.4926 27.8919 23.8158 29.44 26.5 29.44C30.2798 29.44 33.34 26.3678 33.34 22.5881C33.34 18.8084 30.2793 15.76 26.5 15.76C26.2429 15.76 25.9896 15.78 25.74 15.8075V13.765C25.9672 13.8298 26.2093 13.86 26.4762 13.86C28.2766 13.86 29.54 12.308 29.54 10.4994C29.5396 10.4278 29.519 10.3579 29.4806 10.2975L23.46 0.738133C23.4259 0.683801 23.3786 0.638975 23.3226 0.60783C23.2665 0.576685 23.2035 0.560234 23.1393 0.560008H7.0606C7.0369 0.557777 7.01305 0.557777 6.98935 0.560008ZM7.28622 1.32001H8.50935L5.23185 12.4944C4.82892 12.9359 4.42979 13.1 3.72372 13.1C2.37895 13.1 1.47279 12.0165 1.43185 10.5944L7.28622 1.32001ZM9.30497 1.32001H11.4187L10.0056 12.3756C9.55806 12.8521 8.82785 13.1 8.06997 13.1C7.28319 13.1 6.52832 12.829 6.08685 12.3163L9.30497 1.32001ZM12.1906 1.32001H14.72V12.3519C14.2748 12.8442 13.5313 13.1 12.7606 13.1C11.9738 13.1 11.2189 12.829 10.7775 12.3163L12.1906 1.32001ZM15.48 1.32001H18.0093L19.4225 12.3163C18.981 12.829 18.2261 13.1 17.4393 13.1C16.6687 13.1 15.9251 12.8442 15.48 12.3519V1.32001ZM18.7812 1.32001H20.895L24.1131 12.3163C23.6716 12.829 22.9168 13.1 22.13 13.1C21.3721 13.1 20.6419 12.8521 20.1943 12.3756L18.7812 1.32001ZM21.6906 1.32001H22.9137L28.7681 10.5944C28.7272 12.0165 27.821 13.1 26.4762 13.1C25.7702 13.1 25.371 12.9359 24.9681 12.4944V12.4825C24.9642 12.4782 24.9601 12.475 24.9562 12.4706L21.6906 1.32001ZM5.70685 12.9931C6.33318 13.5827 7.20723 13.86 8.06997 13.86C8.92423 13.86 9.78412 13.5823 10.4093 13.005C11.0347 13.5842 11.905 13.86 12.7606 13.86C13.6162 13.86 14.4746 13.5842 15.1 13.005C15.7254 13.5842 16.5838 13.86 17.4393 13.86C18.2949 13.86 19.1652 13.5842 19.7906 13.005C20.4158 13.5823 21.2757 13.86 22.13 13.86C22.9927 13.86 23.8668 13.5827 24.4931 12.9931C24.6459 13.1451 24.8088 13.2795 24.98 13.3969V15.9381C21.935 16.6279 19.66 19.3328 19.66 22.5881C19.66 23.391 19.8099 24.1636 20.0637 24.88H15.48V17.66C15.48 17.5592 15.4399 17.4626 15.3687 17.3913C15.2974 17.3201 15.2008 17.28 15.1 17.28H8.25997C8.23628 17.2778 8.21242 17.2778 8.18872 17.28C8.10073 17.2968 8.02149 17.3441 7.965 17.4137C7.90851 17.4832 7.87839 17.5704 7.87997 17.66V24.88H5.21997V13.3969C5.39116 13.2795 5.55402 13.1451 5.70685 12.9931ZM26.5 16.52C29.8709 16.52 32.58 19.2178 32.58 22.5881C32.58 25.9585 29.8704 28.68 26.5 28.68C23.1298 28.68 20.42 25.959 20.42 22.5881C20.42 19.2173 23.1293 16.52 26.5 16.52ZM8.63997 18.04H14.72V24.88H8.63997V18.04ZM24.6 20.32C24.1802 20.32 23.84 20.6603 23.84 21.08C23.84 21.4997 24.1802 21.84 24.6 21.84C25.0197 21.84 25.36 21.4997 25.36 21.08C25.36 20.6603 25.0197 20.32 24.6 20.32ZM28.4 20.32C27.9802 20.32 27.64 20.6603 27.64 21.08C27.64 21.4997 27.9802 21.84 28.4 21.84C28.8197 21.84 29.16 21.4997 29.16 21.08C29.16 20.6603 28.8197 20.32 28.4 20.32ZM23.8043 24.4881C23.7309 24.4931 23.6605 24.5194 23.6017 24.5636C23.5429 24.6079 23.4982 24.6682 23.4731 24.7374C23.4479 24.8066 23.4434 24.8816 23.46 24.9532C23.4767 25.0249 23.5138 25.0903 23.5668 25.1413C24.316 25.9011 25.3324 26.4 26.5 26.4C27.6676 26.4 28.6839 25.9011 29.4331 25.1413C29.5033 25.0687 29.5419 24.9713 29.5405 24.8704C29.539 24.7694 29.4978 24.6731 29.4256 24.6025C29.3534 24.532 29.2563 24.4928 29.1553 24.4936C29.0544 24.4944 28.9579 24.5351 28.8868 24.6069C28.2602 25.2425 27.4566 25.64 26.5 25.64C25.5434 25.64 24.7398 25.2425 24.1131 24.6069C24.0739 24.5651 24.0258 24.5327 23.9723 24.5122C23.9189 24.4916 23.8614 24.4834 23.8043 24.4881Z" fill="#634CC2"/>
</svg>
