<svg width="45" height="57" viewBox="0 0 45 57" fill="none" xmlns="http://www.w3.org/2000/svg">
<path d="M32.0625 34.92L33.786 33.1965C33.8491 33.1341 33.8992 33.0598 33.9335 32.9779C33.9677 32.8961 33.9853 32.8082 33.9853 32.7195C33.9853 32.6307 33.9677 32.5429 33.9335 32.461C33.8992 32.3791 33.8491 32.3048 33.786 32.2425C33.6589 32.1172 33.4875 32.0469 33.309 32.0469C33.1305 32.0469 32.9591 32.1172 32.832 32.2425L31.1085 33.966L29.385 32.2425C29.2579 32.1172 29.0865 32.0469 28.908 32.0469C28.7295 32.0469 28.5581 32.1172 28.431 32.2425C28.3679 32.3048 28.3177 32.3791 28.2835 32.461C28.2493 32.5429 28.2317 32.6307 28.2317 32.7195C28.2317 32.8082 28.2493 32.8961 28.2835 32.9779C28.3177 33.0598 28.3679 33.1341 28.431 33.1965L30.15 34.92L28.4265 36.648C28.3634 36.7103 28.3132 36.7846 28.279 36.8665C28.2448 36.9484 28.2272 37.0362 28.2272 37.125C28.2272 37.2137 28.2448 37.3016 28.279 37.3834C28.3132 37.4653 28.3634 37.5396 28.4265 37.602C28.5531 37.7284 28.7246 37.7994 28.9035 37.7994C29.0824 37.7994 29.2539 37.7284 29.3805 37.602L31.104 35.8785L32.85 37.602C32.9766 37.7284 33.1481 37.7994 33.327 37.7994C33.5059 37.7994 33.6774 37.7284 33.804 37.602C33.8671 37.5396 33.9172 37.4653 33.9515 37.3834C33.9857 37.3016 34.0033 37.2137 34.0033 37.125C34.0033 37.0362 33.9857 36.9484 33.9515 36.8665C33.9172 36.7846 33.8671 36.7103 33.804 36.648L32.0625 34.92Z" fill="#634CC2"/>
<path d="M33.147 27.45V4.88699C33.1458 4.24885 32.8918 3.63718 32.4405 3.18595C31.9893 2.73471 31.3776 2.48068 30.7395 2.47949H8.8605C8.22236 2.48068 7.61069 2.73471 7.15945 3.18595C6.70822 3.63718 6.45419 4.24885 6.453 4.88699V36.9225C6.45419 37.5606 6.70822 38.1723 7.15945 38.6235C7.61069 39.0748 8.22236 39.3288 8.8605 39.33H24.705C25.4106 40.3657 26.3562 41.2155 27.4612 41.8067C28.5661 42.398 29.7977 42.7133 31.0509 42.7257C32.3041 42.7381 33.5416 42.4473 34.6581 41.878C35.7746 41.3087 36.7368 40.4778 37.4627 39.4562C38.1887 38.4347 38.6568 37.2527 38.8271 36.0111C38.9975 34.7695 38.8651 33.5051 38.4412 32.3258C38.0172 31.1464 37.3144 30.0871 36.3925 29.2381C35.4707 28.3891 34.3572 27.7756 33.147 27.45ZM8.847 37.9755C8.56534 37.9755 8.29522 37.8636 8.09605 37.6644C7.89689 37.4653 7.785 37.1951 7.785 36.9135V4.88699C7.785 4.60492 7.89674 4.33433 8.09578 4.13445C8.29481 3.93457 8.56493 3.82168 8.847 3.82049H30.7395C31.0216 3.82168 31.2917 3.93457 31.4907 4.13445C31.6898 4.33433 31.8015 4.60492 31.8015 4.88699V27.2205C31.572 27.198 31.3515 27.189 31.1085 27.189C29.0485 27.1818 27.0698 27.9923 25.6069 29.4426C24.1439 30.893 23.3162 32.8645 23.3055 34.9245C23.3049 35.9781 23.5241 37.0203 23.949 37.9845L8.847 37.9755ZM31.1085 41.31C30.2367 41.3114 29.3737 41.1367 28.571 40.7965C27.7684 40.4562 27.0427 39.9575 26.4375 39.33C25.2899 38.1499 24.6446 36.5706 24.6375 34.9245C24.6482 33.2214 25.3341 31.592 26.5448 30.3941C27.7554 29.1961 29.3918 28.5273 31.095 28.5345C31.329 28.5345 31.545 28.5345 31.788 28.5705C32.2474 28.6182 32.7001 28.7163 33.138 28.863C34.5918 29.33 35.8297 30.3031 36.6268 31.6055C37.4238 32.9079 37.7271 34.4531 37.4813 35.9601C37.2356 37.4672 36.4572 38.836 35.2878 39.8177C34.1183 40.7995 32.6353 41.329 31.1085 41.31Z" fill="#634CC2"/>
<path d="M27.7155 13.5H18.954C18.775 13.5 18.6033 13.4289 18.4767 13.3023C18.3501 13.1757 18.279 13.004 18.279 12.825C18.279 12.646 18.3501 12.4743 18.4767 12.3477C18.6033 12.2211 18.775 12.15 18.954 12.15H27.7155C27.8945 12.15 28.0662 12.2211 28.1928 12.3477C28.3194 12.4743 28.3905 12.646 28.3905 12.825C28.3905 13.004 28.3194 13.1757 28.1928 13.3023C28.0662 13.4289 27.8945 13.5 27.7155 13.5Z" fill="#634CC2"/>
<path d="M27.7335 19.35H11.8665C11.6875 19.35 11.5158 19.2789 11.3892 19.1523C11.2626 19.0257 11.1915 18.854 11.1915 18.675C11.1915 18.496 11.2626 18.3243 11.3892 18.1977C11.5158 18.0711 11.6875 18 11.8665 18H27.7335C27.9125 18 28.0842 18.0711 28.2108 18.1977C28.3374 18.3243 28.4085 18.496 28.4085 18.675C28.4085 18.854 28.3374 19.0257 28.2108 19.1523C28.0842 19.2789 27.9125 19.35 27.7335 19.35Z" fill="#634CC2"/>
<path d="M27.7335 25.65H11.8665C11.6875 25.65 11.5158 25.5789 11.3892 25.4523C11.2626 25.3257 11.1915 25.154 11.1915 24.975C11.1915 24.796 11.2626 24.6243 11.3892 24.4977C11.5158 24.3711 11.6875 24.3 11.8665 24.3H27.7335C27.9125 24.3 28.0842 24.3711 28.2108 24.4977C28.3374 24.6243 28.4085 24.796 28.4085 24.975C28.4085 25.154 28.3374 25.3257 28.2108 25.4523C28.0842 25.5789 27.9125 25.65 27.7335 25.65Z" fill="#634CC2"/>
<path d="M12.9555 15.1245C12.8487 15.1257 12.7432 15.1015 12.6477 15.0537C12.5523 15.006 12.4695 14.9361 12.4065 14.85L11.3625 13.3695C11.3101 13.2975 11.2726 13.2158 11.2522 13.1291C11.2318 13.0424 11.2288 12.9526 11.2434 12.8648C11.2581 12.7769 11.2901 12.6929 11.3376 12.6176C11.3851 12.5423 11.4471 12.4772 11.52 12.4261C11.5929 12.375 11.6753 12.3389 11.7623 12.32C11.8493 12.3011 11.9392 12.2996 12.0267 12.3158C12.1143 12.332 12.1977 12.3655 12.2722 12.4143C12.3467 12.4631 12.4107 12.5262 12.4605 12.6L12.9375 13.2795L14.7915 10.503C14.8906 10.355 15.0443 10.2524 15.219 10.2178C15.3937 10.1832 15.575 10.2194 15.723 10.3185C15.871 10.4175 15.9736 10.5713 16.0082 10.746C16.0428 10.9207 16.0066 11.102 15.9075 11.25L13.5 14.85C13.4394 14.9403 13.3578 15.0145 13.2622 15.0663C13.1665 15.118 13.0597 15.1457 12.951 15.147L12.9555 15.1245Z" fill="#634CC2"/>
</svg>
