<svg width="33" height="41" viewBox="0 0 33 41" fill="none" xmlns="http://www.w3.org/2000/svg">
<path d="M26.0625 32.92L27.786 31.1965C27.8491 31.1341 27.8992 31.0598 27.9335 30.9779C27.9677 30.8961 27.9853 30.8082 27.9853 30.7195C27.9853 30.6307 27.9677 30.5429 27.9335 30.461C27.8992 30.3791 27.8491 30.3048 27.786 30.2425C27.6589 30.1172 27.4875 30.0469 27.309 30.0469C27.1305 30.0469 26.9591 30.1172 26.832 30.2425L25.1085 31.966L23.385 30.2425C23.2579 30.1172 23.0865 30.0469 22.908 30.0469C22.7295 30.0469 22.5581 30.1172 22.431 30.2425C22.3679 30.3048 22.3177 30.3791 22.2835 30.461C22.2493 30.5429 22.2317 30.6307 22.2317 30.7195C22.2317 30.8082 22.2493 30.8961 22.2835 30.9779C22.3177 31.0598 22.3679 31.1341 22.431 31.1965L24.15 32.92L22.4265 34.648C22.3634 34.7103 22.3132 34.7846 22.279 34.8665C22.2448 34.9484 22.2272 35.0362 22.2272 35.125C22.2272 35.2137 22.2448 35.3016 22.279 35.3834C22.3132 35.4653 22.3634 35.5396 22.4265 35.602C22.5531 35.7284 22.7246 35.7994 22.9035 35.7994C23.0824 35.7994 23.2539 35.7284 23.3805 35.602L25.104 33.8785L26.85 35.602C26.9766 35.7284 27.1481 35.7994 27.327 35.7994C27.5059 35.7994 27.6774 35.7284 27.804 35.602C27.8671 35.5396 27.9172 35.4653 27.9515 35.3834C27.9857 35.3016 28.0033 35.2137 28.0033 35.125C28.0033 35.0362 27.9857 34.9484 27.9515 34.8665C27.9172 34.7846 27.8671 34.7103 27.804 34.648L26.0625 32.92Z" fill="#634CC2"/>
<path d="M27.147 25.45V2.88699C27.1458 2.24885 26.8918 1.63718 26.4405 1.18595C25.9893 0.73471 25.3776 0.480682 24.7395 0.479492H2.8605C2.22236 0.480682 1.61069 0.73471 1.15945 1.18595C0.708217 1.63718 0.454189 2.24885 0.452999 2.88699V34.9225C0.454189 35.5606 0.708217 36.1723 1.15945 36.6235C1.61069 37.0748 2.22236 37.3288 2.8605 37.33H18.705C19.4106 38.3657 20.3562 39.2155 21.4612 39.8067C22.5661 40.398 23.7977 40.7133 25.0509 40.7257C26.3041 40.7381 27.5416 40.4473 28.6581 39.878C29.7746 39.3087 30.7368 38.4778 31.4627 37.4562C32.1887 36.4347 32.6568 35.2527 32.8271 34.0111C32.9975 32.7695 32.8651 31.5051 32.4412 30.3258C32.0172 29.1464 31.3144 28.0871 30.3925 27.2381C29.4707 26.3891 28.3572 25.7756 27.147 25.45ZM2.847 35.9755C2.56534 35.9755 2.29522 35.8636 2.09605 35.6644C1.89689 35.4653 1.785 35.1951 1.785 34.9135V2.88699C1.785 2.60492 1.89674 2.33433 2.09578 2.13445C2.29481 1.93457 2.56493 1.82168 2.847 1.82049H24.7395C25.0216 1.82168 25.2917 1.93457 25.4907 2.13445C25.6898 2.33433 25.8015 2.60492 25.8015 2.88699V25.2205C25.572 25.198 25.3515 25.189 25.1085 25.189C23.0485 25.1818 21.0698 25.9923 19.6069 27.4426C18.1439 28.893 17.3162 30.8645 17.3055 32.9245C17.3049 33.9781 17.5241 35.0203 17.949 35.9845L2.847 35.9755ZM25.1085 39.31C24.2367 39.3114 23.3737 39.1367 22.571 38.7965C21.7684 38.4562 21.0427 37.9575 20.4375 37.33C19.2899 36.1499 18.6446 34.5706 18.6375 32.9245C18.6482 31.2214 19.3341 29.592 20.5448 28.3941C21.7554 27.1961 23.3918 26.5273 25.095 26.5345C25.329 26.5345 25.545 26.5345 25.788 26.5705C26.2474 26.6182 26.7001 26.7163 27.138 26.863C28.5918 27.33 29.8297 28.3031 30.6268 29.6055C31.4238 30.9079 31.7271 32.4531 31.4813 33.9601C31.2356 35.4672 30.4572 36.836 29.2878 37.8177C28.1183 38.7995 26.6353 39.329 25.1085 39.31Z" fill="#634CC2"/>
<path d="M21.7155 11.5H12.954C12.775 11.5 12.6033 11.4289 12.4767 11.3023C12.3501 11.1757 12.279 11.004 12.279 10.825C12.279 10.646 12.3501 10.4743 12.4767 10.3477C12.6033 10.2211 12.775 10.15 12.954 10.15H21.7155C21.8945 10.15 22.0662 10.2211 22.1928 10.3477C22.3194 10.4743 22.3905 10.646 22.3905 10.825C22.3905 11.004 22.3194 11.1757 22.1928 11.3023C22.0662 11.4289 21.8945 11.5 21.7155 11.5Z" fill="#634CC2"/>
<path d="M21.7335 17.35H5.8665C5.68748 17.35 5.51579 17.2789 5.3892 17.1523C5.26261 17.0257 5.1915 16.854 5.1915 16.675C5.1915 16.496 5.26261 16.3243 5.3892 16.1977C5.51579 16.0711 5.68748 16 5.8665 16H21.7335C21.9125 16 22.0842 16.0711 22.2108 16.1977C22.3374 16.3243 22.4085 16.496 22.4085 16.675C22.4085 16.854 22.3374 17.0257 22.2108 17.1523C22.0842 17.2789 21.9125 17.35 21.7335 17.35Z" fill="#634CC2"/>
<path d="M21.7335 23.65H5.8665C5.68748 23.65 5.51579 23.5789 5.3892 23.4523C5.26261 23.3257 5.1915 23.154 5.1915 22.975C5.1915 22.796 5.26261 22.6243 5.3892 22.4977C5.51579 22.3711 5.68748 22.3 5.8665 22.3H21.7335C21.9125 22.3 22.0842 22.3711 22.2108 22.4977C22.3374 22.6243 22.4085 22.796 22.4085 22.975C22.4085 23.154 22.3374 23.3257 22.2108 23.4523C22.0842 23.5789 21.9125 23.65 21.7335 23.65Z" fill="#634CC2"/>
<path d="M6.9555 13.1245C6.84875 13.1257 6.74324 13.1015 6.64775 13.0537C6.55226 13.006 6.46955 12.9361 6.4065 12.85L5.3625 11.3695C5.31014 11.2975 5.27264 11.2158 5.2522 11.1291C5.23176 11.0424 5.22878 10.9526 5.24344 10.8648C5.2581 10.7769 5.29011 10.6929 5.33759 10.6176C5.38507 10.5423 5.44707 10.4772 5.51998 10.4261C5.59289 10.375 5.67525 10.3389 5.76225 10.32C5.84925 10.3011 5.93915 10.2996 6.0267 10.3158C6.11426 10.332 6.19771 10.3655 6.27218 10.4143C6.34666 10.4631 6.41068 10.5262 6.4605 10.6L6.9375 11.2795L8.7915 8.50299C8.89056 8.35499 9.04435 8.25242 9.21904 8.21782C9.39373 8.18322 9.57501 8.21943 9.723 8.31849C9.87099 8.41754 9.97357 8.57133 10.0082 8.74602C10.0428 8.92071 10.0066 9.10199 9.9075 9.24998L7.5 12.85C7.43943 12.9403 7.35781 13.0145 7.26217 13.0663C7.16653 13.118 7.05973 13.1457 6.951 13.147L6.9555 13.1245Z" fill="#634CC2"/>
</svg>
