<svg width="45" height="57" viewBox="0 0 45 57" fill="none" xmlns="http://www.w3.org/2000/svg">
<path d="M37.2697 43.315H7.7303C7.59721 43.315 7.48923 43.207 7.48923 43.0739V9.72227C7.48923 9.58918 7.59721 9.4812 7.7303 9.4812H14.4304C14.5635 9.4812 14.6715 9.58918 14.6715 9.72227C14.6715 9.85536 14.5635 9.96334 14.4304 9.96334H7.97137V42.8329H37.0286V9.96334H30.5693C30.4362 9.96334 30.3282 9.85536 30.3282 9.72227C30.3282 9.58918 30.4362 9.4812 30.5693 9.4812H37.2697C37.4028 9.4812 37.5108 9.58918 37.5108 9.72227V43.0739C37.5108 43.207 37.4028 43.315 37.2697 43.315Z" fill="#634CC2"/>
<path d="M30.3053 11.3549H14.6975C14.5644 11.3549 14.4565 11.2469 14.4565 11.1138V6.90821C14.4565 6.77512 14.5644 6.66714 14.6975 6.66714H19.0553V4.53768C19.0553 3.01811 20.6656 1.685 22.5013 1.685C24.3184 1.685 25.9124 3.01811 25.9124 4.53768V6.66714H30.3053C30.4384 6.66714 30.5464 6.77512 30.5464 6.90821V11.1138C30.5464 11.2469 30.4384 11.3549 30.3053 11.3549ZM14.9386 10.8727H30.0643V7.14928H25.6713C25.5382 7.14928 25.4302 7.0413 25.4302 6.90821V4.53768C25.4302 3.27488 24.0616 2.16714 22.5013 2.16714C20.9224 2.16714 19.5375 3.27488 19.5375 4.53768V6.90821C19.5375 7.0413 19.4295 7.14928 19.2964 7.14928H14.9386V10.8727Z" fill="#634CC2"/>
<path d="M22.5013 6.82788C21.6465 6.82788 20.9513 6.13261 20.9513 5.27787C20.9513 4.42313 21.6465 3.72754 22.5013 3.72754C23.356 3.72754 24.0516 4.42313 24.0516 5.27787C24.0516 6.13261 23.356 6.82788 22.5013 6.82788ZM22.5013 4.20968C21.9124 4.20968 21.4334 4.689 21.4334 5.27787C21.4334 5.86674 21.9124 6.34574 22.5013 6.34574C23.0901 6.34574 23.5695 5.86674 23.5695 5.27787C23.5695 4.689 23.0901 4.20968 22.5013 4.20968Z" fill="#634CC2"/>
<path d="M29.2506 40.7436C26.2583 40.7436 23.824 38.3093 23.824 35.317C23.824 32.3246 26.2583 29.8904 29.2506 29.8904C32.243 29.8904 34.6772 32.3246 34.6772 35.317C34.6772 38.3093 32.243 40.7436 29.2506 40.7436ZM29.2506 30.3725C26.5241 30.3725 24.3061 32.5905 24.3061 35.317C24.3061 38.0435 26.5241 40.2614 29.2506 40.2614C31.9771 40.2614 34.1951 38.0435 34.1951 35.317C34.1951 32.5905 31.9771 30.3725 29.2506 30.3725Z" fill="#634CC2"/>
<path d="M27.8529 36.7759C27.7781 36.7759 27.705 36.7414 27.6579 36.6774L26.7332 35.4143C26.6547 35.3066 26.6779 35.1559 26.7853 35.0771C26.893 34.9984 27.0436 35.0222 27.1224 35.1292L27.9119 36.2078L31.4413 33.8972C31.5527 33.8247 31.7018 33.8558 31.7753 33.9669C31.8481 34.0783 31.817 34.2277 31.7056 34.3009L27.9847 36.7367C27.9439 36.7631 27.8981 36.7759 27.8529 36.7759Z" fill="#634CC2"/>
<path d="M33.2286 16.4431H11.7732C11.6401 16.4431 11.5321 16.3351 11.5321 16.202C11.5321 16.0689 11.6401 15.9609 11.7732 15.9609H33.2286C33.3617 15.9609 33.4696 16.0689 33.4696 16.202C33.4696 16.3351 33.3617 16.4431 33.2286 16.4431Z" fill="#634CC2"/>
<path d="M33.2277 21.4192H11.7723C11.6392 21.4192 11.5312 21.3113 11.5312 21.1782C11.5312 21.0451 11.6392 20.9371 11.7723 20.9371H33.2277C33.3608 20.9371 33.4687 21.0451 33.4687 21.1782C33.4687 21.3113 33.3608 21.4192 33.2277 21.4192Z" fill="#634CC2"/>
<path d="M33.2277 26.3954H11.7723C11.6392 26.3954 11.5312 26.2875 11.5312 26.1544C11.5312 26.0213 11.6392 25.9133 11.7723 25.9133H33.2277C33.3608 25.9133 33.4687 26.0213 33.4687 26.1544C33.4687 26.2875 33.3608 26.3954 33.2277 26.3954Z" fill="#634CC2"/>
<path d="M26.1964 31.3707H11.7708C11.6377 31.3707 11.5297 31.2627 11.5297 31.1296C11.5297 30.9965 11.6377 30.8885 11.7708 30.8885H26.1964C26.3295 30.8885 26.4375 30.9965 26.4375 31.1296C26.4375 31.2627 26.3295 31.3707 26.1964 31.3707Z" fill="#634CC2"/>
<path d="M24.223 36.835H11.7708C11.6377 36.835 11.5297 36.727 11.5297 36.5939C11.5297 36.4608 11.6377 36.3528 11.7708 36.3528H24.223C24.3561 36.3528 24.4641 36.4608 24.4641 36.5939C24.4641 36.727 24.3561 36.835 24.223 36.835Z" fill="#634CC2"/>
</svg>
