<svg width="31" height="43" viewBox="0 0 31 43" fill="none" xmlns="http://www.w3.org/2000/svg">
<path d="M30.2697 42.315H0.730299C0.597207 42.315 0.489227 42.207 0.489227 42.0739V8.72227C0.489227 8.58918 0.597207 8.4812 0.730299 8.4812H7.43039C7.56348 8.4812 7.67146 8.58918 7.67146 8.72227C7.67146 8.85536 7.56348 8.96334 7.43039 8.96334H0.97137V41.8329H30.0286V8.96334H23.5693C23.4362 8.96334 23.3282 8.85536 23.3282 8.72227C23.3282 8.58918 23.4362 8.4812 23.5693 8.4812H30.2697C30.4028 8.4812 30.5108 8.58918 30.5108 8.72227V42.0739C30.5108 42.207 30.4028 42.315 30.2697 42.315Z" fill="#634CC2"/>
<path d="M23.3053 10.3549H7.69752C7.56443 10.3549 7.45645 10.2469 7.45645 10.1138V5.90821C7.45645 5.77512 7.56443 5.66714 7.69752 5.66714H12.0553V3.53768C12.0553 2.01811 13.6656 0.684998 15.5013 0.684998C17.3184 0.684998 18.9124 2.01811 18.9124 3.53768V5.66714H23.3053C23.4384 5.66714 23.5464 5.77512 23.5464 5.90821V10.1138C23.5464 10.2469 23.4384 10.3549 23.3053 10.3549ZM7.93859 9.87271H23.0643V6.14928H18.6713C18.5382 6.14928 18.4302 6.0413 18.4302 5.90821V3.53768C18.4302 2.27488 17.0616 1.16714 15.5013 1.16714C13.9224 1.16714 12.5375 2.27488 12.5375 3.53768V5.90821C12.5375 6.0413 12.4295 6.14928 12.2964 6.14928H7.93859V9.87271Z" fill="#634CC2"/>
<path d="M15.5013 5.82788C14.6465 5.82788 13.9513 5.13261 13.9513 4.27787C13.9513 3.42313 14.6465 2.72754 15.5013 2.72754C16.356 2.72754 17.0516 3.42313 17.0516 4.27787C17.0516 5.13261 16.356 5.82788 15.5013 5.82788ZM15.5013 3.20968C14.9124 3.20968 14.4334 3.689 14.4334 4.27787C14.4334 4.86674 14.9124 5.34574 15.5013 5.34574C16.0901 5.34574 16.5695 4.86674 16.5695 4.27787C16.5695 3.689 16.0901 3.20968 15.5013 3.20968Z" fill="#634CC2"/>
<path d="M22.2506 39.7436C19.2583 39.7436 16.824 37.3093 16.824 34.317C16.824 31.3246 19.2583 28.8904 22.2506 28.8904C25.243 28.8904 27.6772 31.3246 27.6772 34.317C27.6772 37.3093 25.243 39.7436 22.2506 39.7436ZM22.2506 29.3725C19.5241 29.3725 17.3061 31.5905 17.3061 34.317C17.3061 37.0435 19.5241 39.2614 22.2506 39.2614C24.9771 39.2614 27.1951 37.0435 27.1951 34.317C27.1951 31.5905 24.9771 29.3725 22.2506 29.3725Z" fill="#634CC2"/>
<path d="M20.8529 35.7759C20.7781 35.7759 20.705 35.7414 20.6579 35.6774L19.7332 34.4143C19.6547 34.3066 19.6779 34.1559 19.7853 34.0771C19.893 33.9984 20.0436 34.0222 20.1224 34.1292L20.9119 35.2078L24.4413 32.8972C24.5527 32.8247 24.7018 32.8558 24.7753 32.9669C24.8481 33.0783 24.817 33.2277 24.7056 33.3009L20.9847 35.7367C20.9439 35.7631 20.8981 35.7759 20.8529 35.7759Z" fill="#634CC2"/>
<path d="M26.2286 15.4431H4.77321C4.64011 15.4431 4.53214 15.3351 4.53214 15.202C4.53214 15.0689 4.64011 14.9609 4.77321 14.9609H26.2286C26.3617 14.9609 26.4696 15.0689 26.4696 15.202C26.4696 15.3351 26.3617 15.4431 26.2286 15.4431Z" fill="#634CC2"/>
<path d="M26.2277 20.4192H4.77232C4.63923 20.4192 4.53125 20.3113 4.53125 20.1782C4.53125 20.0451 4.63923 19.9371 4.77232 19.9371H26.2277C26.3608 19.9371 26.4687 20.0451 26.4687 20.1782C26.4687 20.3113 26.3608 20.4192 26.2277 20.4192Z" fill="#634CC2"/>
<path d="M26.2277 25.3954H4.77232C4.63923 25.3954 4.53125 25.2875 4.53125 25.1544C4.53125 25.0213 4.63923 24.9133 4.77232 24.9133H26.2277C26.3608 24.9133 26.4687 25.0213 26.4687 25.1544C26.4687 25.2875 26.3608 25.3954 26.2277 25.3954Z" fill="#634CC2"/>
<path d="M19.1964 30.3707H4.77076C4.63767 30.3707 4.52969 30.2627 4.52969 30.1296C4.52969 29.9965 4.63767 29.8885 4.77076 29.8885H19.1964C19.3295 29.8885 19.4375 29.9965 19.4375 30.1296C19.4375 30.2627 19.3295 30.3707 19.1964 30.3707Z" fill="#634CC2"/>
<path d="M17.223 35.835H4.77077C4.63767 35.835 4.52969 35.727 4.52969 35.5939C4.52969 35.4608 4.63767 35.3528 4.77077 35.3528H17.223C17.3561 35.3528 17.4641 35.4608 17.4641 35.5939C17.4641 35.727 17.3561 35.835 17.223 35.835Z" fill="#634CC2"/>
</svg>
