<svg width="33" height="29" viewBox="0 0 33 29" fill="none" xmlns="http://www.w3.org/2000/svg">
<path d="M31.4531 0.0625H1.54688C1.13662 0.0625 0.743165 0.225474 0.453069 0.515569C0.162974 0.805665 0 1.19912 0 1.60938L0 23.2656C0 23.6759 0.162974 24.0693 0.453069 24.3594C0.743165 24.6495 1.13662 24.8125 1.54688 24.8125H15.9844V27.9062H7.99219C7.85544 27.9062 7.72428 27.9606 7.62759 28.0573C7.53089 28.154 7.47656 28.2851 7.47656 28.4219C7.47656 28.5586 7.53089 28.6898 7.62759 28.7865C7.72428 28.8832 7.85544 28.9375 7.99219 28.9375H25.0078C25.1446 28.9375 25.2757 28.8832 25.3724 28.7865C25.4691 28.6898 25.5234 28.5586 25.5234 28.4219C25.5234 28.2851 25.4691 28.154 25.3724 28.0573C25.2757 27.9606 25.1446 27.9062 25.0078 27.9062H17.0156V24.8125H31.4531C31.8634 24.8125 32.2568 24.6495 32.5469 24.3594C32.837 24.0693 33 23.6759 33 23.2656V1.60938C33 1.19912 32.837 0.805665 32.5469 0.515569C32.2568 0.225474 31.8634 0.0625 31.4531 0.0625ZM31.9688 23.2656C31.9688 23.4024 31.9144 23.5335 31.8177 23.6302C31.721 23.7269 31.5899 23.7812 31.4531 23.7812H1.54688C1.41012 23.7812 1.27897 23.7269 1.18227 23.6302C1.08557 23.5335 1.03125 23.4024 1.03125 23.2656V1.60938C1.03125 1.47262 1.08557 1.34147 1.18227 1.24477C1.27897 1.14807 1.41012 1.09375 1.54688 1.09375H31.4531C31.5899 1.09375 31.721 1.14807 31.8177 1.24477C31.9144 1.34147 31.9688 1.47262 31.9688 1.60938V23.2656Z" fill="#634CC2"/>
<path d="M6.96094 2.125C5.99212 2.125 5.04506 2.41229 4.23951 2.95054C3.43397 3.48878 2.80612 4.25381 2.43537 5.14889C2.06462 6.04396 1.96762 7.02887 2.15662 7.97907C2.34563 8.92928 2.81216 9.8021 3.49722 10.4872C4.18228 11.1722 5.0551 11.6387 6.0053 11.8278C6.95551 12.0168 7.94042 11.9198 8.83549 11.549C9.73056 11.1783 10.4956 10.5504 11.0338 9.74486C11.5721 8.93932 11.8594 7.99226 11.8594 7.02344C11.8594 5.72429 11.3433 4.47835 10.4247 3.55972C9.50602 2.64108 8.26009 2.125 6.96094 2.125ZM4.72313 10.1713C4.78247 9.61923 5.04381 9.10856 5.4569 8.7375C5.86999 8.36643 6.40566 8.16117 6.96094 8.16117C7.51622 8.16117 8.05189 8.36643 8.46498 8.7375C8.87807 9.10856 9.13941 9.61923 9.19875 10.1713C8.54628 10.639 7.76369 10.8905 6.96094 10.8905C6.15819 10.8905 5.3756 10.639 4.72313 10.1713ZM5.94516 6.11852C5.94516 5.91761 6.00473 5.72122 6.11635 5.55418C6.22796 5.38713 6.38661 5.25694 6.57222 5.18006C6.75783 5.10317 6.96207 5.08306 7.15911 5.12225C7.35615 5.16145 7.53715 5.25819 7.67921 5.40025C7.82127 5.54231 7.91801 5.7233 7.9572 5.92035C7.9964 6.11739 7.97628 6.32163 7.8994 6.50724C7.82252 6.69285 7.69232 6.85149 7.52528 6.96311C7.35823 7.07472 7.16184 7.1343 6.96094 7.1343C6.69175 7.13362 6.43377 7.02638 6.24343 6.83603C6.05308 6.64568 5.94584 6.38771 5.94516 6.11852ZM10.0547 9.34375C9.77736 8.55302 9.2083 7.89819 8.46399 7.51328C8.7342 7.22102 8.91335 6.85632 8.9795 6.46382C9.04566 6.07131 8.99594 5.66804 8.83644 5.30335C8.67695 4.93867 8.41459 4.6284 8.08149 4.41051C7.74838 4.19262 7.35898 4.07658 6.96094 4.07658C6.5629 4.07658 6.1735 4.19262 5.84039 4.41051C5.50729 4.6284 5.24493 4.93867 5.08543 5.30335C4.92594 5.66804 4.87622 6.07131 4.94238 6.46382C5.00853 6.85632 5.18768 7.22102 5.45789 7.51328C4.71358 7.89819 4.14452 8.55302 3.86719 9.34375C3.43628 8.7692 3.17388 8.08601 3.10938 7.37073C3.04488 6.65545 3.18084 5.93634 3.50202 5.29398C3.8232 4.65162 4.31692 4.11138 4.92784 3.73381C5.53876 3.35624 6.24276 3.15625 6.96094 3.15625C7.67912 3.15625 8.38312 3.35624 8.99404 3.73381C9.60496 4.11138 10.0987 4.65162 10.4199 5.29398C10.741 5.93634 10.877 6.65545 10.8125 7.37073C10.748 8.08601 10.4856 8.7692 10.0547 9.34375Z" fill="#634CC2"/>
<path d="M11.3438 13.9844H2.57812C2.44137 13.9844 2.31022 14.0387 2.21352 14.1354C2.11682 14.2321 2.0625 14.3632 2.0625 14.5C2.0625 14.6368 2.11682 14.7679 2.21352 14.8646C2.31022 14.9613 2.44137 15.0156 2.57812 15.0156H11.3438C11.4805 15.0156 11.6117 14.9613 11.7084 14.8646C11.8051 14.7679 11.8594 14.6368 11.8594 14.5C11.8594 14.3632 11.8051 14.2321 11.7084 14.1354C11.6117 14.0387 11.4805 13.9844 11.3438 13.9844Z" fill="#634CC2"/>
<path d="M2.57812 17.5938H8.12883C8.26558 17.5938 8.39673 17.5394 8.49343 17.4427C8.59013 17.346 8.64445 17.2149 8.64445 17.0781C8.64445 16.9414 8.59013 16.8102 8.49343 16.7135C8.39673 16.6168 8.26558 16.5625 8.12883 16.5625H2.57812C2.44137 16.5625 2.31022 16.6168 2.21352 16.7135C2.11682 16.8102 2.0625 16.9414 2.0625 17.0781C2.0625 17.2149 2.11682 17.346 2.21352 17.4427C2.31022 17.5394 2.44137 17.5938 2.57812 17.5938Z" fill="#634CC2"/>
<path d="M13.4062 2.125C13.2695 2.125 13.1383 2.17932 13.0416 2.27602C12.9449 2.37272 12.8906 2.50387 12.8906 2.64063V22.2344C12.8906 22.3711 12.9449 22.5023 13.0416 22.599C13.1383 22.6957 13.2695 22.75 13.4062 22.75C13.543 22.75 13.6742 22.6957 13.7709 22.599C13.8676 22.5023 13.9219 22.3711 13.9219 22.2344V2.64063C13.9219 2.50387 13.8676 2.37272 13.7709 2.27602C13.6742 2.17932 13.543 2.125 13.4062 2.125Z" fill="#634CC2"/>
<path d="M11.3438 19.1406H2.57812C2.44137 19.1406 2.31022 19.1949 2.21352 19.2916C2.11682 19.3883 2.0625 19.5195 2.0625 19.6563V22.2344C2.0625 22.3711 2.11682 22.5023 2.21352 22.599C2.31022 22.6957 2.44137 22.75 2.57812 22.75H11.3438C11.4805 22.75 11.6117 22.6957 11.7084 22.599C11.8051 22.5023 11.8594 22.3711 11.8594 22.2344V19.6563C11.8594 19.5195 11.8051 19.3883 11.7084 19.2916C11.6117 19.1949 11.4805 19.1406 11.3438 19.1406ZM10.8281 21.7188H3.09375V20.1719H10.8281V21.7188Z" fill="#634CC2"/>
<path d="M30.9375 4.20555V2.64063C30.9375 2.50387 30.8832 2.37272 30.7865 2.27602C30.6898 2.17932 30.5586 2.125 30.4219 2.125H15.4688C15.332 2.125 15.2008 2.17932 15.1041 2.27602C15.0074 2.37272 14.9531 2.50387 14.9531 2.64063V11.1484C14.9531 11.2852 15.0074 11.4163 15.1041 11.513C15.2008 11.6097 15.332 11.6641 15.4688 11.6641H30.4219C30.5586 11.6641 30.6898 11.6097 30.7865 11.513C30.8832 11.4163 30.9375 11.2852 30.9375 11.1484V4.20813V4.20555ZM29.9062 3.15625V3.92969L27.2379 5.6957L24.6288 4.97898C24.541 4.95524 24.4485 4.95513 24.3607 4.97868C24.2729 5.00222 24.1928 5.04858 24.1287 5.11305L21.5351 7.70406L18.761 6.54649C18.6773 6.51026 18.5854 6.4969 18.4948 6.50777C18.4043 6.51864 18.3182 6.55335 18.2454 6.60836L15.9844 8.27899V3.15625H29.9062ZM15.9844 10.6328V9.56031L18.6321 7.61125L21.468 8.78945C21.5624 8.8283 21.6662 8.83825 21.7663 8.81806C21.8663 8.79786 21.9581 8.74843 22.0301 8.67602L24.6443 6.05148L27.1915 6.74758C27.2623 6.76695 27.3364 6.771 27.4088 6.75944C27.4813 6.74788 27.5505 6.72098 27.6117 6.68055L29.9062 5.16203V10.6328H15.9844Z" fill="#634CC2"/>
<path d="M30.9375 15.2734C30.9365 14.7894 30.7653 14.3211 30.4538 13.9506C30.1423 13.5801 29.7105 13.3309 29.2338 13.2467C28.7571 13.1625 28.2661 13.2486 27.8465 13.49C27.4269 13.7314 27.1056 14.1126 26.9388 14.567L24.9717 14.3737C24.8761 13.869 24.5956 13.4183 24.1851 13.1095C23.7746 12.8008 23.2638 12.6563 22.7524 12.7044C22.241 12.7524 21.766 12.9895 21.4202 13.3693C21.0745 13.7491 20.8828 14.2442 20.8828 14.7578C20.8825 14.8911 20.8955 15.0241 20.9215 15.1548L18.6012 16.2686C18.3927 16.0198 18.1284 15.8238 17.8298 15.6964C17.5313 15.569 17.2069 15.5139 16.883 15.5355C16.5591 15.5572 16.2449 15.6549 15.966 15.8209C15.687 15.9869 15.4511 16.2163 15.2776 16.4906C15.104 16.7649 14.9976 17.0763 14.9671 17.3994C14.9366 17.7226 14.9828 18.0484 15.1019 18.3503C15.221 18.6523 15.4097 18.9219 15.6526 19.1371C15.8956 19.3524 16.1859 19.5073 16.5 19.5892V21.7187H15.4688C15.332 21.7187 15.2008 21.7731 15.1041 21.8698C15.0074 21.9664 14.9531 22.0976 14.9531 22.2344C14.9531 22.3711 15.0074 22.5023 15.1041 22.599C15.2008 22.6957 15.332 22.75 15.4688 22.75H30.4219C30.5586 22.75 30.6898 22.6957 30.7865 22.599C30.8832 22.5023 30.9375 22.3711 30.9375 22.2344C30.9375 22.0976 30.8832 21.9664 30.7865 21.8698C30.6898 21.7731 30.5586 21.7187 30.4219 21.7187H29.3906V17.2689C29.8331 17.1546 30.2251 16.8967 30.5051 16.5355C30.7851 16.1743 30.9372 15.7304 30.9375 15.2734ZM28.875 14.2422C29.079 14.2422 29.2783 14.3026 29.4479 14.416C29.6175 14.5293 29.7497 14.6903 29.8278 14.8788C29.9058 15.0672 29.9262 15.2746 29.8864 15.4746C29.8466 15.6746 29.7484 15.8584 29.6042 16.0026C29.46 16.1468 29.2762 16.2451 29.0762 16.2849C28.8761 16.3246 28.6688 16.3042 28.4804 16.2262C28.2919 16.1481 28.1309 16.0159 28.0175 15.8463C27.9042 15.6768 27.8438 15.4774 27.8438 15.2734C27.8438 14.9999 27.9524 14.7376 28.1458 14.5442C28.3392 14.3508 28.6015 14.2422 28.875 14.2422ZM22.9453 13.7265C23.1493 13.7265 23.3487 13.787 23.5182 13.9003C23.6878 14.0137 23.82 14.1747 23.8981 14.3631C23.9761 14.5516 23.9965 14.7589 23.9567 14.959C23.917 15.159 23.8187 15.3428 23.6745 15.487C23.5303 15.6312 23.3465 15.7294 23.1465 15.7692C22.9465 15.809 22.7391 15.7886 22.5507 15.7105C22.3622 15.6325 22.2012 15.5003 22.0879 15.3307C21.9745 15.1611 21.9141 14.9618 21.9141 14.7578C21.9141 14.4843 22.0227 14.222 22.2161 14.0286C22.4095 13.8352 22.6718 13.7265 22.9453 13.7265ZM15.9844 17.5937C15.9844 17.3898 16.0449 17.1904 16.1582 17.0208C16.2715 16.8512 16.4325 16.719 16.621 16.641C16.8094 16.5629 17.0168 16.5425 17.2168 16.5823C17.4169 16.6221 17.6006 16.7203 17.7448 16.8645C17.8891 17.0087 17.9873 17.1925 18.0271 17.3925C18.0669 17.5926 18.0464 17.7999 17.9684 17.9884C17.8903 18.1768 17.7581 18.3379 17.5886 18.4512C17.419 18.5645 17.2196 18.625 17.0156 18.625C16.7421 18.625 16.4798 18.5163 16.2864 18.3229C16.093 18.1295 15.9844 17.8672 15.9844 17.5937ZM17.5312 19.5892C17.9737 19.475 18.3657 19.217 18.6457 18.8558C18.9257 18.4946 19.0778 18.0507 19.0781 17.5937C19.0784 17.4604 19.0655 17.3274 19.0395 17.1967L21.3598 16.0829C21.6381 16.4121 22.0121 16.6464 22.4297 16.7533V21.7187H17.5312V19.5892ZM23.4609 21.7187V16.7533C23.795 16.6666 24.102 16.4976 24.3538 16.2615C24.6056 16.0255 24.7941 15.7301 24.9021 15.4023L26.8409 15.5931C26.9033 15.99 27.0802 16.36 27.35 16.6577C27.6197 16.9554 27.9706 17.1678 28.3594 17.2689V21.7187H23.4609Z" fill="#634CC2"/>
</svg>
