<svg width="33" height="42" viewBox="0 0 33 42" fill="none" xmlns="http://www.w3.org/2000/svg">
<g clip-path="url(#clip0)">
<path d="M31.4531 2.0625H1.54688C1.13662 2.0625 0.743165 2.22547 0.453069 2.51557C0.162974 2.80566 0 3.19912 0 3.60938L0 25.2656C0 25.6759 0.162974 26.0693 0.453069 26.3594C0.743165 26.6495 1.13662 26.8125 1.54688 26.8125H15.9844V29.9062H7.99219C7.85544 29.9062 7.72428 29.9606 7.62759 30.0573C7.53089 30.154 7.47656 30.2851 7.47656 30.4219C7.47656 30.5586 7.53089 30.6898 7.62759 30.7865C7.72428 30.8832 7.85544 30.9375 7.99219 30.9375H25.0078C25.1446 30.9375 25.2757 30.8832 25.3724 30.7865C25.4691 30.6898 25.5234 30.5586 25.5234 30.4219C25.5234 30.2851 25.4691 30.154 25.3724 30.0573C25.2757 29.9606 25.1446 29.9062 25.0078 29.9062H17.0156V26.8125H31.4531C31.8634 26.8125 32.2568 26.6495 32.5469 26.3594C32.837 26.0693 33 25.6759 33 25.2656V3.60938C33 3.19912 32.837 2.80566 32.5469 2.51557C32.2568 2.22547 31.8634 2.0625 31.4531 2.0625ZM31.9688 25.2656C31.9688 25.4024 31.9144 25.5335 31.8177 25.6302C31.721 25.7269 31.5899 25.7812 31.4531 25.7812H1.54688C1.41012 25.7812 1.27897 25.7269 1.18227 25.6302C1.08557 25.5335 1.03125 25.4024 1.03125 25.2656V3.60938C1.03125 3.47262 1.08557 3.34147 1.18227 3.24477C1.27897 3.14807 1.41012 3.09375 1.54688 3.09375H31.4531C31.5899 3.09375 31.721 3.14807 31.8177 3.24477C31.9144 3.34147 31.9688 3.47262 31.9688 3.60938V25.2656Z" fill="#634CC2"/>
<path d="M6.96094 4.125C5.99212 4.125 5.04506 4.41229 4.23951 4.95054C3.43397 5.48878 2.80612 6.25381 2.43537 7.14889C2.06462 8.04396 1.96762 9.02887 2.15662 9.97907C2.34563 10.9293 2.81216 11.8021 3.49722 12.4872C4.18228 13.1722 5.0551 13.6387 6.0053 13.8278C6.95551 14.0168 7.94042 13.9198 8.83549 13.549C9.73056 13.1783 10.4956 12.5504 11.0338 11.7449C11.5721 10.9393 11.8594 9.99226 11.8594 9.02344C11.8594 7.72429 11.3433 6.47835 10.4247 5.55972C9.50602 4.64108 8.26009 4.125 6.96094 4.125ZM4.72313 12.1713C4.78247 11.6192 5.04381 11.1086 5.4569 10.7375C5.86999 10.3664 6.40566 10.1612 6.96094 10.1612C7.51622 10.1612 8.05189 10.3664 8.46498 10.7375C8.87807 11.1086 9.13941 11.6192 9.19875 12.1713C8.54628 12.639 7.76369 12.8905 6.96094 12.8905C6.15819 12.8905 5.3756 12.639 4.72313 12.1713ZM5.94516 8.11852C5.94516 7.91761 6.00473 7.72122 6.11635 7.55418C6.22796 7.38713 6.38661 7.25694 6.57222 7.18006C6.75783 7.10317 6.96207 7.08306 7.15911 7.12225C7.35615 7.16145 7.53715 7.25819 7.67921 7.40025C7.82127 7.54231 7.91801 7.7233 7.9572 7.92035C7.9964 8.11739 7.97628 8.32163 7.8994 8.50724C7.82252 8.69285 7.69232 8.85149 7.52528 8.96311C7.35823 9.07472 7.16184 9.1343 6.96094 9.1343C6.69175 9.13362 6.43377 9.02638 6.24343 8.83603C6.05308 8.64568 5.94584 8.38771 5.94516 8.11852ZM10.0547 11.3438C9.77736 10.553 9.2083 9.89819 8.46399 9.51328C8.7342 9.22102 8.91335 8.85632 8.9795 8.46382C9.04566 8.07131 8.99594 7.66804 8.83644 7.30335C8.67695 6.93867 8.41459 6.6284 8.08149 6.41051C7.74838 6.19262 7.35898 6.07658 6.96094 6.07658C6.5629 6.07658 6.1735 6.19262 5.84039 6.41051C5.50729 6.6284 5.24493 6.93867 5.08543 7.30335C4.92594 7.66804 4.87622 8.07131 4.94238 8.46382C5.00853 8.85632 5.18768 9.22102 5.45789 9.51328C4.71358 9.89819 4.14452 10.553 3.86719 11.3438C3.43628 10.7692 3.17388 10.086 3.10938 9.37073C3.04488 8.65545 3.18084 7.93634 3.50202 7.29398C3.8232 6.65162 4.31692 6.11138 4.92784 5.73381C5.53876 5.35624 6.24276 5.15625 6.96094 5.15625C7.67912 5.15625 8.38312 5.35624 8.99404 5.73381C9.60496 6.11138 10.0987 6.65162 10.4199 7.29398C10.741 7.93634 10.877 8.65545 10.8125 9.37073C10.748 10.086 10.4856 10.7692 10.0547 11.3438Z" fill="#634CC2"/>
<path d="M11.3438 15.9844H2.57812C2.44137 15.9844 2.31022 16.0387 2.21352 16.1354C2.11682 16.2321 2.0625 16.3632 2.0625 16.5C2.0625 16.6368 2.11682 16.7679 2.21352 16.8646C2.31022 16.9613 2.44137 17.0156 2.57812 17.0156H11.3438C11.4805 17.0156 11.6117 16.9613 11.7084 16.8646C11.8051 16.7679 11.8594 16.6368 11.8594 16.5C11.8594 16.3632 11.8051 16.2321 11.7084 16.1354C11.6117 16.0387 11.4805 15.9844 11.3438 15.9844Z" fill="#634CC2"/>
<path d="M2.57812 19.5938H8.12883C8.26558 19.5938 8.39673 19.5394 8.49343 19.4427C8.59013 19.346 8.64445 19.2149 8.64445 19.0781C8.64445 18.9414 8.59013 18.8102 8.49343 18.7135C8.39673 18.6168 8.26558 18.5625 8.12883 18.5625H2.57812C2.44137 18.5625 2.31022 18.6168 2.21352 18.7135C2.11682 18.8102 2.0625 18.9414 2.0625 19.0781C2.0625 19.2149 2.11682 19.346 2.21352 19.4427C2.31022 19.5394 2.44137 19.5938 2.57812 19.5938Z" fill="#634CC2"/>
<path d="M13.4062 4.125C13.2695 4.125 13.1383 4.17932 13.0416 4.27602C12.9449 4.37272 12.8906 4.50387 12.8906 4.64063V24.2344C12.8906 24.3711 12.9449 24.5023 13.0416 24.599C13.1383 24.6957 13.2695 24.75 13.4062 24.75C13.543 24.75 13.6742 24.6957 13.7709 24.599C13.8676 24.5023 13.9219 24.3711 13.9219 24.2344V4.64063C13.9219 4.50387 13.8676 4.37272 13.7709 4.27602C13.6742 4.17932 13.543 4.125 13.4062 4.125Z" fill="#634CC2"/>
<path d="M11.3438 21.1406H2.57812C2.44137 21.1406 2.31022 21.1949 2.21352 21.2916C2.11682 21.3883 2.0625 21.5195 2.0625 21.6563V24.2344C2.0625 24.3711 2.11682 24.5023 2.21352 24.599C2.31022 24.6957 2.44137 24.75 2.57812 24.75H11.3438C11.4805 24.75 11.6117 24.6957 11.7084 24.599C11.8051 24.5023 11.8594 24.3711 11.8594 24.2344V21.6563C11.8594 21.5195 11.8051 21.3883 11.7084 21.2916C11.6117 21.1949 11.4805 21.1406 11.3438 21.1406ZM10.8281 23.7188H3.09375V22.1719H10.8281V23.7188Z" fill="#634CC2"/>
<path d="M30.9375 6.20555V4.64063C30.9375 4.50387 30.8832 4.37272 30.7865 4.27602C30.6898 4.17932 30.5586 4.125 30.4219 4.125H15.4688C15.332 4.125 15.2008 4.17932 15.1041 4.27602C15.0074 4.37272 14.9531 4.50387 14.9531 4.64063V13.1484C14.9531 13.2852 15.0074 13.4163 15.1041 13.513C15.2008 13.6097 15.332 13.6641 15.4688 13.6641H30.4219C30.5586 13.6641 30.6898 13.6097 30.7865 13.513C30.8832 13.4163 30.9375 13.2852 30.9375 13.1484V6.20813V6.20555ZM29.9062 5.15625V5.92969L27.2379 7.6957L24.6288 6.97898C24.541 6.95524 24.4485 6.95513 24.3607 6.97868C24.2729 7.00222 24.1928 7.04858 24.1287 7.11305L21.5351 9.70406L18.761 8.54649C18.6773 8.51026 18.5854 8.4969 18.4948 8.50777C18.4043 8.51864 18.3182 8.55335 18.2454 8.60836L15.9844 10.279V5.15625H29.9062ZM15.9844 12.6328V11.5603L18.6321 9.61125L21.468 10.7895C21.5624 10.8283 21.6662 10.8383 21.7663 10.8181C21.8663 10.7979 21.9581 10.7484 22.0301 10.676L24.6443 8.05148L27.1915 8.74758C27.2623 8.76695 27.3364 8.771 27.4088 8.75944C27.4813 8.74788 27.5505 8.72098 27.6117 8.68055L29.9062 7.16203V12.6328H15.9844Z" fill="#634CC2"/>
<path d="M30.9375 17.2734C30.9365 16.7894 30.7653 16.3211 30.4538 15.9506C30.1423 15.5801 29.7105 15.3309 29.2338 15.2467C28.7571 15.1625 28.2661 15.2486 27.8465 15.49C27.4269 15.7314 27.1056 16.1126 26.9388 16.567L24.9717 16.3737C24.8761 15.869 24.5956 15.4183 24.1851 15.1095C23.7746 14.8008 23.2638 14.6563 22.7524 14.7044C22.241 14.7524 21.766 14.9895 21.4202 15.3693C21.0745 15.7491 20.8828 16.2442 20.8828 16.7578C20.8825 16.8911 20.8955 17.0241 20.9215 17.1548L18.6012 18.2686C18.3927 18.0198 18.1284 17.8238 17.8298 17.6964C17.5313 17.569 17.2069 17.5139 16.883 17.5355C16.5591 17.5572 16.2449 17.6549 15.966 17.8209C15.687 17.9869 15.4511 18.2163 15.2776 18.4906C15.104 18.7649 14.9976 19.0763 14.9671 19.3994C14.9366 19.7226 14.9828 20.0484 15.1019 20.3503C15.221 20.6523 15.4097 20.9219 15.6526 21.1371C15.8956 21.3524 16.1859 21.5073 16.5 21.5892V23.7187H15.4688C15.332 23.7187 15.2008 23.7731 15.1041 23.8698C15.0074 23.9664 14.9531 24.0976 14.9531 24.2344C14.9531 24.3711 15.0074 24.5023 15.1041 24.599C15.2008 24.6957 15.332 24.75 15.4688 24.75H30.4219C30.5586 24.75 30.6898 24.6957 30.7865 24.599C30.8832 24.5023 30.9375 24.3711 30.9375 24.2344C30.9375 24.0976 30.8832 23.9664 30.7865 23.8698C30.6898 23.7731 30.5586 23.7187 30.4219 23.7187H29.3906V19.2689C29.8331 19.1546 30.2251 18.8967 30.5051 18.5355C30.7851 18.1743 30.9372 17.7304 30.9375 17.2734ZM28.875 16.2422C29.079 16.2422 29.2783 16.3026 29.4479 16.416C29.6175 16.5293 29.7497 16.6903 29.8278 16.8788C29.9058 17.0672 29.9262 17.2746 29.8864 17.4746C29.8466 17.6746 29.7484 17.8584 29.6042 18.0026C29.46 18.1468 29.2762 18.2451 29.0762 18.2849C28.8761 18.3246 28.6688 18.3042 28.4804 18.2262C28.2919 18.1481 28.1309 18.0159 28.0175 17.8463C27.9042 17.6768 27.8438 17.4774 27.8438 17.2734C27.8438 16.9999 27.9524 16.7376 28.1458 16.5442C28.3392 16.3508 28.6015 16.2422 28.875 16.2422ZM22.9453 15.7265C23.1493 15.7265 23.3487 15.787 23.5182 15.9003C23.6878 16.0137 23.82 16.1747 23.8981 16.3631C23.9761 16.5516 23.9965 16.7589 23.9567 16.959C23.917 17.159 23.8187 17.3428 23.6745 17.487C23.5303 17.6312 23.3465 17.7294 23.1465 17.7692C22.9465 17.809 22.7391 17.7886 22.5507 17.7105C22.3622 17.6325 22.2012 17.5003 22.0879 17.3307C21.9745 17.1611 21.9141 16.9618 21.9141 16.7578C21.9141 16.4843 22.0227 16.222 22.2161 16.0286C22.4095 15.8352 22.6718 15.7265 22.9453 15.7265ZM15.9844 19.5937C15.9844 19.3898 16.0449 19.1904 16.1582 19.0208C16.2715 18.8512 16.4325 18.719 16.621 18.641C16.8094 18.5629 17.0168 18.5425 17.2168 18.5823C17.4169 18.6221 17.6006 18.7203 17.7448 18.8645C17.8891 19.0087 17.9873 19.1925 18.0271 19.3925C18.0669 19.5926 18.0464 19.7999 17.9684 19.9884C17.8903 20.1768 17.7581 20.3379 17.5886 20.4512C17.419 20.5645 17.2196 20.625 17.0156 20.625C16.7421 20.625 16.4798 20.5163 16.2864 20.3229C16.093 20.1295 15.9844 19.8672 15.9844 19.5937ZM17.5312 21.5892C17.9737 21.475 18.3657 21.217 18.6457 20.8558C18.9257 20.4946 19.0778 20.0507 19.0781 19.5937C19.0784 19.4604 19.0655 19.3274 19.0395 19.1967L21.3598 18.0829C21.6381 18.4121 22.0121 18.6464 22.4297 18.7533V23.7187H17.5312V21.5892ZM23.4609 23.7187V18.7533C23.795 18.6666 24.102 18.4976 24.3538 18.2615C24.6056 18.0255 24.7941 17.7301 24.9021 17.4023L26.8409 17.5931C26.9033 17.99 27.0802 18.36 27.35 18.6577C27.6197 18.9554 27.9706 19.1678 28.3594 19.2689V23.7187H23.4609Z" fill="#634CC2"/>
</g>
<defs>
<clipPath id="clip0">
<rect width="33" height="41.25" fill="white"/>
</clipPath>
</defs>
</svg>
