<svg width="37" height="37" viewBox="0 0 37 37" fill="none" xmlns="http://www.w3.org/2000/svg">
<path fill-rule="evenodd" clip-rule="evenodd" d="M30.3931 28.5567C28.5612 25.6407 25.7579 23.5145 22.5432 22.4923C24.2225 21.1891 25.3221 19.1757 25.3221 16.8924C25.3221 12.9719 22.1339 9.78146 18.2111 9.78146C14.2905 9.78146 11.1001 12.9719 11.1001 16.8924C11.1001 19.1757 12.1997 21.1913 13.879 22.4923C10.6643 23.5145 7.86101 25.6407 6.02906 28.5567C3.65505 25.7646 2.2125 22.156 2.2125 18.2133C2.2125 9.38985 9.38985 2.2125 18.2111 2.2125C27.0323 2.2125 34.2097 9.38985 34.2097 18.2133C34.2097 22.156 32.7671 25.7646 30.3931 28.5567ZM13.3126 16.8924C13.3126 14.191 15.5096 11.994 18.2111 11.994C20.9125 11.994 23.1096 14.191 23.1096 16.8924C23.1096 19.5939 20.9125 21.7909 18.2111 21.7909C15.5096 21.7909 13.3126 19.5939 13.3126 16.8924ZM18.2111 34.2097C14.1312 34.2097 10.4165 32.6631 7.58887 30.1409C7.61543 30.1055 7.65968 30.0878 7.68401 30.0457C9.86554 26.3199 13.8967 24.0034 18.2111 24.0034C22.5233 24.0034 26.5566 26.3199 28.736 30.0435C28.7603 30.0856 28.7979 30.1099 28.8267 30.1475C25.9991 32.6654 22.2865 34.2097 18.2111 34.2097ZM18.2111 0C8.17076 0 0 8.17076 0 18.2133C0 28.2536 8.17076 36.4222 18.2111 36.4222C28.2514 36.4222 36.4222 28.2536 36.4222 18.2133C36.4222 8.17076 28.2514 0 18.2111 0Z" fill="white"/>
</svg>
