<svg width="59" height="74" viewBox="0 0 59 74" fill="none" xmlns="http://www.w3.org/2000/svg">
<path fill-rule="evenodd" clip-rule="evenodd" d="M42.3931 43.5567C40.5612 40.6407 37.7579 38.5145 34.5432 37.4923C36.2225 36.1891 37.3221 34.1757 37.3221 31.8924C37.3221 27.9719 34.1339 24.7815 30.2111 24.7815C26.2905 24.7815 23.1001 27.9719 23.1001 31.8924C23.1001 34.1757 24.1997 36.1913 25.879 37.4923C22.6643 38.5145 19.861 40.6407 18.0291 43.5567C15.6551 40.7646 14.2125 37.156 14.2125 33.2133C14.2125 24.3898 21.3898 17.2125 30.2111 17.2125C39.0323 17.2125 46.2097 24.3898 46.2097 33.2133C46.2097 37.156 44.7671 40.7646 42.3931 43.5567ZM25.3126 31.8924C25.3126 29.191 27.5096 26.994 30.2111 26.994C32.9125 26.994 35.1096 29.191 35.1096 31.8924C35.1096 34.5939 32.9125 36.7909 30.2111 36.7909C27.5096 36.7909 25.3126 34.5939 25.3126 31.8924ZM30.2111 49.2097C26.1312 49.2097 22.4165 47.6631 19.5889 45.1409C19.6154 45.1055 19.6597 45.0878 19.684 45.0457C21.8655 41.3199 25.8967 39.0034 30.2111 39.0034C34.5233 39.0034 38.5566 41.3199 40.736 45.0435C40.7603 45.0856 40.7979 45.1099 40.8267 45.1475C37.9991 47.6654 34.2865 49.2097 30.2111 49.2097ZM30.2111 15C20.1708 15 12 23.1708 12 33.2133C12 43.2536 20.1708 51.4222 30.2111 51.4222C40.2514 51.4222 48.4222 43.2536 48.4222 33.2133C48.4222 23.1708 40.2514 15 30.2111 15Z" fill="white"/>
</svg>
