<svg width="33" height="42" viewBox="0 0 33 42" fill="none" xmlns="http://www.w3.org/2000/svg">
<path d="M15.125 22H12.153L9.57583 28.4428C9.43481 28.7954 9.03471 28.9668 8.68217 28.8258C8.32963 28.6848 8.15816 28.2847 8.29917 27.9322L10.672 22H2.0625C1.6828 22 1.375 21.6922 1.375 21.3125C1.375 20.9328 1.6828 20.625 2.0625 20.625H2.75V4.8125C2.75 4.4328 3.0578 4.125 3.4375 4.125H15.125V2.0625C15.125 1.6828 15.4328 1.375 15.8125 1.375C16.1922 1.375 16.5 1.6828 16.5 2.0625V4.125H28.1875C28.5672 4.125 28.875 4.4328 28.875 4.8125V20.625H29.5625C29.9422 20.625 30.25 20.9328 30.25 21.3125C30.25 21.6922 29.9422 22 29.5625 22H20.953L23.3258 27.9322C23.4668 28.2847 23.2954 28.6848 22.9428 28.8258C22.5903 28.9668 22.1902 28.7954 22.0492 28.4428L19.472 22H16.5V28.1875C16.5 28.5672 16.1922 28.875 15.8125 28.875C15.4328 28.875 15.125 28.5672 15.125 28.1875V22ZM19.9215 20.625C19.932 20.6248 19.9426 20.6248 19.9531 20.625H27.5V5.5H4.125V20.625H11.6719C11.6824 20.6248 11.693 20.6248 11.7035 20.625H19.9215ZM18.5625 6.875C20.5673 6.875 22 8.06892 22 10.3125C22 13.8035 20.0041 16.5478 16.12 18.4899C15.9264 18.5867 15.6986 18.5867 15.505 18.4899C11.6209 16.5478 9.625 13.8035 9.625 10.3125C9.625 8.06892 11.0577 6.875 13.0625 6.875C14.0077 6.875 14.9259 7.26064 15.8125 8.00454C16.6991 7.26064 17.6173 6.875 18.5625 6.875ZM20.625 10.3125C20.625 8.88941 19.8577 8.25 18.5625 8.25C17.8483 8.25 17.0962 8.62606 16.2986 9.42364C16.0302 9.69212 15.5948 9.69212 15.3264 9.42364C14.5288 8.62606 13.7767 8.25 13.0625 8.25C11.7673 8.25 11 8.88941 11 10.3125C11 13.1498 12.5715 15.3963 15.8125 17.1024C19.0535 15.3963 20.625 13.1498 20.625 10.3125Z" fill="#634CC2"/>
</svg>
