<svg width="30" height="28" viewBox="0 0 30 28" fill="none" xmlns="http://www.w3.org/2000/svg">
<path d="M14.125 21H11.153L8.57583 27.4428C8.43481 27.7954 8.03471 27.9668 7.68217 27.8258C7.32963 27.6848 7.15816 27.2847 7.29917 26.9322L9.67204 21H1.0625C0.682804 21 0.375 20.6922 0.375 20.3125C0.375 19.9328 0.682804 19.625 1.0625 19.625H1.75V3.8125C1.75 3.4328 2.0578 3.125 2.4375 3.125H14.125V1.0625C14.125 0.682804 14.4328 0.375 14.8125 0.375C15.1922 0.375 15.5 0.682804 15.5 1.0625V3.125H27.1875C27.5672 3.125 27.875 3.4328 27.875 3.8125V19.625H28.5625C28.9422 19.625 29.25 19.9328 29.25 20.3125C29.25 20.6922 28.9422 21 28.5625 21H19.953L22.3258 26.9322C22.4668 27.2847 22.2954 27.6848 21.9428 27.8258C21.5903 27.9668 21.1902 27.7954 21.0492 27.4428L18.472 21H15.5V27.1875C15.5 27.5672 15.1922 27.875 14.8125 27.875C14.4328 27.875 14.125 27.5672 14.125 27.1875V21ZM18.9215 19.625C18.932 19.6248 18.9426 19.6248 18.9531 19.625H26.5V4.5H3.125V19.625H10.6719C10.6824 19.6248 10.693 19.6248 10.7035 19.625H18.9215ZM17.5625 5.875C19.5673 5.875 21 7.06892 21 9.3125C21 12.8035 19.0041 15.5478 15.12 17.4899C14.9264 17.5867 14.6986 17.5867 14.505 17.4899C10.6209 15.5478 8.625 12.8035 8.625 9.3125C8.625 7.06892 10.0577 5.875 12.0625 5.875C13.0077 5.875 13.9259 6.26064 14.8125 7.00454C15.6991 6.26064 16.6173 5.875 17.5625 5.875ZM19.625 9.3125C19.625 7.88941 18.8577 7.25 17.5625 7.25C16.8483 7.25 16.0962 7.62606 15.2986 8.42364C15.0302 8.69212 14.5948 8.69212 14.3264 8.42364C13.5288 7.62606 12.7767 7.25 12.0625 7.25C10.7673 7.25 10 7.88941 10 9.3125C10 12.1498 11.5715 14.3963 14.8125 16.1024C18.0535 14.3963 19.625 12.1498 19.625 9.3125Z" fill="#634CC2"/>
</svg>
