<svg width="33" height="42" viewBox="0 0 33 42" fill="none" xmlns="http://www.w3.org/2000/svg">
<path d="M8.24662 27.8712C8.26618 27.9157 8.27622 27.9639 8.27611 28.0125C8.27599 28.0844 8.25465 28.1546 8.21478 28.2144C8.17491 28.2742 8.11827 28.3209 8.05197 28.3487C8.00741 28.3681 7.9593 28.3781 7.91069 28.378C7.86209 28.3777 7.81404 28.3678 7.76935 28.3487C7.72581 28.3302 7.68611 28.3038 7.65231 28.2707C7.58461 28.2017 7.54626 28.1092 7.54531 28.0125C7.54502 27.9639 7.55489 27.9157 7.57429 27.8712C7.59281 27.8277 7.61927 27.788 7.65231 27.7542C7.68487 27.7197 7.72491 27.6931 7.76935 27.6764C7.81397 27.6571 7.86206 27.6472 7.91066 27.6472C7.95926 27.6472 8.00735 27.6571 8.05197 27.6764C8.09563 27.6945 8.13531 27.721 8.16871 27.7544C8.20211 27.7878 8.22859 27.8275 8.24662 27.8712ZM10.4195 27.6764C10.3758 27.6571 10.3286 27.6472 10.2808 27.6472C10.233 27.6472 10.1858 27.6571 10.1421 27.6764C10.0969 27.6917 10.0566 27.7185 10.0251 27.7542C9.98949 27.7872 9.96115 27.8271 9.94183 27.8716C9.92251 27.916 9.91262 27.964 9.91281 28.0125C9.9132 28.0611 9.92322 28.1091 9.9423 28.1538C9.96236 28.1975 9.99033 28.2371 10.0248 28.2707C10.0576 28.305 10.0976 28.3316 10.1418 28.3487C10.1847 28.3677 10.231 28.3777 10.2779 28.378C10.3266 28.3782 10.3747 28.3682 10.4193 28.3487C10.4628 28.3302 10.5025 28.3037 10.5362 28.2707C10.5702 28.2368 10.5971 28.1965 10.6155 28.1522C10.6339 28.1079 10.6433 28.0604 10.6433 28.0125C10.6433 27.9645 10.6339 27.917 10.6155 27.8727C10.5971 27.8284 10.5702 27.7881 10.5362 27.7542C10.5038 27.7197 10.4638 27.6931 10.4195 27.6764ZM12.9093 27.7542C12.8393 27.6885 12.7469 27.652 12.6509 27.652C12.555 27.652 12.4626 27.6885 12.3926 27.7542C12.3241 27.8227 12.2856 27.9156 12.2855 28.0125C12.287 28.0605 12.2952 28.1081 12.3098 28.1538C12.3301 28.1975 12.3582 28.237 12.3926 28.2707C12.4264 28.3038 12.4661 28.3302 12.5096 28.3487C12.5542 28.3682 12.6023 28.3782 12.6509 28.378C12.7229 28.378 12.7932 28.3567 12.8531 28.3169C12.9129 28.277 12.9596 28.2202 12.9873 28.1538C13.0058 28.109 13.0156 28.061 13.0163 28.0125C13.0166 27.9639 13.0067 27.9157 12.9873 27.8712C12.9688 27.8277 12.9423 27.788 12.9093 27.7542ZM31.9688 16.9872C31.9691 17.2912 31.9095 17.5923 31.7933 17.8732C31.6771 18.1542 31.5067 18.4094 31.2917 18.6244C31.0767 18.8393 30.8215 19.0098 30.5405 19.126C30.2596 19.2421 29.9585 19.3017 29.6545 19.3014H28.0711V25.757C28.0711 25.8539 28.0326 25.9468 27.964 26.0153C27.8955 26.0838 27.8026 26.1223 27.7057 26.1224H25.6351V27.7058C25.635 27.8027 25.5965 27.8956 25.528 27.9641C25.4595 28.0326 25.3666 28.0711 25.2697 28.0711H23.1991V30.629C23.199 30.7259 23.1605 30.8189 23.092 30.8874C23.0235 30.9559 22.9305 30.9944 22.8336 30.9944H5.29435C5.19745 30.9944 5.10453 30.9559 5.03601 30.8874C4.96749 30.8189 4.92897 30.7259 4.92893 30.629V19.3014H3.34555C2.73179 19.3014 2.14317 19.0576 1.70918 18.6236C1.27519 18.1896 1.03137 17.601 1.03137 16.9872C1.03137 16.3734 1.27519 15.7848 1.70918 15.3508C2.14317 14.9168 2.73179 14.673 3.34555 14.673H4.92893V7.73039C4.92896 7.63349 4.96747 7.54055 5.03599 7.47203C5.10451 7.40351 5.19745 7.365 5.29435 7.36497H7.36495V4.80711C7.36498 4.71021 7.40349 4.61729 7.47201 4.54878C7.54054 4.48027 7.63347 4.44179 7.73037 4.44179H10.2882V2.37109C10.2882 2.27417 10.3267 2.18123 10.3952 2.11269C10.4637 2.04416 10.5567 2.00564 10.6536 2.00562H27.7057C27.8026 2.00564 27.8955 2.04416 27.9641 2.11269C28.0326 2.18123 28.0711 2.27417 28.0711 2.37109V14.673H29.6545C30.268 14.6737 30.8563 14.9177 31.2901 15.3516C31.724 15.7854 31.9681 16.3736 31.9688 16.9872ZM4.92893 15.4038H3.34555C3.13685 15.4026 2.92998 15.4427 2.73683 15.5217C2.54367 15.6008 2.36805 15.7172 2.22006 15.8644C2.07206 16.0115 1.95462 16.1865 1.87448 16.3792C1.79434 16.5719 1.75308 16.7785 1.75308 16.9872C1.75308 17.1959 1.79434 17.4026 1.87448 17.5953C1.95462 17.788 2.07206 17.9629 2.22006 18.1101C2.36805 18.2572 2.54367 18.3737 2.73683 18.4527C2.92998 18.5317 3.13685 18.5718 3.34555 18.5706H4.92893V15.4038ZM22.4683 19.3014H16.3413C16.2565 19.8445 15.9804 20.3394 15.5629 20.6968C15.1453 21.0543 14.6137 21.2507 14.0641 21.2507C13.5144 21.2507 12.9828 21.0543 12.5652 20.6968C12.1477 20.3394 11.8716 19.8445 11.7868 19.3014H5.65973V30.2636H22.4683V19.3014ZM14.0641 20.5195C14.3772 20.5195 14.6834 20.4266 14.9437 20.2526C15.2041 20.0786 15.4071 19.8313 15.5269 19.542C15.6468 19.2526 15.6781 18.9343 15.617 18.6271C15.5559 18.32 15.4051 18.0378 15.1836 17.8164C14.9622 17.5949 14.68 17.4441 14.3729 17.383C14.0657 17.322 13.7474 17.3533 13.458 17.4732C13.1687 17.593 12.9214 17.796 12.7474 18.0564C12.5734 18.3167 12.4806 18.6229 12.4806 18.9361C12.4811 19.3559 12.6481 19.7583 12.9449 20.0552C13.2418 20.352 13.6442 20.519 14.0641 20.5195ZM22.4683 12.968H17.9617C17.8648 12.9679 17.7719 12.9294 17.7034 12.8609C17.6348 12.7924 17.5963 12.6995 17.5963 12.6026V8.09602H5.65957V18.5706H11.7868C11.8716 18.0275 12.1477 17.5326 12.5652 17.1752C12.9828 16.8178 13.5144 16.6213 14.0641 16.6213C14.6137 16.6213 15.1453 16.8178 15.5629 17.1752C15.9804 17.5326 16.2565 18.0275 16.3413 18.5706H22.4683V12.968ZM21.9516 12.2372L18.327 8.61258V12.2372H21.9516ZM24.9043 19.3014H23.1991V27.3404H24.9043V19.3014ZM24.9043 5.17243H8.09574V7.36497H17.9617C17.9695 7.36497 17.9765 7.36899 17.9843 7.36946C18.0165 7.37142 18.0483 7.37775 18.0789 7.38828C18.0904 7.39172 18.1017 7.39577 18.1128 7.40039C18.1526 7.41756 18.1889 7.44183 18.22 7.47201L23.0921 12.3441C23.1222 12.3752 23.1465 12.4115 23.1637 12.4512C23.1689 12.4623 23.1717 12.4737 23.1758 12.4853C23.1862 12.5157 23.1925 12.5475 23.1945 12.5796C23.195 12.5875 23.1991 12.5945 23.1991 12.6024V18.5706H24.9043V5.17243ZM27.3403 19.3014H25.6351V25.3915H27.3403V19.3014ZM27.3403 2.73657H11.0189V4.44179H25.2697C25.3666 4.44179 25.4595 4.48027 25.528 4.54878C25.5966 4.61729 25.6351 4.71021 25.6351 4.80711V18.5706H27.3403V2.73657ZM31.238 16.9872C31.2375 16.5674 31.0705 16.1649 30.7736 15.8681C30.4768 15.5713 30.0743 15.4043 29.6545 15.4038H28.0711V18.5706H29.6545C29.8625 18.571 30.0686 18.5303 30.2609 18.4509C30.4532 18.3714 30.6279 18.2548 30.775 18.1077C30.9221 17.9606 31.0387 17.7859 31.1182 17.5936C31.1976 17.4013 31.2383 17.1952 31.238 16.9872Z" fill="#634CC2"/>
</svg>
