<svg width="31" height="29" viewBox="0 0 31 29" fill="none" xmlns="http://www.w3.org/2000/svg">
<path d="M7.24662 25.8712C7.26618 25.9157 7.27622 25.9639 7.27611 26.0125C7.27599 26.0844 7.25465 26.1546 7.21478 26.2144C7.17491 26.2742 7.11827 26.3209 7.05197 26.3487C7.00741 26.3681 6.9593 26.3781 6.91069 26.378C6.86209 26.3777 6.81404 26.3678 6.76935 26.3487C6.72581 26.3302 6.68611 26.3038 6.65231 26.2707C6.58461 26.2017 6.54626 26.1092 6.54531 26.0125C6.54502 25.9639 6.55489 25.9157 6.57429 25.8712C6.59281 25.8277 6.61927 25.788 6.65231 25.7542C6.68487 25.7197 6.72491 25.6931 6.76935 25.6764C6.81397 25.6571 6.86206 25.6472 6.91066 25.6472C6.95926 25.6472 7.00735 25.6571 7.05197 25.6764C7.09563 25.6945 7.13531 25.721 7.16871 25.7544C7.20211 25.7878 7.22859 25.8275 7.24662 25.8712ZM9.41951 25.6764C9.37581 25.6571 9.32857 25.6472 9.28081 25.6472C9.23304 25.6472 9.18581 25.6571 9.14211 25.6764C9.09695 25.6917 9.05659 25.7185 9.02506 25.7542C8.98949 25.7872 8.96115 25.8271 8.94183 25.8716C8.92251 25.916 8.91262 25.964 8.91281 26.0125C8.9132 26.0611 8.92322 26.1091 8.9423 26.1538C8.96236 26.1975 8.99033 26.2371 9.0248 26.2707C9.05759 26.305 9.09756 26.3316 9.14185 26.3487C9.18471 26.3677 9.23103 26.3777 9.27792 26.378C9.32656 26.3782 9.37471 26.3682 9.41925 26.3487C9.46277 26.3302 9.50245 26.3037 9.53625 26.2707C9.5702 26.2368 9.59713 26.1965 9.61551 26.1522C9.63389 26.1079 9.64335 26.0604 9.64335 26.0125C9.64335 25.9645 9.63389 25.917 9.61551 25.8727C9.59713 25.8284 9.5702 25.7881 9.53625 25.7542C9.50377 25.7197 9.46384 25.6931 9.41951 25.6764ZM11.9093 25.7542C11.8393 25.6885 11.7469 25.652 11.6509 25.652C11.555 25.652 11.4626 25.6885 11.3926 25.7542C11.3241 25.8227 11.2856 25.9156 11.2855 26.0125C11.287 26.0605 11.2952 26.1081 11.3098 26.1538C11.3301 26.1975 11.3582 26.237 11.3926 26.2707C11.4264 26.3038 11.4661 26.3302 11.5096 26.3487C11.5542 26.3682 11.6023 26.3782 11.6509 26.378C11.7229 26.378 11.7932 26.3567 11.8531 26.3169C11.9129 26.277 11.9596 26.2202 11.9873 26.1538C12.0058 26.109 12.0156 26.061 12.0163 26.0125C12.0166 25.9639 12.0067 25.9157 11.9873 25.8712C11.9688 25.8277 11.9423 25.788 11.9093 25.7542ZM30.9688 14.9872C30.9691 15.2912 30.9095 15.5923 30.7933 15.8732C30.6771 16.1542 30.5067 16.4094 30.2917 16.6244C30.0767 16.8393 29.8215 17.0098 29.5405 17.126C29.2596 17.2421 28.9585 17.3017 28.6545 17.3014H27.0711V23.757C27.0711 23.8539 27.0326 23.9468 26.964 24.0153C26.8955 24.0838 26.8026 24.1223 26.7057 24.1224H24.6351V25.7058C24.635 25.8027 24.5965 25.8956 24.528 25.9641C24.4595 26.0326 24.3666 26.0711 24.2697 26.0711H22.1991V28.629C22.199 28.7259 22.1605 28.8189 22.092 28.8874C22.0235 28.9559 21.9305 28.9944 21.8336 28.9944H4.29435C4.19745 28.9944 4.10453 28.9559 4.03601 28.8874C3.96749 28.8189 3.92897 28.7259 3.92893 28.629V17.3014H2.34555C1.73179 17.3014 1.14317 17.0576 0.709179 16.6236C0.275186 16.1896 0.0313721 15.601 0.0313721 14.9872C0.0313721 14.3734 0.275186 13.7848 0.709179 13.3508C1.14317 12.9168 1.73179 12.673 2.34555 12.673H3.92893V5.73039C3.92896 5.63349 3.96747 5.54055 4.03599 5.47203C4.10451 5.40351 4.19745 5.365 4.29435 5.36497H6.36495V2.80711C6.36498 2.71021 6.40349 2.61729 6.47201 2.54878C6.54054 2.48027 6.63347 2.44179 6.73037 2.44179H9.28818V0.37109C9.2882 0.274173 9.3267 0.181229 9.39522 0.112694C9.46375 0.0441583 9.55669 0.00564258 9.65361 0.00561523H26.7057C26.8026 0.00564258 26.8955 0.0441583 26.9641 0.112694C27.0326 0.181229 27.0711 0.274173 27.0711 0.37109V12.673H28.6545C29.268 12.6737 29.8563 12.9177 30.2901 13.3516C30.724 13.7854 30.9681 14.3736 30.9688 14.9872ZM3.92893 13.4038H2.34555C2.13685 13.4026 1.92998 13.4427 1.73683 13.5217C1.54367 13.6008 1.36805 13.7172 1.22006 13.8644C1.07206 14.0115 0.954618 14.1865 0.874478 14.3792C0.794337 14.5719 0.75308 14.7785 0.75308 14.9872C0.75308 15.1959 0.794337 15.4026 0.874478 15.5953C0.954618 15.788 1.07206 15.9629 1.22006 16.1101C1.36805 16.2572 1.54367 16.3737 1.73683 16.4527C1.92998 16.5317 2.13685 16.5718 2.34555 16.5706H3.92893V13.4038ZM21.4683 17.3014H15.3413C15.2565 17.8445 14.9804 18.3394 14.5629 18.6968C14.1453 19.0543 13.6137 19.2507 13.0641 19.2507C12.5144 19.2507 11.9828 19.0543 11.5652 18.6968C11.1477 18.3394 10.8716 17.8445 10.7868 17.3014H4.65973V28.2636H21.4683V17.3014ZM13.0641 18.5195C13.3772 18.5195 13.6834 18.4266 13.9437 18.2526C14.2041 18.0786 14.4071 17.8313 14.5269 17.542C14.6468 17.2526 14.6781 16.9343 14.617 16.6271C14.5559 16.32 14.4051 16.0378 14.1836 15.8164C13.9622 15.5949 13.68 15.4441 13.3729 15.383C13.0657 15.322 12.7474 15.3533 12.458 15.4732C12.1687 15.593 11.9214 15.796 11.7474 16.0564C11.5734 16.3167 11.4806 16.6229 11.4806 16.9361C11.4811 17.3559 11.6481 17.7583 11.9449 18.0552C12.2418 18.352 12.6442 18.519 13.0641 18.5195ZM21.4683 10.968H16.9617C16.8648 10.9679 16.7719 10.9294 16.7034 10.8609C16.6348 10.7924 16.5963 10.6995 16.5963 10.6026V6.09602H4.65957V16.5706H10.7868C10.8716 16.0275 11.1477 15.5326 11.5652 15.1752C11.9828 14.8178 12.5144 14.6213 13.0641 14.6213C13.6137 14.6213 14.1453 14.8178 14.5629 15.1752C14.9804 15.5326 15.2565 16.0275 15.3413 16.5706H21.4683V10.968ZM20.9516 10.2372L17.327 6.61258V10.2372H20.9516ZM23.9043 17.3014H22.1991V25.3404H23.9043V17.3014ZM23.9043 3.17243H7.09574V5.36497H16.9617C16.9695 5.36497 16.9765 5.36899 16.9843 5.36946C17.0165 5.37142 17.0483 5.37775 17.0789 5.38828C17.0904 5.39172 17.1017 5.39577 17.1128 5.40039C17.1526 5.41756 17.1889 5.44183 17.22 5.47201L22.0921 10.3441C22.1222 10.3752 22.1465 10.4115 22.1637 10.4512C22.1689 10.4623 22.1717 10.4737 22.1758 10.4853C22.1862 10.5157 22.1925 10.5475 22.1945 10.5796C22.195 10.5875 22.1991 10.5945 22.1991 10.6024V16.5706H23.9043V3.17243ZM26.3403 17.3014H24.6351V23.3915H26.3403V17.3014ZM26.3403 0.736565H10.0189V2.44179H24.2697C24.3666 2.44179 24.4595 2.48027 24.528 2.54878C24.5966 2.61729 24.6351 2.71021 24.6351 2.80711V16.5706H26.3403V0.736565ZM30.238 14.9872C30.2375 14.5674 30.0705 14.1649 29.7736 13.8681C29.4768 13.5713 29.0743 13.4043 28.6545 13.4038H27.0711V16.5706H28.6545C28.8625 16.571 29.0686 16.5303 29.2609 16.4509C29.4532 16.3714 29.6279 16.2548 29.775 16.1077C29.9221 15.9606 30.0387 15.7859 30.1182 15.5936C30.1976 15.4013 30.2383 15.1952 30.238 14.9872Z" fill="#634CC2"/>
</svg>
