<svg width="31" height="31" viewBox="0 0 31 31" fill="none" xmlns="http://www.w3.org/2000/svg">
<path d="M24.3059 5.02034C24.3135 5.02758 24.3193 5.03663 24.3225 5.04665C24.3258 5.05668 24.3265 5.06737 24.3245 5.07773L24.0793 6.48059C24.0433 6.6826 24.0648 6.89068 24.1415 7.08101C24.2182 7.27134 24.3469 7.43625 24.5129 7.55687C24.6789 7.67749 24.8755 7.74894 25.0802 7.76307C25.2849 7.77719 25.4895 7.73341 25.6705 7.63673L26.9293 6.96956C26.9386 6.96492 26.9489 6.96254 26.9593 6.96262C26.9697 6.9627 26.98 6.96524 26.9892 6.97003L28.2471 7.63621C28.4281 7.73239 28.6325 7.7758 28.837 7.7615C29.0415 7.7472 29.2379 7.67577 29.4037 7.55534C29.5696 7.4349 29.6983 7.27031 29.7752 7.0803C29.8522 6.89029 29.8742 6.6825 29.8388 6.48059L29.593 5.07722C29.5913 5.06701 29.5922 5.05655 29.5954 5.04673C29.5987 5.03691 29.6042 5.02803 29.6117 5.02086L30.6344 4.0304C30.7816 3.88785 30.8859 3.70685 30.9354 3.50798C30.9849 3.30911 30.9776 3.10034 30.9143 2.90542C30.851 2.71049 30.7344 2.53723 30.5775 2.40532C30.4207 2.27341 30.23 2.18816 30.0271 2.15924L28.6175 1.95934C28.607 1.95795 28.5971 1.95401 28.5886 1.94785C28.5801 1.9417 28.5732 1.93352 28.5686 1.92407L27.9425 0.644853C27.8531 0.460316 27.7135 0.304793 27.5395 0.196226C27.3656 0.0876588 27.1646 0.0304708 26.9595 0.0312596H26.959C26.7539 0.0303961 26.5526 0.0875422 26.3785 0.196107C26.2044 0.304673 26.0646 0.460235 25.9751 0.644853L25.3492 1.9236C25.3447 1.93298 25.3379 1.94109 25.3294 1.94724C25.321 1.95338 25.3112 1.95738 25.3009 1.95887L23.8909 2.15878C23.688 2.1876 23.4972 2.2728 23.3403 2.40467C23.1834 2.53655 23.0667 2.70981 23.0033 2.90476C22.94 3.0997 22.9327 3.3085 22.9821 3.50741C23.0316 3.70632 23.1359 3.88736 23.2832 4.02993L24.3059 5.02034ZM24.036 3.18039L25.4464 2.98063C25.6233 2.95535 25.7914 2.88715 25.936 2.782C26.0805 2.67685 26.1972 2.53793 26.2757 2.37735L26.9016 1.0986C26.9062 1.0873 26.9142 1.07772 26.9245 1.07124C26.9348 1.06476 26.9469 1.0617 26.959 1.06251C26.971 1.06163 26.9829 1.06457 26.9931 1.07091C27.0033 1.07725 27.0112 1.08665 27.0157 1.09778V1.09824L27.6417 2.37627C27.7201 2.53719 27.8367 2.67643 27.9815 2.78177C28.1262 2.88711 28.2946 2.95534 28.4718 2.98048L29.8812 3.18039C29.893 3.18202 29.9042 3.18694 29.9133 3.19459C29.9225 3.20223 29.9293 3.2123 29.933 3.22363C29.9368 3.23497 29.9372 3.24713 29.9344 3.25871C29.9315 3.2703 29.9255 3.28086 29.9169 3.28918L28.8942 4.28001C28.7658 4.4043 28.6698 4.55813 28.6146 4.72807C28.5594 4.89801 28.5466 5.07889 28.5774 5.2549L28.8226 6.65776C28.8256 6.66956 28.8248 6.68201 28.8203 6.69331C28.8158 6.70462 28.8078 6.71419 28.7975 6.72067C28.7882 6.72857 28.7766 6.73328 28.7645 6.7341C28.7523 6.73492 28.7402 6.7318 28.73 6.72521L27.4722 6.05892C27.3143 5.9749 27.1382 5.93096 26.9594 5.93096C26.7806 5.93096 26.6045 5.9749 26.4467 6.05892L25.1878 6.72557C25.1777 6.73211 25.1656 6.7352 25.1536 6.73438C25.1415 6.73356 25.13 6.72888 25.1208 6.72103C25.1105 6.71455 25.1025 6.70498 25.098 6.69367C25.0935 6.68237 25.0926 6.66992 25.0956 6.65812L25.3409 5.25624C25.3718 5.07997 25.359 4.89881 25.3037 4.72862C25.2484 4.55842 25.1522 4.40436 25.0236 4.27991L24.0003 3.28918C23.9917 3.28084 23.9857 3.27029 23.9829 3.25871C23.9801 3.24713 23.9806 3.235 23.9843 3.22367C23.988 3.21235 23.9948 3.2023 24.004 3.19465C24.0131 3.187 24.0242 3.18206 24.036 3.18039Z" fill="#634CC2"/>
<path d="M21.1719 0.0312805H0.546875C0.410123 0.0312805 0.278971 0.0856051 0.182273 0.182304C0.0855746 0.279002 0.03125 0.410153 0.03125 0.546906V8.79691C0.0312559 8.88722 0.054982 8.97594 0.100054 9.0542C0.145125 9.13246 0.209962 9.19751 0.288074 9.24284C0.366186 9.28817 0.454833 9.31219 0.545144 9.31249C0.635455 9.3128 0.724262 9.28938 0.802677 9.24457L4.2932 7.25003H21.1719C21.3086 7.25003 21.4398 7.19571 21.5365 7.09901C21.6332 7.00231 21.6875 6.87116 21.6875 6.73441V0.546906C21.6875 0.410153 21.6332 0.279002 21.5365 0.182304C21.4398 0.0856051 21.3086 0.0312805 21.1719 0.0312805ZM20.6562 6.21878H4.15625C4.06654 6.21893 3.9784 6.24235 3.90045 6.28674L1.0625 7.90817V1.06253H20.6562V6.21878Z" fill="#634CC2"/>
<path d="M5.70312 4.15625H16.0156C16.1524 4.15625 16.2835 4.10193 16.3802 4.00523C16.4769 3.90853 16.5312 3.77738 16.5312 3.64062C16.5312 3.50387 16.4769 3.37272 16.3802 3.27602C16.2835 3.17932 16.1524 3.125 16.0156 3.125H5.70312C5.56637 3.125 5.43522 3.17932 5.33852 3.27602C5.24182 3.37272 5.1875 3.50387 5.1875 3.64062C5.1875 3.77738 5.24182 3.90853 5.33852 4.00523C5.43522 4.10193 5.56637 4.15625 5.70312 4.15625Z" fill="#634CC2"/>
<path d="M30.0271 12.9874L28.6175 12.7875C28.607 12.7861 28.5971 12.7821 28.5886 12.776C28.5801 12.7698 28.5732 12.7616 28.5686 12.7522L27.9423 11.4734C27.853 11.2889 27.7134 11.1333 27.5395 11.0246C27.3656 10.916 27.1646 10.8587 26.9595 10.8594H26.959C26.7539 10.8585 26.5526 10.9157 26.3785 11.0242C26.2044 11.1328 26.0646 11.2884 25.9751 11.473L25.3492 12.7517C25.3447 12.7611 25.3379 12.7692 25.3294 12.7754C25.321 12.7815 25.3112 12.7855 25.3009 12.787L23.8909 12.9869C23.688 13.0157 23.4972 13.1009 23.3403 13.2328C23.1834 13.3647 23.0667 13.5379 23.0033 13.7329C22.94 13.9278 22.9327 14.1366 22.9821 14.3355C23.0316 14.5344 23.1359 14.7155 23.2832 14.8581L24.3059 15.8481C24.3135 15.8553 24.3193 15.8643 24.3225 15.8744C24.3258 15.8844 24.3265 15.8951 24.3245 15.9054L24.0793 17.3083C24.0432 17.5103 24.0647 17.7185 24.1413 17.9089C24.2179 18.0993 24.3466 18.2643 24.5127 18.3849C24.6787 18.5056 24.8753 18.5771 25.0801 18.5912C25.2848 18.6054 25.4894 18.5616 25.6705 18.4649L26.9293 17.7977C26.9386 17.793 26.9489 17.7907 26.9593 17.7907C26.9697 17.7908 26.98 17.7934 26.9892 17.7982L28.2471 18.4643C28.4281 18.5605 28.6325 18.6039 28.837 18.5896C29.0415 18.5753 29.2379 18.5039 29.4037 18.3835C29.5696 18.263 29.6983 18.0984 29.7752 17.9084C29.8522 17.7184 29.8742 17.5106 29.8388 17.3087L29.593 15.9053C29.5913 15.8951 29.5922 15.8847 29.5954 15.8749C29.5987 15.865 29.6042 15.8562 29.6117 15.849L30.6344 14.8585C30.7816 14.716 30.8859 14.535 30.9354 14.3361C30.9849 14.1372 30.9776 13.9285 30.9143 13.7335C30.851 13.5386 30.7344 13.3654 30.5775 13.2334C30.4207 13.1015 30.23 13.0163 30.0271 12.9874ZM29.9173 14.1173L28.8942 15.1081C28.7658 15.2324 28.6698 15.3863 28.6146 15.5562C28.5594 15.7261 28.5466 15.907 28.5774 16.083L28.8226 17.4859C28.8256 17.4977 28.8248 17.5101 28.8203 17.5214C28.8158 17.5327 28.8078 17.5423 28.7975 17.5488C28.7882 17.5567 28.7766 17.5614 28.7645 17.5622C28.7523 17.563 28.7402 17.5599 28.73 17.5533L27.4722 16.887C27.3143 16.803 27.1382 16.7591 26.9594 16.7591C26.7806 16.7591 26.6045 16.803 26.4467 16.887L25.1878 17.5537C25.1777 17.5602 25.1656 17.5633 25.1536 17.5625C25.1415 17.5617 25.13 17.557 25.1208 17.5492C25.1105 17.5427 25.1025 17.5331 25.098 17.5218C25.0935 17.5105 25.0926 17.498 25.0956 17.4862L25.3409 16.0844C25.3718 15.9081 25.359 15.7269 25.3037 15.5567C25.2484 15.3865 25.1522 15.2325 25.0236 15.108L24.0005 14.1176C23.992 14.1092 23.9859 14.0987 23.9831 14.0871C23.9803 14.0755 23.9808 14.0634 23.9845 14.0521C23.9882 14.0407 23.995 14.0307 24.0042 14.023C24.0133 14.0154 24.0244 14.0104 24.0362 14.0088L25.4464 13.8088C25.6233 13.7835 25.7914 13.7153 25.936 13.6101C26.0805 13.505 26.1972 13.3661 26.2757 13.2055L26.9016 11.9265C26.9062 11.9152 26.9142 11.9057 26.9245 11.8993C26.9348 11.8928 26.9469 11.8898 26.959 11.8906C26.971 11.8898 26.9829 11.8927 26.9931 11.899C27.0033 11.9054 27.0112 11.9148 27.0157 11.9259V11.9264L27.6417 13.2044C27.7201 13.3653 27.8367 13.5046 27.9815 13.6099C28.1262 13.7152 28.2946 13.7835 28.4718 13.8086L29.8812 14.0085C29.893 14.0101 29.9042 14.0151 29.9133 14.0227C29.9225 14.0304 29.9293 14.0404 29.933 14.0518C29.9368 14.0631 29.9372 14.0753 29.9344 14.0868C29.9315 14.0984 29.9255 14.109 29.9169 14.1173H29.9173Z" fill="#634CC2"/>
<path d="M21.1719 10.8594H0.546875C0.410123 10.8594 0.278971 10.9137 0.182273 11.0104C0.0855746 11.1071 0.03125 11.2382 0.03125 11.375V19.625C0.0312559 19.7153 0.054982 19.804 0.100054 19.8823C0.145125 19.9606 0.209962 20.0256 0.288074 20.0709C0.366186 20.1163 0.454833 20.1403 0.545144 20.1406C0.635455 20.1409 0.724262 20.1175 0.802677 20.0727L4.2932 18.0781H21.1719C21.3086 18.0781 21.4398 18.0238 21.5365 17.9271C21.6332 17.8304 21.6875 17.6993 21.6875 17.5625V11.375C21.6875 11.2382 21.6332 11.1071 21.5365 11.0104C21.4398 10.9137 21.3086 10.8594 21.1719 10.8594ZM20.6562 17.0469H4.15625C4.06654 17.047 3.9784 17.0704 3.90045 17.1148L1.0625 18.7363V11.8906H20.6562V17.0469Z" fill="#634CC2"/>
<path d="M5.70312 14.9844H16.0156C16.1524 14.9844 16.2835 14.93 16.3802 14.8334C16.4769 14.7367 16.5312 14.6055 16.5312 14.4687C16.5312 14.332 16.4769 14.2008 16.3802 14.1041C16.2835 14.0074 16.1524 13.9531 16.0156 13.9531H5.70312C5.56637 13.9531 5.43522 14.0074 5.33852 14.1041C5.24182 14.2008 5.1875 14.332 5.1875 14.4687C5.1875 14.6055 5.24182 14.7367 5.33852 14.8334C5.43522 14.93 5.56637 14.9844 5.70312 14.9844Z" fill="#634CC2"/>
<path d="M30.0271 23.8155L28.6175 23.6156C28.607 23.6142 28.5971 23.6103 28.5886 23.6041C28.5801 23.5979 28.5732 23.5898 28.5686 23.5803L27.9425 22.3011C27.8531 22.1166 27.7135 21.961 27.5395 21.8525C27.3656 21.7439 27.1646 21.6867 26.9595 21.6875H26.959C26.7539 21.6866 26.5526 21.7438 26.3785 21.8524C26.2044 21.9609 26.0646 22.1165 25.9751 22.3011L25.3492 23.5801C25.3447 23.5895 25.3379 23.5976 25.3294 23.6037C25.321 23.6099 25.3112 23.6139 25.3009 23.6154L23.8909 23.8153C23.688 23.8441 23.4972 23.9293 23.3403 24.0612C23.1834 24.1931 23.0667 24.3663 23.0033 24.5613C22.94 24.7562 22.9327 24.965 22.9821 25.1639C23.0316 25.3628 23.1359 25.5439 23.2832 25.6864L24.3059 26.6764C24.3135 26.6837 24.3193 26.6927 24.3225 26.7027C24.3258 26.7128 24.3265 26.7235 24.3245 26.7338L24.0793 28.1367C24.0432 28.3387 24.0648 28.5468 24.1414 28.7372C24.2181 28.9275 24.3468 29.0925 24.5128 29.2131C24.6788 29.3337 24.8754 29.4052 25.0802 29.4193C25.2849 29.4335 25.4895 29.3897 25.6705 29.293L26.9293 28.6258C26.9386 28.6212 26.9489 28.6188 26.9593 28.6189C26.9697 28.619 26.98 28.6215 26.9892 28.6263L28.2471 29.2925C28.4281 29.3886 28.6325 29.432 28.837 29.4178C29.0415 29.4035 29.2379 29.332 29.4037 29.2116C29.5696 29.0912 29.6983 28.9266 29.7752 28.7366C29.8522 28.5465 29.8742 28.3388 29.8388 28.1368L29.593 26.7335C29.5913 26.7233 29.5922 26.7128 29.5954 26.703C29.5987 26.6932 29.6042 26.6843 29.6117 26.6771L30.6344 25.6866C30.7816 25.5441 30.8859 25.3631 30.9354 25.1642C30.9849 24.9654 30.9776 24.7566 30.9143 24.5617C30.851 24.3667 30.7344 24.1935 30.5775 24.0616C30.4207 23.9297 30.23 23.8444 30.0271 23.8155ZM29.9173 24.9454L28.8942 25.9363C28.7658 26.0605 28.6698 26.2144 28.6146 26.3843C28.5594 26.5543 28.5466 26.7351 28.5774 26.9112L28.8226 28.314C28.8256 28.3258 28.8248 28.3383 28.8203 28.3496C28.8158 28.3609 28.8078 28.3704 28.7975 28.3769C28.7882 28.3848 28.7766 28.3895 28.7645 28.3904C28.7523 28.3912 28.7402 28.388 28.73 28.3815L27.4722 27.7152C27.3143 27.6312 27.1382 27.5872 26.9594 27.5872C26.7806 27.5872 26.6045 27.6312 26.4467 27.7152L25.1878 28.3818C25.1777 28.3884 25.1656 28.3914 25.1536 28.3906C25.1415 28.3898 25.13 28.3851 25.1208 28.3773C25.1105 28.3708 25.1025 28.3612 25.098 28.3499C25.0935 28.3386 25.0926 28.3262 25.0956 28.3144L25.3409 26.9125C25.3718 26.7362 25.359 26.5551 25.3037 26.3849C25.2484 26.2147 25.1522 26.0606 25.0236 25.9362L24.0005 24.9457C23.992 24.9374 23.9859 24.9268 23.9831 24.9152C23.9803 24.9036 23.9808 24.8915 23.9845 24.8802C23.9882 24.8689 23.995 24.8588 24.0042 24.8512C24.0133 24.8435 24.0244 24.8386 24.0362 24.8369L25.4464 24.6369C25.6233 24.6116 25.7914 24.5434 25.936 24.4383C26.0805 24.3331 26.1972 24.1942 26.2757 24.0336L26.9016 22.7549C26.9062 22.7436 26.9142 22.734 26.9245 22.7275C26.9348 22.721 26.9469 22.7179 26.959 22.7188C26.971 22.7179 26.9829 22.7208 26.9931 22.7272C27.0033 22.7335 27.0112 22.7429 27.0157 22.754V22.7545L27.6417 24.0325C27.7201 24.1934 27.8367 24.3327 27.9815 24.438C28.1262 24.5434 28.2946 24.6116 28.4718 24.6367L29.8812 24.8366C29.893 24.8383 29.9042 24.8432 29.9133 24.8508C29.9225 24.8585 29.9293 24.8685 29.933 24.8799C29.9368 24.8912 29.9372 24.9034 29.9344 24.915C29.9315 24.9266 29.9255 24.9371 29.9169 24.9454H29.9173Z" fill="#634CC2"/>
<path d="M21.1719 21.6875H0.546875C0.410123 21.6875 0.278971 21.7418 0.182273 21.8385C0.0855746 21.9352 0.03125 22.0664 0.03125 22.2031V30.4531C0.0312559 30.5434 0.054982 30.6322 0.100054 30.7104C0.145125 30.7887 0.209962 30.8537 0.288074 30.8991C0.366186 30.9444 0.454833 30.9684 0.545144 30.9687C0.635455 30.969 0.724262 30.9456 0.802677 30.9008L4.2932 28.9062H21.1719C21.3086 28.9062 21.4398 28.8519 21.5365 28.7552C21.6332 28.6585 21.6875 28.5274 21.6875 28.3906V22.2031C21.6875 22.0664 21.6332 21.9352 21.5365 21.8385C21.4398 21.7418 21.3086 21.6875 21.1719 21.6875ZM20.6562 27.875H4.15625C4.06654 27.8752 3.9784 27.8986 3.90045 27.943L1.0625 29.5644V22.7188H20.6562V27.875Z" fill="#634CC2"/>
<path d="M5.70312 25.8125H16.0156C16.1524 25.8125 16.2835 25.7582 16.3802 25.6615C16.4769 25.5648 16.5312 25.4336 16.5312 25.2969C16.5312 25.1601 16.4769 25.029 16.3802 24.9323C16.2835 24.8356 16.1524 24.7812 16.0156 24.7812H5.70312C5.56637 24.7812 5.43522 24.8356 5.33852 24.9323C5.24182 25.029 5.1875 25.1601 5.1875 25.2969C5.1875 25.4336 5.24182 25.5648 5.33852 25.6615C5.43522 25.7582 5.56637 25.8125 5.70312 25.8125Z" fill="#634CC2"/>
</svg>
