<svg width="27" height="29" viewBox="0 0 27 29" fill="none" xmlns="http://www.w3.org/2000/svg">
<path d="M2.27747 10.6302C2.06945 10.1315 2.03081 9.69698 2.09905 9.24106C1.76975 9.02893 1.5235 8.70374 1.37139 8.32675C1.21475 7.93455 1.15062 7.47493 1.27272 7.01654C1.39729 6.55609 1.72001 6.13142 2.18744 5.88352L3.57001 5.14681L2.44603 5.1061C1.32657 5.10364 0.390474 4.32294 0.281119 3.31859C0.129419 1.92246 1.29862 1.01185 2.3264 0.982661L12.2058 0.705983C13.0601 0.665694 13.7475 0.635272 14.6791 0.881527L19.6403 2.19421C21.4262 2.66698 22.1905 2.00345 23.2133 2.01208C24.6481 2.02483 25.5258 3.11674 26.117 4.26867C27.0058 6.00726 27.0186 8.20835 25.5669 9.21228C24.1946 10.1636 22.7303 11.3776 21.0488 11.6662C19.0895 12.0066 17.5157 11.9104 15.8972 11.0837L11.9916 11.7776L9.15865 13.0007C8.24023 13.3941 7.25068 12.9213 6.95551 12.0732C6.68171 11.2765 6.86794 10.6857 7.30084 10.1138L4.37332 11.5684C3.94124 11.7846 3.45942 11.7418 3.09353 11.5408C2.72723 11.3369 2.43822 11.0179 2.27747 10.6302ZM3.8915 10.393L7.4139 8.64577L10.5959 8.37608L9.9706 8.05706C9.69844 7.92016 9.46945 7.74256 9.27911 7.54153L6.86383 7.67637L3.39487 9.31424C2.85097 9.57077 3.27319 10.7013 3.8915 10.393ZM3.05653 8.06939L6.60072 6.41673L8.65792 6.28188C8.58556 5.88557 8.66655 5.61547 8.79523 5.33715L6.0819 5.23684L2.69681 7.04367C2.09946 7.36269 2.47029 8.34196 3.05653 8.06939ZM2.46371 3.81522L10.5318 4.14698L15.2098 5.38895L17.8434 5.20436C18.3573 5.16818 18.5628 5.90859 18.0255 6.03111L15.167 6.67943L10.6255 5.45062C9.81355 5.23232 9.68775 6.49155 10.4611 6.88498L16.9529 10.1977C17.8586 10.6602 19.3065 10.7161 20.8305 10.3987C22.3578 10.0797 23.7469 9.00138 24.9544 8.11462C26.0578 7.30719 25.5904 5.94313 25.1196 4.93919C24.6843 4.00145 24.0639 3.30503 23.2133 3.30503C22.4063 3.30297 21.3119 4.04832 19.3271 3.43782L14.409 2.13788C13.6102 1.92781 13.109 1.95124 12.2572 1.99399C12.2572 1.99399 5.69627 2.10582 2.38025 2.27273C1.21105 2.33357 1.23449 3.76588 2.46371 3.81522ZM8.90417 11.7928L11.6833 10.5344C11.7219 10.5167 14.0007 10.1147 14.0007 10.1147L12.774 9.48691L10.4631 9.68218L8.5128 10.7227C7.66837 11.1704 8.30066 12.067 8.90417 11.7928Z" fill="#634CC2"/>
<path d="M6.98761 23.5465C7.81846 24.18 8.82322 24.6125 9.6623 24.8226C10.8081 25.1054 12.1417 25.2485 13.491 25.2509C15.602 25.253 18.6323 24.8892 20.3898 23.5469C21.1455 23.9839 20.9296 25.0158 20.4437 25.3817C18.9662 26.4247 16.3815 27.0343 13.7006 27.0027C13.6965 27.0027 13.6904 27.0027 13.6863 27.0027C11.0054 27.0343 8.40142 26.4502 6.94321 25.3817C6.22335 24.8526 6.2731 24.0172 6.98761 23.5465ZM13.6941 17.1763C16.6643 17.1763 19.0451 19.5825 19.2375 22.6363C18.2056 23.3771 15.8676 23.9362 13.4971 23.9251C12.2359 23.9206 10.9877 23.7857 9.97927 23.5378C9.0814 23.3171 8.49927 22.9812 8.14365 22.677C8.31755 19.6027 10.7094 17.1763 13.6941 17.1763ZM12.4862 13.6605C12.0155 13.6605 11.6369 14.0391 11.6369 14.4955C11.6369 14.9493 11.8506 15.1635 12.1138 15.1635H13.0605V15.883C9.76302 16.1913 7.13808 18.8878 6.79521 22.2576C6.60486 22.2835 6.42521 22.3395 6.26693 22.4225C5.8365 22.6519 5.51542 23.0289 5.3074 23.4762C5.09773 23.9235 5.0077 24.4612 5.13391 25.0072C5.25847 25.5511 5.61573 26.0822 6.18512 26.4633C8.03759 27.7805 10.8229 28.3606 13.6945 28.3265C16.5657 28.3606 19.3497 27.7805 21.2022 26.4633C21.7716 26.0826 22.1288 25.5511 22.2559 25.0072C22.3796 24.4612 22.2896 23.9235 22.0824 23.4762C21.8719 23.0289 21.5533 22.6519 21.1204 22.4225C20.9646 22.3395 20.7849 22.2835 20.5937 22.2597C20.2517 18.8874 17.6259 16.1913 14.3292 15.883V15.1635H15.2736C15.5387 15.1635 15.7504 14.9493 15.7504 14.4955C15.7504 14.0395 15.3714 13.6605 14.9011 13.6605H12.4862Z" fill="#634CC2"/>
</svg>
