<svg width="37" height="47" viewBox="0 0 37 47" fill="none" xmlns="http://www.w3.org/2000/svg">
<path d="M7.27747 14.6302C7.06945 14.1315 7.03081 13.697 7.09905 13.2411C6.76975 13.0289 6.5235 12.7037 6.37139 12.3267C6.21475 11.9345 6.15062 11.4749 6.27272 11.0165C6.39729 10.5561 6.72001 10.1314 7.18744 9.88352L8.57001 9.14681L7.44603 9.1061C6.32657 9.10364 5.39047 8.32294 5.28112 7.31859C5.12942 5.92246 6.29862 5.01185 7.3264 4.98266L17.2058 4.70598C18.0601 4.66569 18.7475 4.63527 19.6791 4.88153L24.6403 6.19421C26.4262 6.66698 27.1905 6.00345 28.2133 6.01208C29.6481 6.02483 30.5258 7.11674 31.117 8.26867C32.0058 10.0073 32.0186 12.2083 30.5669 13.2123C29.1946 14.1636 27.7303 15.3776 26.0488 15.6662C24.0895 16.0066 22.5157 15.9104 20.8972 15.0837L16.9916 15.7776L14.1587 17.0007C13.2402 17.3941 12.2507 16.9213 11.9555 16.0732C11.6817 15.2765 11.8679 14.6857 12.3008 14.1138L9.37332 15.5684C8.94124 15.7846 8.45942 15.7418 8.09353 15.5408C7.72723 15.3369 7.43822 15.0179 7.27747 14.6302ZM8.8915 14.393L12.4139 12.6458L15.5959 12.3761L14.9706 12.0571C14.6984 11.9202 14.4695 11.7426 14.2791 11.5415L11.8638 11.6764L8.39487 13.3142C7.85097 13.5708 8.27319 14.7013 8.8915 14.393ZM8.05653 12.0694L11.6007 10.4167L13.6579 10.2819C13.5856 9.88557 13.6666 9.61547 13.7952 9.33715L11.0819 9.23684L7.69681 11.0437C7.09946 11.3627 7.47029 12.342 8.05653 12.0694ZM7.46371 7.81522L15.5318 8.14698L20.2098 9.38895L22.8434 9.20436C23.3573 9.16818 23.5628 9.90859 23.0255 10.0311L20.167 10.6794L15.6255 9.45062C14.8136 9.23232 14.6878 10.4915 15.4611 10.885L21.9529 14.1977C22.8586 14.6602 24.3065 14.7161 25.8305 14.3987C27.3578 14.0797 28.7469 13.0014 29.9544 12.1146C31.0578 11.3072 30.5904 9.94313 30.1196 8.93919C29.6843 8.00145 29.0639 7.30503 28.2133 7.30503C27.4063 7.30297 26.3119 8.04832 24.3271 7.43782L19.409 6.13788C18.6102 5.92781 18.109 5.95124 17.2572 5.99399C17.2572 5.99399 10.6963 6.10582 7.38025 6.27273C6.21105 6.33357 6.23449 7.76588 7.46371 7.81522ZM13.9042 15.7928L16.6833 14.5344C16.7219 14.5167 19.0007 14.1147 19.0007 14.1147L17.774 13.4869L15.4631 13.6822L13.5128 14.7227C12.6684 15.1704 13.3007 16.067 13.9042 15.7928Z" fill="#634CC2"/>
<path d="M11.9876 27.5465C12.8185 28.18 13.8232 28.6125 14.6623 28.8226C15.8081 29.1054 17.1417 29.2485 18.491 29.2509C20.602 29.253 23.6323 28.8892 25.3898 27.5469C26.1455 27.9839 25.9296 29.0158 25.4437 29.3817C23.9662 30.4247 21.3815 31.0343 18.7006 31.0027C18.6965 31.0027 18.6904 31.0027 18.6863 31.0027C16.0054 31.0343 13.4014 30.4502 11.9432 29.3817C11.2234 28.8526 11.2731 28.0172 11.9876 27.5465ZM18.6941 21.1763C21.6643 21.1763 24.0451 23.5825 24.2375 26.6363C23.2056 27.3771 20.8676 27.9362 18.4971 27.9251C17.2359 27.9206 15.9877 27.7857 14.9793 27.5378C14.0814 27.3171 13.4993 26.9812 13.1437 26.677C13.3176 23.6027 15.7094 21.1763 18.6941 21.1763ZM17.4862 17.6605C17.0155 17.6605 16.6369 18.0391 16.6369 18.4955C16.6369 18.9493 16.8506 19.1635 17.1138 19.1635H18.0605V19.883C14.763 20.1913 12.1381 22.8878 11.7952 26.2576C11.6049 26.2835 11.4252 26.3395 11.2669 26.4225C10.8365 26.6519 10.5154 27.0289 10.3074 27.4762C10.0977 27.9235 10.0077 28.4612 10.1339 29.0072C10.2585 29.5511 10.6157 30.0822 11.1851 30.4633C13.0376 31.7805 15.8229 32.3606 18.6945 32.3265C21.5657 32.3606 24.3497 31.7805 26.2022 30.4633C26.7716 30.0826 27.1288 29.5511 27.2559 29.0072C27.3796 28.4612 27.2896 27.9235 27.0824 27.4762C26.8719 27.0289 26.5533 26.6519 26.1204 26.4225C25.9646 26.3395 25.7849 26.2835 25.5937 26.2597C25.2517 22.8874 22.6259 20.1913 19.3292 19.883V19.1635H20.2736C20.5387 19.1635 20.7504 18.9493 20.7504 18.4955C20.7504 18.0395 20.3714 17.6605 19.9011 17.6605H17.4862Z" fill="#634CC2"/>
</svg>
