<svg width="33" height="42" viewBox="0 0 33 42" fill="none" xmlns="http://www.w3.org/2000/svg">
<path d="M25.3059 6.02034C25.3135 6.02758 25.3193 6.03663 25.3225 6.04665C25.3258 6.05668 25.3265 6.06737 25.3245 6.07773L25.0793 7.48059C25.0433 7.6826 25.0648 7.89068 25.1415 8.08101C25.2182 8.27134 25.3469 8.43625 25.5129 8.55687C25.6789 8.67749 25.8755 8.74894 26.0802 8.76307C26.2849 8.77719 26.4895 8.73341 26.6705 8.63673L27.9293 7.96956C27.9386 7.96492 27.9489 7.96254 27.9593 7.96262C27.9697 7.9627 27.98 7.96524 27.9892 7.97003L29.2471 8.63621C29.4281 8.73239 29.6325 8.7758 29.837 8.7615C30.0415 8.7472 30.2379 8.67577 30.4037 8.55534C30.5696 8.4349 30.6983 8.27031 30.7752 8.0803C30.8522 7.89029 30.8742 7.6825 30.8388 7.48059L30.593 6.07722C30.5913 6.06701 30.5922 6.05655 30.5954 6.04673C30.5987 6.03691 30.6042 6.02803 30.6117 6.02086L31.6344 5.0304C31.7816 4.88785 31.8859 4.70685 31.9354 4.50798C31.9849 4.30911 31.9776 4.10034 31.9143 3.90542C31.851 3.71049 31.7344 3.53723 31.5775 3.40532C31.4207 3.27341 31.23 3.18816 31.0271 3.15924L29.6175 2.95934C29.607 2.95795 29.5971 2.95401 29.5886 2.94785C29.5801 2.9417 29.5732 2.93352 29.5686 2.92407L28.9425 1.64485C28.8531 1.46032 28.7135 1.30479 28.5395 1.19623C28.3656 1.08766 28.1646 1.03047 27.9595 1.03126H27.959C27.7539 1.0304 27.5526 1.08754 27.3785 1.19611C27.2044 1.30467 27.0646 1.46023 26.9751 1.64485L26.3492 2.9236C26.3447 2.93298 26.3379 2.94109 26.3294 2.94724C26.321 2.95338 26.3112 2.95738 26.3009 2.95887L24.8909 3.15878C24.688 3.1876 24.4972 3.2728 24.3403 3.40467C24.1834 3.53655 24.0667 3.70981 24.0033 3.90476C23.94 4.0997 23.9327 4.3085 23.9821 4.50741C24.0316 4.70632 24.1359 4.88736 24.2832 5.02993L25.3059 6.02034ZM25.036 4.18039L26.4464 3.98063C26.6233 3.95535 26.7914 3.88715 26.936 3.782C27.0805 3.67685 27.1972 3.53793 27.2757 3.37735L27.9016 2.0986C27.9062 2.0873 27.9142 2.07772 27.9245 2.07124C27.9348 2.06476 27.9469 2.0617 27.959 2.06251C27.971 2.06163 27.9829 2.06457 27.9931 2.07091C28.0033 2.07725 28.0112 2.08665 28.0157 2.09778V2.09824L28.6417 3.37627C28.7201 3.53719 28.8367 3.67643 28.9815 3.78177C29.1262 3.88711 29.2946 3.95534 29.4718 3.98048L30.8812 4.18039C30.893 4.18202 30.9042 4.18694 30.9133 4.19459C30.9225 4.20223 30.9293 4.2123 30.933 4.22363C30.9368 4.23497 30.9372 4.24713 30.9344 4.25871C30.9315 4.2703 30.9255 4.28086 30.9169 4.28918L29.8942 5.28001C29.7658 5.4043 29.6698 5.55813 29.6146 5.72807C29.5594 5.89801 29.5466 6.07889 29.5774 6.2549L29.8226 7.65776C29.8256 7.66956 29.8248 7.68201 29.8203 7.69331C29.8158 7.70462 29.8078 7.71419 29.7975 7.72067C29.7882 7.72857 29.7766 7.73328 29.7645 7.7341C29.7523 7.73492 29.7402 7.7318 29.73 7.72521L28.4722 7.05892C28.3143 6.9749 28.1382 6.93096 27.9594 6.93096C27.7806 6.93096 27.6045 6.9749 27.4467 7.05892L26.1878 7.72557C26.1777 7.73211 26.1656 7.7352 26.1536 7.73438C26.1415 7.73356 26.13 7.72888 26.1208 7.72103C26.1105 7.71455 26.1025 7.70498 26.098 7.69367C26.0935 7.68237 26.0926 7.66992 26.0956 7.65812L26.3409 6.25624C26.3718 6.07997 26.359 5.89881 26.3037 5.72862C26.2484 5.55842 26.1522 5.40436 26.0236 5.27991L25.0003 4.28918C24.9917 4.28084 24.9857 4.27029 24.9829 4.25871C24.9801 4.24713 24.9806 4.235 24.9843 4.22367C24.988 4.21235 24.9948 4.2023 25.004 4.19465C25.0131 4.187 25.0242 4.18206 25.036 4.18039Z" fill="#634CC2"/>
<path d="M22.1719 1.03128H1.54688C1.41012 1.03128 1.27897 1.08561 1.18227 1.1823C1.08557 1.279 1.03125 1.41015 1.03125 1.54691V9.79691C1.03126 9.88722 1.05498 9.97594 1.10005 10.0542C1.14513 10.1325 1.20996 10.1975 1.28807 10.2428C1.36619 10.2882 1.45483 10.3122 1.54514 10.3125C1.63546 10.3128 1.72426 10.2894 1.80268 10.2446L5.2932 8.25003H22.1719C22.3086 8.25003 22.4398 8.19571 22.5365 8.09901C22.6332 8.00231 22.6875 7.87116 22.6875 7.73441V1.54691C22.6875 1.41015 22.6332 1.279 22.5365 1.1823C22.4398 1.08561 22.3086 1.03128 22.1719 1.03128ZM21.6562 7.21878H5.15625C5.06654 7.21893 4.9784 7.24235 4.90045 7.28674L2.0625 8.90817V2.06253H21.6562V7.21878Z" fill="#634CC2"/>
<path d="M6.70312 5.15625H17.0156C17.1524 5.15625 17.2835 5.10193 17.3802 5.00523C17.4769 4.90853 17.5312 4.77738 17.5312 4.64062C17.5312 4.50387 17.4769 4.37272 17.3802 4.27602C17.2835 4.17932 17.1524 4.125 17.0156 4.125H6.70312C6.56637 4.125 6.43522 4.17932 6.33852 4.27602C6.24182 4.37272 6.1875 4.50387 6.1875 4.64062C6.1875 4.77738 6.24182 4.90853 6.33852 5.00523C6.43522 5.10193 6.56637 5.15625 6.70312 5.15625Z" fill="#634CC2"/>
<path d="M31.0271 13.9874L29.6175 13.7875C29.607 13.7861 29.5971 13.7821 29.5886 13.776C29.5801 13.7698 29.5732 13.7616 29.5686 13.7522L28.9423 12.4734C28.853 12.2889 28.7134 12.1333 28.5395 12.0246C28.3656 11.916 28.1646 11.8587 27.9595 11.8594H27.959C27.7539 11.8585 27.5526 11.9157 27.3785 12.0242C27.2044 12.1328 27.0646 12.2884 26.9751 12.473L26.3492 13.7517C26.3447 13.7611 26.3379 13.7692 26.3294 13.7754C26.321 13.7815 26.3112 13.7855 26.3009 13.787L24.8909 13.9869C24.688 14.0157 24.4972 14.1009 24.3403 14.2328C24.1834 14.3647 24.0667 14.5379 24.0033 14.7329C23.94 14.9278 23.9327 15.1366 23.9821 15.3355C24.0316 15.5344 24.1359 15.7155 24.2832 15.8581L25.3059 16.8481C25.3135 16.8553 25.3193 16.8643 25.3225 16.8744C25.3258 16.8844 25.3265 16.8951 25.3245 16.9054L25.0793 18.3083C25.0432 18.5103 25.0647 18.7185 25.1413 18.9089C25.2179 19.0993 25.3466 19.2643 25.5127 19.3849C25.6787 19.5056 25.8753 19.5771 26.0801 19.5912C26.2848 19.6054 26.4894 19.5616 26.6705 19.4649L27.9293 18.7977C27.9386 18.793 27.9489 18.7907 27.9593 18.7907C27.9697 18.7908 27.98 18.7934 27.9892 18.7982L29.2471 19.4643C29.4281 19.5605 29.6325 19.6039 29.837 19.5896C30.0415 19.5753 30.2379 19.5039 30.4037 19.3835C30.5696 19.263 30.6983 19.0984 30.7752 18.9084C30.8522 18.7184 30.8742 18.5106 30.8388 18.3087L30.593 16.9053C30.5913 16.8951 30.5922 16.8847 30.5954 16.8749C30.5987 16.865 30.6042 16.8562 30.6117 16.849L31.6344 15.8585C31.7816 15.716 31.8859 15.535 31.9354 15.3361C31.9849 15.1372 31.9776 14.9285 31.9143 14.7335C31.851 14.5386 31.7344 14.3654 31.5775 14.2334C31.4207 14.1015 31.23 14.0163 31.0271 13.9874ZM30.9173 15.1173L29.8942 16.1081C29.7658 16.2324 29.6698 16.3863 29.6146 16.5562C29.5594 16.7261 29.5466 16.907 29.5774 17.083L29.8226 18.4859C29.8256 18.4977 29.8248 18.5101 29.8203 18.5214C29.8158 18.5327 29.8078 18.5423 29.7975 18.5488C29.7882 18.5567 29.7766 18.5614 29.7645 18.5622C29.7523 18.563 29.7402 18.5599 29.73 18.5533L28.4722 17.887C28.3143 17.803 28.1382 17.7591 27.9594 17.7591C27.7806 17.7591 27.6045 17.803 27.4467 17.887L26.1878 18.5537C26.1777 18.5602 26.1656 18.5633 26.1536 18.5625C26.1415 18.5617 26.13 18.557 26.1208 18.5492C26.1105 18.5427 26.1025 18.5331 26.098 18.5218C26.0935 18.5105 26.0926 18.498 26.0956 18.4862L26.3409 17.0844C26.3718 16.9081 26.359 16.7269 26.3037 16.5567C26.2484 16.3865 26.1522 16.2325 26.0236 16.108L25.0005 15.1176C24.992 15.1092 24.9859 15.0987 24.9831 15.0871C24.9803 15.0755 24.9808 15.0634 24.9845 15.0521C24.9882 15.0407 24.995 15.0307 25.0042 15.023C25.0133 15.0154 25.0244 15.0104 25.0362 15.0088L26.4464 14.8088C26.6233 14.7835 26.7914 14.7153 26.936 14.6101C27.0805 14.505 27.1972 14.3661 27.2757 14.2055L27.9016 12.9265C27.9062 12.9152 27.9142 12.9057 27.9245 12.8993C27.9348 12.8928 27.9469 12.8898 27.959 12.8906C27.971 12.8898 27.9829 12.8927 27.9931 12.899C28.0033 12.9054 28.0112 12.9148 28.0157 12.9259V12.9264L28.6417 14.2044C28.7201 14.3653 28.8367 14.5046 28.9815 14.6099C29.1262 14.7152 29.2946 14.7835 29.4718 14.8086L30.8812 15.0085C30.893 15.0101 30.9042 15.0151 30.9133 15.0227C30.9225 15.0304 30.9293 15.0404 30.933 15.0518C30.9368 15.0631 30.9372 15.0753 30.9344 15.0868C30.9315 15.0984 30.9255 15.109 30.9169 15.1173H30.9173Z" fill="#634CC2"/>
<path d="M22.1719 11.8594H1.54688C1.41012 11.8594 1.27897 11.9137 1.18227 12.0104C1.08557 12.1071 1.03125 12.2382 1.03125 12.375V20.625C1.03126 20.7153 1.05498 20.804 1.10005 20.8823C1.14513 20.9606 1.20996 21.0256 1.28807 21.0709C1.36619 21.1163 1.45483 21.1403 1.54514 21.1406C1.63546 21.1409 1.72426 21.1175 1.80268 21.0727L5.2932 19.0781H22.1719C22.3086 19.0781 22.4398 19.0238 22.5365 18.9271C22.6332 18.8304 22.6875 18.6993 22.6875 18.5625V12.375C22.6875 12.2382 22.6332 12.1071 22.5365 12.0104C22.4398 11.9137 22.3086 11.8594 22.1719 11.8594ZM21.6562 18.0469H5.15625C5.06654 18.047 4.9784 18.0704 4.90045 18.1148L2.0625 19.7363V12.8906H21.6562V18.0469Z" fill="#634CC2"/>
<path d="M6.70312 15.9844H17.0156C17.1524 15.9844 17.2835 15.93 17.3802 15.8334C17.4769 15.7367 17.5312 15.6055 17.5312 15.4687C17.5312 15.332 17.4769 15.2008 17.3802 15.1041C17.2835 15.0074 17.1524 14.9531 17.0156 14.9531H6.70312C6.56637 14.9531 6.43522 15.0074 6.33852 15.1041C6.24182 15.2008 6.1875 15.332 6.1875 15.4687C6.1875 15.6055 6.24182 15.7367 6.33852 15.8334C6.43522 15.93 6.56637 15.9844 6.70312 15.9844Z" fill="#634CC2"/>
<path d="M31.0271 24.8155L29.6175 24.6156C29.607 24.6142 29.5971 24.6103 29.5886 24.6041C29.5801 24.5979 29.5732 24.5898 29.5686 24.5803L28.9425 23.3011C28.8531 23.1166 28.7135 22.961 28.5395 22.8525C28.3656 22.7439 28.1646 22.6867 27.9595 22.6875H27.959C27.7539 22.6866 27.5526 22.7438 27.3785 22.8524C27.2044 22.9609 27.0646 23.1165 26.9751 23.3011L26.3492 24.5801C26.3447 24.5895 26.3379 24.5976 26.3294 24.6037C26.321 24.6099 26.3112 24.6139 26.3009 24.6154L24.8909 24.8153C24.688 24.8441 24.4972 24.9293 24.3403 25.0612C24.1834 25.1931 24.0667 25.3663 24.0033 25.5613C23.94 25.7562 23.9327 25.965 23.9821 26.1639C24.0316 26.3628 24.1359 26.5439 24.2832 26.6864L25.3059 27.6764C25.3135 27.6837 25.3193 27.6927 25.3225 27.7027C25.3258 27.7128 25.3265 27.7235 25.3245 27.7338L25.0793 29.1367C25.0432 29.3387 25.0648 29.5468 25.1414 29.7372C25.2181 29.9275 25.3468 30.0925 25.5128 30.2131C25.6788 30.3337 25.8754 30.4052 26.0802 30.4193C26.2849 30.4335 26.4895 30.3897 26.6705 30.293L27.9293 29.6258C27.9386 29.6212 27.9489 29.6188 27.9593 29.6189C27.9697 29.619 27.98 29.6215 27.9892 29.6263L29.2471 30.2925C29.4281 30.3886 29.6325 30.432 29.837 30.4178C30.0415 30.4035 30.2379 30.332 30.4037 30.2116C30.5696 30.0912 30.6983 29.9266 30.7752 29.7366C30.8522 29.5465 30.8742 29.3388 30.8388 29.1368L30.593 27.7335C30.5913 27.7233 30.5922 27.7128 30.5954 27.703C30.5987 27.6932 30.6042 27.6843 30.6117 27.6771L31.6344 26.6866C31.7816 26.5441 31.8859 26.3631 31.9354 26.1642C31.9849 25.9654 31.9776 25.7566 31.9143 25.5617C31.851 25.3667 31.7344 25.1935 31.5775 25.0616C31.4207 24.9297 31.23 24.8444 31.0271 24.8155ZM30.9173 25.9454L29.8942 26.9363C29.7658 27.0605 29.6698 27.2144 29.6146 27.3843C29.5594 27.5543 29.5466 27.7351 29.5774 27.9112L29.8226 29.314C29.8256 29.3258 29.8248 29.3383 29.8203 29.3496C29.8158 29.3609 29.8078 29.3704 29.7975 29.3769C29.7882 29.3848 29.7766 29.3895 29.7645 29.3904C29.7523 29.3912 29.7402 29.388 29.73 29.3815L28.4722 28.7152C28.3143 28.6312 28.1382 28.5872 27.9594 28.5872C27.7806 28.5872 27.6045 28.6312 27.4467 28.7152L26.1878 29.3818C26.1777 29.3884 26.1656 29.3914 26.1536 29.3906C26.1415 29.3898 26.13 29.3851 26.1208 29.3773C26.1105 29.3708 26.1025 29.3612 26.098 29.3499C26.0935 29.3386 26.0926 29.3262 26.0956 29.3144L26.3409 27.9125C26.3718 27.7362 26.359 27.5551 26.3037 27.3849C26.2484 27.2147 26.1522 27.0606 26.0236 26.9362L25.0005 25.9457C24.992 25.9374 24.9859 25.9268 24.9831 25.9152C24.9803 25.9036 24.9808 25.8915 24.9845 25.8802C24.9882 25.8689 24.995 25.8588 25.0042 25.8512C25.0133 25.8435 25.0244 25.8386 25.0362 25.8369L26.4464 25.6369C26.6233 25.6116 26.7914 25.5434 26.936 25.4383C27.0805 25.3331 27.1972 25.1942 27.2757 25.0336L27.9016 23.7549C27.9062 23.7436 27.9142 23.734 27.9245 23.7275C27.9348 23.721 27.9469 23.7179 27.959 23.7188C27.971 23.7179 27.9829 23.7208 27.9931 23.7272C28.0033 23.7335 28.0112 23.7429 28.0157 23.754V23.7545L28.6417 25.0325C28.7201 25.1934 28.8367 25.3327 28.9815 25.438C29.1262 25.5434 29.2946 25.6116 29.4718 25.6367L30.8812 25.8366C30.893 25.8383 30.9042 25.8432 30.9133 25.8508C30.9225 25.8585 30.9293 25.8685 30.933 25.8799C30.9368 25.8912 30.9372 25.9034 30.9344 25.915C30.9315 25.9266 30.9255 25.9371 30.9169 25.9454H30.9173Z" fill="#634CC2"/>
<path d="M22.1719 22.6875H1.54688C1.41012 22.6875 1.27897 22.7418 1.18227 22.8385C1.08557 22.9352 1.03125 23.0664 1.03125 23.2031V31.4531C1.03126 31.5434 1.05498 31.6322 1.10005 31.7104C1.14513 31.7887 1.20996 31.8537 1.28807 31.8991C1.36619 31.9444 1.45483 31.9684 1.54514 31.9687C1.63546 31.969 1.72426 31.9456 1.80268 31.9008L5.2932 29.9062H22.1719C22.3086 29.9062 22.4398 29.8519 22.5365 29.7552C22.6332 29.6585 22.6875 29.5274 22.6875 29.3906V23.2031C22.6875 23.0664 22.6332 22.9352 22.5365 22.8385C22.4398 22.7418 22.3086 22.6875 22.1719 22.6875ZM21.6562 28.875H5.15625C5.06654 28.8752 4.9784 28.8986 4.90045 28.943L2.0625 30.5644V23.7188H21.6562V28.875Z" fill="#634CC2"/>
<path d="M6.70312 26.8125H17.0156C17.1524 26.8125 17.2835 26.7582 17.3802 26.6615C17.4769 26.5648 17.5312 26.4336 17.5312 26.2969C17.5312 26.1601 17.4769 26.029 17.3802 25.9323C17.2835 25.8356 17.1524 25.7812 17.0156 25.7812H6.70312C6.56637 25.7812 6.43522 25.8356 6.33852 25.9323C6.24182 26.029 6.1875 26.1601 6.1875 26.2969C6.1875 26.4336 6.24182 26.5648 6.33852 26.6615C6.43522 26.7582 6.56637 26.8125 6.70312 26.8125Z" fill="#634CC2"/>
</svg>
