<svg width="33" height="42" viewBox="0 0 33 42" fill="none" xmlns="http://www.w3.org/2000/svg">
<path d="M31.515 0.825012H23.463C23.199 0.825012 22.968 0.957012 22.869 1.18801C22.77 1.41901 22.77 1.68301 22.935 1.88101L25.047 4.91701L19.668 8.54701L15.84 3.43201C15.708 3.26701 15.543 3.16801 15.345 3.16801C15.147 3.16801 14.949 3.23401 14.817 3.36601L1.02301 18.051C0.792011 18.315 0.792011 18.678 0.990011 18.942C1.12201 19.107 1.32001 19.173 1.51801 19.173C1.65001 19.173 1.78201 19.14 1.88101 19.074L14.652 10.824L17.655 15.246C17.853 15.543 18.249 15.642 18.546 15.444L28.875 9.14101L31.053 11.319C31.251 11.517 31.548 11.583 31.779 11.451C32.043 11.352 32.208 11.088 32.208 10.824V1.48501C32.208 1.12201 31.911 0.825012 31.515 0.825012ZM30.855 9.24001L29.469 7.85401C29.238 7.62301 28.908 7.59001 28.644 7.75501L18.414 13.992L15.411 9.53701C15.213 9.24001 14.784 9.14101 14.487 9.33901L5.77501 14.949L15.213 4.88401L18.942 9.83401C19.14 10.131 19.569 10.197 19.866 9.99901L26.367 5.64301C26.532 5.54401 26.631 5.37901 26.664 5.21401C26.697 5.04901 26.664 4.85101 26.565 4.71901L24.75 2.17801H30.855V9.24001Z" fill="#634CC2"/>
<path d="M0.791992 32.109H7.12799V17.589L0.857992 21.351L0.791992 32.109ZM2.17799 22.143L5.77499 19.998V30.789H2.14499L2.17799 22.143Z" fill="#634CC2"/>
<path d="M9.24001 16.83L9.07501 31.944H15.576L15.708 15.609L13.629 13.53L9.24001 16.83ZM14.223 30.591H10.428L10.593 17.49L13.497 15.312L14.355 16.17L14.223 30.591Z" fill="#634CC2"/>
<path d="M17.49 19.404L17.457 19.734L17.49 19.767L17.358 32.208H23.694V14.718L22.638 15.444C17.523 18.942 17.523 19.008 17.49 19.404ZM22.341 30.822H18.711L18.81 19.767C19.338 19.338 20.922 18.249 22.341 17.259V30.822Z" fill="#634CC2"/>
<path d="M25.608 13.86L25.674 32.01H31.878V16.302L28.248 12.078L25.608 13.86ZM30.525 30.657H26.994L26.928 14.553L27.984 13.86L30.525 16.797V30.657Z" fill="#634CC2"/>
</svg>
