<svg width="33" height="42" viewBox="0 0 33 42" fill="none" xmlns="http://www.w3.org/2000/svg">
<path d="M16.3849 7C12.9749 7 10.1974 9.77747 10.1974 13.1875V14.2188H8.13489C6.43847 14.2188 5.16359 15.5707 5.04114 17.3125C4.72447 21.374 4.34844 26.2913 4.01391 30.6402C3.78901 33.5638 6.32538 35.875 9.16614 35.875H23.6036C26.4444 35.875 28.9807 33.5638 28.7559 30.6402C28.419 26.2914 28.0473 21.374 27.7286 17.3125C27.5831 15.6695 26.3313 14.2188 24.6349 14.2188H22.5724V13.1875C22.5724 9.77747 19.7949 7 16.3849 7ZM20.5099 13.1875V14.2188H15.3536C14.7841 14.2188 14.3224 14.6805 14.3224 15.25C14.3224 15.8195 14.7841 16.2812 15.3536 16.2812H20.5099V20.4062C20.5099 20.9758 20.9716 21.4375 21.5411 21.4375C22.1107 21.4375 22.5724 20.9758 22.5724 20.4062V16.2812H24.6349C25.2166 16.2812 25.6082 16.7669 25.6661 17.3125C26.0071 21.8006 26.3558 26.304 26.7014 30.7973C26.8271 32.4307 25.3334 33.8125 23.6036 33.8125H9.16614C7.43639 33.8125 5.94272 32.4307 6.06835 30.7973C6.41168 26.3042 6.76459 21.8001 7.10363 17.3125C7.17746 16.7236 7.55313 16.2812 8.13488 16.2812H10.1974V20.4062C10.1974 20.9758 10.6591 21.4375 11.2286 21.4375C11.7982 21.4375 12.2599 20.9758 12.2599 20.4062V13.1875C12.2599 10.8844 14.0818 9.06247 16.3849 9.06248C18.688 9.0625 20.5099 10.8844 20.5099 13.1875Z" fill="#634CC2"/>
</svg>
