<svg width="25" height="29" viewBox="0 0 25 29" fill="none" xmlns="http://www.w3.org/2000/svg">
<path d="M12.3849 0C8.97485 0 6.19739 2.77747 6.19739 6.1875V7.21875H4.13489C2.43847 7.21875 1.16359 8.57066 1.04114 10.3125C0.72447 14.374 0.348435 19.2913 0.0139083 23.6402C-0.210987 26.5638 2.32538 28.875 5.16614 28.875H19.6036C22.4444 28.875 24.9807 26.5638 24.7559 23.6402C24.419 19.2914 24.0473 14.374 23.7286 10.3125C23.5831 8.66951 22.3313 7.21875 20.6349 7.21875H18.5724V6.1875C18.5724 2.77747 15.7949 0 12.3849 0ZM16.5099 6.1875V7.21875H11.3536C10.7841 7.21875 10.3224 7.68046 10.3224 8.25C10.3224 8.81955 10.7841 9.28125 11.3536 9.28125H16.5099V13.4062C16.5099 13.9758 16.9716 14.4375 17.5411 14.4375C18.1107 14.4375 18.5724 13.9758 18.5724 13.4062V9.28125H20.6349C21.2166 9.28125 21.6082 9.76688 21.6661 10.3125C22.0071 14.8006 22.3558 19.304 22.7014 23.7973C22.8271 25.4307 21.3334 26.8125 19.6036 26.8125H5.16614C3.43639 26.8125 1.94272 25.4307 2.06835 23.7973C2.41168 19.3042 2.76459 14.8001 3.10363 10.3125C3.17746 9.72357 3.55313 9.28122 4.13488 9.28122H6.19738V13.4062C6.19738 13.9758 6.65909 14.4375 7.22863 14.4375C7.79818 14.4375 8.25989 13.9758 8.25988 13.4062V6.18747C8.25988 3.88438 10.0818 2.06247 12.3849 2.06248C14.688 2.0625 16.5099 3.88441 16.5099 6.1875Z" fill="#634CC2"/>
</svg>
