<svg width="37" height="38" viewBox="0 0 37 38" fill="none" xmlns="http://www.w3.org/2000/svg">
<path d="M24.459 0.806763H12.541C6.05099 0.806763 0.799988 6.1955 0.799988 12.8557V25.6918C0.799988 32.352 6.05099 37.7408 12.541 37.7408H24.459C30.949 37.7408 36.2 32.352 36.2 25.6918V12.8557C36.2 6.1955 30.949 0.806763 24.459 0.806763ZM35.02 25.6918C35.02 31.686 30.3 36.5298 24.459 36.5298H12.541C6.69999 36.5298 1.97999 31.686 1.97999 25.6918V12.8557C1.97999 6.86152 6.69999 2.01771 12.541 2.01771H24.459C30.3 2.01771 35.02 6.86152 35.02 12.8557V25.6918Z" fill="white"/>
<path d="M28.825 18.6683H19.09V8.67792C19.09 8.31464 18.854 8.07245 18.5 8.07245C18.146 8.07245 17.91 8.31464 17.91 8.67792V18.6683H8.17499C7.82099 18.6683 7.58499 18.9105 7.58499 19.2737C7.58499 19.637 7.82099 19.8792 8.17499 19.8792H17.91V29.8696C17.91 30.2328 18.146 30.475 18.5 30.475C18.854 30.475 19.09 30.2328 19.09 29.8696V19.8792H28.825C29.179 19.8792 29.415 19.637 29.415 19.2737C29.415 18.9105 29.179 18.6683 28.825 18.6683Z" fill="white"/>
</svg>
