<svg width="59" height="76" viewBox="0 0 59 76" fill="none" xmlns="http://www.w3.org/2000/svg">
<path d="M35.459 11.8068H23.541C17.051 11.8068 11.8 17.1955 11.8 23.8557V36.6918C11.8 43.352 17.051 48.7408 23.541 48.7408H35.459C41.949 48.7408 47.2 43.352 47.2 36.6918V23.8557C47.2 17.1955 41.949 11.8068 35.459 11.8068ZM46.02 36.6918C46.02 42.686 41.3 47.5298 35.459 47.5298H23.541C17.7 47.5298 12.98 42.686 12.98 36.6918V23.8557C12.98 17.8615 17.7 13.0177 23.541 13.0177H35.459C41.3 13.0177 46.02 17.8615 46.02 23.8557V36.6918Z" fill="white"/>
<path d="M39.825 29.6683H30.09V19.6779C30.09 19.3146 29.854 19.0724 29.5 19.0724C29.146 19.0724 28.91 19.3146 28.91 19.6779V29.6683H19.175C18.821 29.6683 18.585 29.9105 18.585 30.2737C18.585 30.637 18.821 30.8792 19.175 30.8792H28.91V40.8696C28.91 41.2328 29.146 41.475 29.5 41.475C29.854 41.475 30.09 41.2328 30.09 40.8696V30.8792H39.825C40.179 30.8792 40.415 30.637 40.415 30.2737C40.415 29.9105 40.179 29.6683 39.825 29.6683Z" fill="white"/>
</svg>
