<svg width="42" height="41" viewBox="0 0 42 41" fill="none" xmlns="http://www.w3.org/2000/svg">
<path d="M39.9 7.258C39.9 7.22589 39.858 7.19377 39.858 7.19377V7.16166C39.858 7.12954 39.816 7.09743 39.816 7.06531C39.816 7.06531 39.816 7.0332 39.774 7.0332C39.732 7.00108 39.732 6.96897 39.69 6.93685L32.97 1.79844C32.928 1.76633 32.886 1.73421 32.844 1.73421C32.844 1.73421 32.844 1.73421 32.802 1.73421C32.76 1.73421 32.718 1.7021 32.676 1.7021H32.634C32.592 1.7021 32.55 1.66998 32.55 1.66998C32.508 1.66998 32.424 1.66998 32.382 1.66998H25.62C24.234 1.66998 23.1 2.53709 23.1 3.59689V16.4429C23.1 17.5027 24.234 18.3698 25.62 18.3698H37.38C38.766 18.3698 39.9 17.5027 39.9 16.4429V7.38646C39.9 7.35435 39.9 7.29012 39.9 7.258ZM33.18 3.78958L37.044 6.74416H34.02C33.558 6.74416 33.18 6.45513 33.18 6.10186V3.78958ZM38.22 16.3787C38.22 16.7319 37.842 17.021 37.38 17.021H25.62C25.158 17.021 24.78 16.7319 24.78 16.3787V3.53266C24.78 3.17939 25.158 2.89036 25.62 2.89036H31.5V6.10186C31.5 7.16166 32.634 8.02877 34.02 8.02877H38.22V16.3787ZM36.96 26.0132H35.406C35.574 25.7242 35.7 25.403 35.7 25.0497C35.7 23.7973 34.398 22.8017 32.76 22.8017H25.704L18.69 16.9889C17.766 16.186 16.38 15.7364 14.994 15.7364H4.62001C3.23401 15.7364 2.10001 16.6035 2.10001 17.6633V23.444C2.10001 24.5038 3.23401 25.3709 4.62001 25.3709H8.56801C9.11401 25.3709 9.61801 25.4994 10.038 25.7242L17.514 29.867C18.228 30.2524 19.11 30.4772 19.992 30.4772H36.96C38.598 30.4772 39.9 29.4816 39.9 28.2291C39.9 26.9767 38.598 26.0132 36.96 26.0132ZM32.76 24.0863C33.474 24.0863 34.02 24.5038 34.02 25.0497C34.02 25.5636 33.474 26.0132 32.76 26.0132H27.09C27.216 25.7884 27.342 25.5315 27.342 25.2746C27.384 24.8571 27.3 24.4717 27.048 24.0863H32.76ZM6.30001 24.0863H4.62001C4.15801 24.0863 3.78001 23.7973 3.78001 23.444V17.6633C3.78001 17.31 4.15801 17.021 4.62001 17.021H6.30001V24.0863ZM36.96 29.2247H19.992C19.446 29.2247 18.942 29.0962 18.522 28.8393L11.046 24.6965C10.332 24.3111 9.45001 24.0863 8.56801 24.0863H7.98001V17.021H14.994C15.918 17.021 16.842 17.31 17.472 17.856L25.368 24.4074C25.62 24.6001 25.746 24.8571 25.704 25.1461C25.662 25.403 25.494 25.6599 25.2 25.8205C24.696 26.1095 23.94 26.0453 23.436 25.6599L15.876 19.3975C15.54 19.1406 15.036 19.1085 14.7 19.3654C14.532 19.4938 14.448 19.6544 14.448 19.8471C14.448 20.0077 14.532 20.1683 14.658 20.2646L22.176 26.527C22.722 26.9767 23.436 27.2336 24.15 27.2657C24.192 27.2657 24.276 27.2657 24.318 27.2657H36.918C37.632 27.2657 38.178 27.6832 38.178 28.2291C38.22 28.7751 37.674 29.2247 36.96 29.2247Z" fill="white"/>
</svg>
