<svg width="38" height="30" viewBox="0 0 38 30" fill="none" xmlns="http://www.w3.org/2000/svg">
<path d="M37.9 6.258C37.9 6.22589 37.858 6.19377 37.858 6.19377V6.16166C37.858 6.12954 37.816 6.09743 37.816 6.06531C37.816 6.06531 37.816 6.0332 37.774 6.0332C37.732 6.00108 37.732 5.96897 37.69 5.93685L30.97 0.798443C30.928 0.766328 30.886 0.734213 30.844 0.734213C30.844 0.734213 30.844 0.734213 30.802 0.734213C30.76 0.734213 30.718 0.702098 30.676 0.702098H30.634C30.592 0.702098 30.55 0.669983 30.55 0.669983C30.508 0.669983 30.424 0.669983 30.382 0.669983H23.62C22.234 0.669983 21.1 1.53709 21.1 2.59689V15.4429C21.1 16.5027 22.234 17.3698 23.62 17.3698H35.38C36.766 17.3698 37.9 16.5027 37.9 15.4429V6.38646C37.9 6.35435 37.9 6.29012 37.9 6.258ZM31.18 2.78958L35.044 5.74416H32.02C31.558 5.74416 31.18 5.45513 31.18 5.10186V2.78958ZM36.22 15.3787C36.22 15.7319 35.842 16.021 35.38 16.021H23.62C23.158 16.021 22.78 15.7319 22.78 15.3787V2.53266C22.78 2.17939 23.158 1.89036 23.62 1.89036H29.5V5.10186C29.5 6.16166 30.634 7.02877 32.02 7.02877H36.22V15.3787ZM34.96 25.0132H33.406C33.574 24.7242 33.7 24.403 33.7 24.0497C33.7 22.7973 32.398 21.8017 30.76 21.8017H23.704L16.69 15.9889C15.766 15.186 14.38 14.7364 12.994 14.7364H2.62001C1.23401 14.7364 0.100006 15.6035 0.100006 16.6633V22.444C0.100006 23.5038 1.23401 24.3709 2.62001 24.3709H6.56801C7.11401 24.3709 7.61801 24.4994 8.03801 24.7242L15.514 28.867C16.228 29.2524 17.11 29.4772 17.992 29.4772H34.96C36.598 29.4772 37.9 28.4816 37.9 27.2291C37.9 25.9767 36.598 25.0132 34.96 25.0132ZM30.76 23.0863C31.474 23.0863 32.02 23.5038 32.02 24.0497C32.02 24.5636 31.474 25.0132 30.76 25.0132H25.09C25.216 24.7884 25.342 24.5315 25.342 24.2746C25.384 23.8571 25.3 23.4717 25.048 23.0863H30.76ZM4.30001 23.0863H2.62001C2.15801 23.0863 1.78001 22.7973 1.78001 22.444V16.6633C1.78001 16.31 2.15801 16.021 2.62001 16.021H4.30001V23.0863ZM34.96 28.2247H17.992C17.446 28.2247 16.942 28.0962 16.522 27.8393L9.04601 23.6965C8.33201 23.3111 7.45001 23.0863 6.56801 23.0863H5.98001V16.021H12.994C13.918 16.021 14.842 16.31 15.472 16.856L23.368 23.4074C23.62 23.6001 23.746 23.8571 23.704 24.1461C23.662 24.403 23.494 24.6599 23.2 24.8205C22.696 25.1095 21.94 25.0453 21.436 24.6599L13.876 18.3975C13.54 18.1406 13.036 18.1085 12.7 18.3654C12.532 18.4938 12.448 18.6544 12.448 18.8471C12.448 19.0077 12.532 19.1683 12.658 19.2646L20.176 25.527C20.722 25.9767 21.436 26.2336 22.15 26.2657C22.192 26.2657 22.276 26.2657 22.318 26.2657H34.918C35.632 26.2657 36.178 26.6832 36.178 27.2291C36.22 27.7751 35.674 28.2247 34.96 28.2247Z" fill="white"/>
</svg>
