<svg width="1117" height="417" viewBox="0 0 1117 417" fill="none" xmlns="http://www.w3.org/2000/svg">
<g clip-path="url(#clip0)">
<path d="M107.228 220.554C90.4776 161.03 53.0556 155.842 24.2794 125.797C-1.91808 98.4676 -23.0451 53.7585 50.8887 21.7953C165.733 -27.8943 306.58 22.9509 306.58 22.9509C306.58 22.9509 529.768 91.1297 568.772 94.5964C607.776 98.0631 703.118 132.73 822.297 91.1297C941.475 49.5291 1043.32 52.9958 1075.82 84.1963C1108.32 115.397 1034.65 205.531 1017.32 224.021C999.98 242.51 1025.98 300.288 1054.15 323.4C1082.32 346.511 1171.16 418.157 980.479 415.846C789.793 413.535 217.738 417.001 217.738 417.001C217.738 417.001 12.3834 414.956 48.7219 308.377C79.0581 219.398 113.728 243.665 107.228 220.554Z" fill="white"/>
<path d="M180.9 212.464C204.835 212.464 224.238 202.116 224.238 189.352C224.238 176.588 204.835 166.241 180.9 166.241C156.965 166.241 137.563 176.588 137.563 189.352C137.563 202.116 156.965 212.464 180.9 212.464Z" fill="#2D7CE3"/>
<path d="M108.31 233.264C124.466 233.264 137.563 226.279 137.563 217.664C137.563 209.048 124.466 202.063 108.31 202.063C92.1538 202.063 79.0569 209.048 79.0569 217.664C79.0569 226.279 92.1538 233.264 108.31 233.264Z" fill="#BAC5F4"/>
<path d="M112.643 190.508C121.619 190.508 128.895 186.627 128.895 181.841C128.895 177.054 121.619 173.174 112.643 173.174C103.668 173.174 96.3919 177.054 96.3919 181.841C96.3919 186.627 103.668 190.508 112.643 190.508Z" fill="#BAC5F4"/>
<path d="M1073.65 368.466C1097.59 368.466 1116.99 358.119 1116.99 345.354C1116.99 332.59 1097.59 322.243 1073.65 322.243C1049.72 322.243 1030.32 332.59 1030.32 345.354C1030.32 358.119 1049.72 368.466 1073.65 368.466Z" fill="#FFFAA3"/>
<path d="M32.469 80.7284C41.4445 80.7284 48.7206 76.8481 48.7206 72.0615C48.7206 67.275 41.4445 63.3947 32.469 63.3947C23.4935 63.3947 16.2175 67.275 16.2175 72.0615C16.2175 76.8481 23.4935 80.7284 32.469 80.7284Z" fill="#BAC5F4"/>
<path d="M303.329 384.644C345.813 384.644 380.253 366.277 380.253 343.621C380.253 320.965 345.813 302.598 303.329 302.598C260.845 302.598 226.404 320.965 226.404 343.621C226.404 366.277 260.845 384.644 303.329 384.644Z" fill="#634CC2"/>
<path d="M811.461 404.289C840.183 404.289 863.466 391.872 863.466 376.555C863.466 361.238 840.183 348.821 811.461 348.821C782.739 348.821 759.456 361.238 759.456 376.555C759.456 391.872 782.739 404.289 811.461 404.289Z" fill="#219653"/>
<path d="M1010.81 248.286C1026.37 248.286 1038.98 241.561 1038.98 233.264C1038.98 224.967 1026.37 218.241 1010.81 218.241C995.256 218.241 982.644 224.967 982.644 233.264C982.644 241.561 995.256 248.286 1010.81 248.286Z" fill="#E1E6FB"/>
<path d="M800.627 128.107C831.742 128.107 856.966 114.655 856.966 98.0619C856.966 81.4685 831.742 68.017 800.627 68.017C769.512 68.017 744.288 81.4685 744.288 98.0619C744.288 114.655 769.512 128.107 800.627 128.107Z" fill="#FFBFA3"/>
<path d="M283.827 32.1943C298.786 32.1943 310.913 25.7272 310.913 17.7496C310.913 9.77206 298.786 3.30496 283.827 3.30496C268.868 3.30496 256.741 9.77206 256.741 17.7496C256.741 25.7272 268.868 32.1943 283.827 32.1943Z" fill="#E1E6FB"/>
<path d="M197.152 319.932C212.111 319.932 224.238 313.465 224.238 305.487C224.238 297.51 212.111 291.042 197.152 291.042C182.193 291.042 170.066 297.51 170.066 305.487C170.066 313.465 182.193 319.932 197.152 319.932Z" fill="#E1E6FB"/>
<path d="M1070.4 152.374C1085.36 152.374 1097.49 145.907 1097.49 137.929C1097.49 129.952 1085.36 123.484 1070.4 123.484C1055.44 123.484 1043.32 129.952 1043.32 137.929C1043.32 145.907 1055.44 152.374 1070.4 152.374Z" fill="#BAC5F4"/>
<path d="M1027.07 398.511C1043.22 398.511 1056.32 391.526 1056.32 382.911C1056.32 374.295 1043.22 367.31 1027.07 367.31C1010.91 367.31 997.812 374.295 997.812 382.911C997.812 391.526 1010.91 398.511 1027.07 398.511Z" fill="#BAC5F4"/>
<path d="M1092.07 399.666C1101.05 399.666 1108.32 395.786 1108.32 391C1108.32 386.213 1101.05 382.333 1092.07 382.333C1083.1 382.333 1075.82 386.213 1075.82 391C1075.82 395.786 1083.1 399.666 1092.07 399.666Z" fill="#BAC5F4"/>
</g>
<defs>
<clipPath id="clip0">
<rect width="1117" height="417" fill="white"/>
</clipPath>
</defs>
</svg>
