<svg width="36" height="36" viewBox="0 0 36 36" fill="none" xmlns="http://www.w3.org/2000/svg">
<path d="M19.4583 27.2567C16.8432 27.2561 14.3034 26.3807 12.2434 24.7697L5.76659 31.2465L3.68329 29.1632L10.1601 22.6864C8.54824 20.6262 7.67224 18.0858 7.67161 15.47C7.67161 8.97114 12.9594 3.68335 19.4583 3.68335C25.9572 3.68335 31.245 8.97114 31.245 15.47C31.245 21.9689 25.9572 27.2567 19.4583 27.2567ZM19.4583 6.63002C14.583 6.63002 10.6183 10.5948 10.6183 15.47C10.6183 20.3453 14.583 24.31 19.4583 24.31C24.3336 24.31 28.2983 20.3453 28.2983 15.47C28.2983 10.5948 24.3336 6.63002 19.4583 6.63002Z" fill="#634CC2"/>
</svg>
