<svg width="431" height="372" viewBox="0 0 431 372" fill="none" xmlns="http://www.w3.org/2000/svg">
<path d="M215.514 0.0015149C171.022 -0.024436 127.613 11.8482 91.25 33.987C54.8881 56.1285 27.3631 87.4466 12.4523 123.641C-2.45553 159.835 -4.01825 199.125 7.98292 236.116C19.9846 273.107 44.9612 305.979 79.4772 330.221L79.7086 330.371L87.7123 335.725H87.7153C124.735 359.289 169.522 372 215.511 372C261.5 372 306.288 359.289 343.306 335.725C346.215 333.94 348.923 332.082 351.628 330.146C386.117 305.894 411.064 273.019 423.044 236.034C435.021 199.051 433.444 159.773 418.527 123.592C403.609 87.4139 376.085 56.1077 339.736 33.9782C303.384 11.8474 259.992 -0.0205681 215.511 2.67588e-05L215.514 0.0015149ZM330.329 322.105C296.994 343.121 256.788 354.446 215.514 354.446C174.237 354.446 134.031 343.121 100.699 322.105C100.903 320.774 101.134 319.593 101.396 318.184V318.187C107.777 287.066 130.811 260.38 163.525 246.204C196.238 232.028 234.784 232.027 267.498 246.204C300.215 260.381 323.246 287.067 329.63 318.187C329.892 319.495 330.126 320.699 330.327 322.082L330.329 322.105ZM139.84 149.919C139.84 132.534 147.843 115.863 162.087 103.575C176.331 91.2872 195.648 84.392 215.782 84.4072C235.917 84.4228 255.219 91.349 269.438 103.658C283.655 115.967 291.625 132.651 291.589 150.036C291.553 167.42 283.513 184.081 269.246 196.346C254.975 208.613 235.646 215.477 215.511 215.43C195.431 215.366 176.198 208.437 162.018 196.159C147.837 183.882 139.864 167.257 139.84 149.919V149.919ZM348.518 309.263C343.285 289.66 332.33 271.538 316.689 256.627C301.048 241.715 281.247 230.51 259.171 224.076C285.109 212.746 303.725 191.899 309.824 167.357C315.919 142.816 308.844 117.21 290.573 97.6869C272.299 78.1663 244.785 66.8232 215.718 66.8232C186.648 66.8232 159.135 78.1663 140.861 97.6869C122.59 117.208 115.515 142.814 121.613 167.357C127.708 191.899 146.325 212.746 172.266 224.076C150.187 230.51 130.386 241.715 114.745 256.627C99.1067 271.538 88.1484 289.66 82.9155 309.263C54.2364 286.232 34.2519 256.276 25.5719 223.296C16.8888 190.32 19.9123 155.851 34.2434 124.375C48.5745 92.8976 73.5507 65.8832 105.921 46.8382C138.288 27.7953 176.549 17.6121 215.719 17.6121C254.885 17.6121 293.147 27.7953 325.517 46.8382C357.887 65.8812 382.864 92.899 397.195 124.375C411.525 155.85 414.549 190.319 405.866 223.296C397.186 256.275 377.202 286.23 348.523 309.263H348.518Z" fill="#634CC2"/>
</svg>
