<svg width="19" height="19" viewBox="0 0 19 19" fill="none" xmlns="http://www.w3.org/2000/svg">
<path d="M8.84949 15.4917C8.92212 15.5972 9.0193 15.6835 9.13266 15.7431C9.24602 15.8026 9.37217 15.8338 9.50024 15.8338C9.62831 15.8338 9.75445 15.8026 9.86782 15.7431C9.98118 15.6835 10.0784 15.5972 10.151 15.4917L17.276 5.20007C17.3585 5.08137 17.4068 4.94233 17.4158 4.79807C17.4248 4.65381 17.3941 4.50984 17.327 4.3818C17.26 4.25376 17.1591 4.14656 17.0353 4.07183C16.9116 3.99711 16.7698 3.95772 16.6252 3.95795H2.37524C2.23103 3.95854 2.08972 3.99844 1.96649 4.07334C1.84326 4.14825 1.74278 4.25533 1.67586 4.38307C1.60893 4.51081 1.5781 4.65437 1.58667 4.79833C1.59524 4.94228 1.64289 5.08117 1.72449 5.20007L8.84949 15.4917Z" fill="white"/>
</svg>
