<svg width="45" height="45" viewBox="0 0 45 45" fill="none" xmlns="http://www.w3.org/2000/svg">
<path d="M37.5005 7.50092H7.50046C5.43233 7.50092 3.75046 9.18279 3.75046 11.2509V33.7509C3.75046 35.819 5.43233 37.5009 7.50046 37.5009H37.5005C39.5686 37.5009 41.2505 35.819 41.2505 33.7509V11.2509C41.2505 9.18279 39.5686 7.50092 37.5005 7.50092ZM37.5005 11.2509V12.209L22.5005 23.8772L7.50046 12.2109V11.2509H37.5005ZM7.50046 33.7509V16.9584L21.3492 27.7303C21.6775 27.9882 22.0829 28.1284 22.5005 28.1284C22.918 28.1284 23.3234 27.9882 23.6517 27.7303L37.5005 16.9584L37.5042 33.7509H7.50046Z" fill="#634CC2"/>
</svg>
