<svg width="59" height="59" viewBox="0 0 59 59" fill="none" xmlns="http://www.w3.org/2000/svg">
<path d="M50.5279 19.6873C50.5415 15.9779 49.0836 12.4146 46.474 9.77852C43.8643 7.14246 40.3158 5.64882 36.6065 5.62511L36.4993 5.62476C32.7745 5.6296 29.2042 7.11389 26.5737 9.7511C23.9432 12.3883 22.4681 15.9624 22.4728 19.6873C22.4728 25.7229 21.2285 29.1302 20.1849 30.926C19.9356 31.3531 19.8033 31.8383 19.8014 32.3328C19.7995 32.8272 19.928 33.3135 20.1739 33.7424C20.4198 34.1714 20.7745 34.528 21.2022 34.7761C21.6299 35.0243 22.1155 35.1553 22.6099 35.156H29.4684C29.4684 37.0208 30.2092 38.8092 31.5278 40.1278C32.8464 41.4465 34.6348 42.1873 36.4996 42.1873C38.3644 42.1873 40.1529 41.4465 41.4715 40.1278C42.7901 38.8092 43.5309 37.0208 43.5309 35.156H50.3894C50.8838 35.1554 51.3693 35.0244 51.7969 34.7763C52.2245 34.5281 52.5792 34.1717 52.8252 33.7428C53.0711 33.3139 53.1996 32.8277 53.1978 32.3333C53.1959 31.8389 53.0638 31.3537 52.8146 30.9267C51.7715 29.1309 50.5277 25.7232 50.5277 19.6873H50.5279ZM36.4996 39.3748C35.3811 39.3735 34.3088 38.9286 33.5179 38.1377C32.727 37.3468 32.2822 36.2745 32.2809 35.156H40.7184C40.7171 36.2745 40.2723 37.3468 39.4814 38.1377C38.6905 38.9286 37.6181 39.3735 36.4996 39.3748ZM22.6163 32.3395C23.8339 30.2447 25.2853 26.3494 25.2853 19.6873C25.2807 16.7083 26.4596 13.8494 28.5627 11.7396C30.6659 9.62986 33.521 8.44196 36.5 8.43726L36.5856 8.43761C39.5526 8.45579 42.3911 9.65067 44.4778 11.7599C46.5646 13.8691 47.729 16.7203 47.7154 19.6873C47.7154 26.3494 49.1661 30.2447 50.3894 32.3435L22.6163 32.3395ZM53.5304 12.881C53.3647 12.9627 53.1846 13.011 53.0003 13.0231C52.816 13.0352 52.6311 13.0108 52.4562 12.9513C52.2813 12.8919 52.1199 12.7986 51.9811 12.6767C51.8423 12.5548 51.7289 12.4067 51.6474 12.241C50.2662 9.43819 48.1362 7.07237 45.4933 5.40556C45.3361 5.3075 45.1998 5.17932 45.0922 5.02841C44.9847 4.87749 44.908 4.70681 44.8667 4.52617C44.8253 4.34553 44.8201 4.1585 44.8512 3.97583C44.8824 3.79316 44.9494 3.61844 45.0483 3.46174C45.1472 3.30503 45.2761 3.16942 45.4276 3.0627C45.5791 2.95598 45.7502 2.88025 45.9311 2.83987C46.1119 2.79949 46.299 2.79526 46.4815 2.82742C46.664 2.85957 46.8383 2.92748 46.9945 3.02724C50.0763 4.9709 52.56 7.72969 54.1704 10.998C54.252 11.1637 54.3002 11.3438 54.3122 11.5281C54.3242 11.7124 54.2998 11.8972 54.2404 12.0721C54.1809 12.2469 54.0877 12.4084 53.9658 12.5472C53.844 12.686 53.696 12.7994 53.5304 12.881ZM20.0894 13.026C19.8505 13.0257 19.6156 12.9646 19.4069 12.8484C19.1981 12.7322 19.0224 12.5648 18.8963 12.3619C18.7702 12.159 18.6978 11.9273 18.686 11.6887C18.6742 11.4501 18.7234 11.2124 18.8289 10.998C20.4394 7.72973 22.9231 4.971 26.005 3.02741C26.1611 2.92628 26.3358 2.85714 26.5189 2.824C26.702 2.79086 26.8898 2.79438 27.0715 2.83435C27.2532 2.87432 27.4252 2.94994 27.5774 3.05685C27.7297 3.16375 27.8592 3.2998 27.9585 3.45713C28.0578 3.61445 28.1249 3.78992 28.156 3.97336C28.187 4.15681 28.1813 4.34458 28.1392 4.5258C28.0971 4.70703 28.0195 4.87811 27.9108 5.02912C27.8022 5.18013 27.6646 5.30808 27.5062 5.40556C24.8632 7.07237 22.7332 9.43819 21.352 12.241C21.2359 12.4767 21.0561 12.6752 20.8329 12.814C20.6098 12.9527 20.3522 13.0262 20.0894 13.026Z" fill="#634CC2"/>
</svg>
