<svg width="45" height="45" viewBox="0 0 45 45" fill="none" xmlns="http://www.w3.org/2000/svg">
<path d="M22.4981 13.8318C20.1987 13.8318 17.9935 14.7452 16.3675 16.3712C14.7416 17.9971 13.8281 20.2024 13.8281 22.5018C13.8281 24.8012 14.7416 27.0065 16.3675 28.6324C17.9935 30.2583 20.1987 31.1718 22.4981 31.1718C24.7976 31.1718 27.0028 30.2583 28.6287 28.6324C30.2547 27.0065 31.1681 24.8012 31.1681 22.5018C31.1681 20.2024 30.2547 17.9971 28.6287 16.3712C27.0028 14.7452 24.7976 13.8318 22.4981 13.8318ZM22.4981 28.1324C21.0043 28.1324 19.5716 27.539 18.5153 26.4827C17.459 25.4264 16.8656 23.9937 16.8656 22.4999C16.8656 21.0061 17.459 19.5734 18.5153 18.5171C19.5716 17.4608 21.0043 16.8674 22.4981 16.8674C23.992 16.8674 25.4246 17.4608 26.4809 18.5171C27.5372 19.5734 28.1306 21.0061 28.1306 22.4999C28.1306 23.9937 27.5372 25.4264 26.4809 26.4827C25.4246 27.539 23.992 28.1324 22.4981 28.1324Z" fill="#634CC2"/>
<path d="M31.5112 15.5344C32.6275 15.5344 33.5325 14.6295 33.5325 13.5132C33.5325 12.3969 32.6275 11.4919 31.5112 11.4919C30.3949 11.4919 29.49 12.3969 29.49 13.5132C29.49 14.6295 30.3949 15.5344 31.5112 15.5344Z" fill="#634CC2"/>
<path d="M38.4994 11.4581C38.0653 10.3372 37.402 9.3193 36.5519 8.46951C35.7018 7.61971 34.6836 6.95678 33.5625 6.52315C32.2506 6.03069 30.8647 5.76441 29.4638 5.73565C27.6581 5.6569 27.0863 5.6344 22.5075 5.6344C17.9288 5.6344 17.3419 5.6344 15.5513 5.73565C14.1514 5.76294 12.7664 6.02928 11.4563 6.52315C10.3349 6.95628 9.31644 7.61903 8.46625 8.46889C7.61607 9.31875 6.95293 10.3369 6.51938 11.4581C6.02682 12.7699 5.76116 14.156 5.73375 15.5569C5.65313 17.3606 5.62875 17.9325 5.62875 22.5131C5.62875 27.0919 5.62875 27.675 5.73375 29.4694C5.76188 30.8719 6.02625 32.2556 6.51938 33.57C6.95415 34.6908 7.61793 35.7086 8.46832 36.5583C9.31871 37.4081 10.337 38.0711 11.4581 38.505C12.7658 39.0173 14.1513 39.3026 15.555 39.3488C17.3606 39.4275 17.9325 39.4519 22.5113 39.4519C27.09 39.4519 27.6769 39.4519 29.4675 39.3488C30.8683 39.3203 32.2542 39.0546 33.5663 38.5631C34.687 38.1285 35.7049 37.465 36.5549 36.615C37.405 35.7649 38.0685 34.7471 38.5031 33.6263C38.9962 32.3138 39.2606 30.93 39.2887 29.5275C39.3694 27.7238 39.3937 27.1519 39.3937 22.5713C39.3937 17.9906 39.3937 17.4094 39.2887 15.615C39.2669 14.1943 38.9999 12.788 38.4994 11.4581ZM36.2156 29.3306C36.2035 30.4112 36.0063 31.4817 35.6325 32.4956C35.3509 33.2248 34.9199 33.8869 34.367 34.4394C33.8142 34.9919 33.1518 35.4226 32.4225 35.7038C31.4198 36.0759 30.3607 36.2731 29.2913 36.2869C27.51 36.3694 27.0075 36.39 22.44 36.39C17.8688 36.39 17.4019 36.39 15.5869 36.2869C14.518 36.2738 13.4594 36.0765 12.4575 35.7038C11.7257 35.4244 11.0606 34.9944 10.5054 34.4418C9.95021 33.8892 9.51719 33.2262 9.23438 32.4956C8.86584 31.4926 8.66871 30.4347 8.65125 29.3663C8.57063 27.585 8.55188 27.0825 8.55188 22.515C8.55188 17.9456 8.55188 17.4788 8.65125 15.6619C8.66337 14.5819 8.86061 13.5121 9.23438 12.4988C9.80625 11.0194 10.9781 9.85502 12.4575 9.28877C13.4599 8.91779 14.5182 8.72058 15.5869 8.70565C17.37 8.62502 17.8706 8.60252 22.44 8.60252C27.0094 8.60252 27.4781 8.60252 29.2913 8.70565C30.3608 8.71852 31.42 8.91578 32.4225 9.28877C33.1517 9.57054 33.814 10.0017 34.3668 10.5545C34.9196 11.1073 35.3507 11.7695 35.6325 12.4988C36.001 13.5018 36.1982 14.5597 36.2156 15.6281C36.2962 17.4113 36.3169 17.9119 36.3169 22.4813C36.3169 27.0488 36.3169 27.54 36.2362 29.3325H36.2156V29.3306Z" fill="#634CC2"/>
</svg>
