<svg width="45" height="45" viewBox="0 0 45 45" fill="none" xmlns="http://www.w3.org/2000/svg">
<path d="M9.34313 13.4944C11.6089 13.4944 13.4456 11.6577 13.4456 9.39193C13.4456 7.12618 11.6089 5.28943 9.34313 5.28943C7.07738 5.28943 5.24063 7.12618 5.24063 9.39193C5.24063 11.6577 7.07738 13.4944 9.34313 13.4944Z" fill="#634CC2"/>
<path d="M17.3194 16.6031V39.3638H24.3863V28.1081C24.3863 25.1381 24.945 22.2619 28.6275 22.2619C32.2594 22.2619 32.3044 25.6575 32.3044 28.2956V39.3657H39.375V26.8838C39.375 20.7525 38.055 16.0406 30.8888 16.0406C27.4481 16.0406 25.1419 17.9288 24.1988 19.7156H24.1031V16.6031H17.3194ZM5.80313 16.6031H12.8813V39.3638H5.80313V16.6031Z" fill="#634CC2"/>
</svg>
