<svg width="45" height="45" viewBox="0 0 45 45" fill="none" xmlns="http://www.w3.org/2000/svg">
<path d="M36.8119 14.9944C36.8363 15.3225 36.8363 15.6488 36.8363 15.975C36.8363 25.9594 29.2369 37.4644 15.3488 37.4644C11.07 37.4644 7.095 36.225 3.75 34.0725C4.3575 34.1419 4.9425 34.1663 5.57438 34.1663C8.97374 34.1745 12.2768 33.0378 14.9513 30.9394C13.3752 30.9109 11.8473 30.3909 10.5811 29.452C9.31481 28.5132 8.37335 27.2023 7.88812 25.7025C8.355 25.7719 8.82375 25.8188 9.315 25.8188C9.99187 25.8188 10.6725 25.725 11.3044 25.5619C9.59392 25.2165 8.05589 24.2894 6.95179 22.9382C5.84768 21.5869 5.24567 19.895 5.24813 18.15V18.0563C6.255 18.6169 7.42312 18.9675 8.66062 19.0144C7.62392 18.3255 6.77385 17.3907 6.18626 16.2934C5.59867 15.1961 5.29184 13.9704 5.29312 12.7256C5.29312 11.3231 5.66625 10.0369 6.32063 8.91565C8.21838 11.2501 10.5853 13.1598 13.2681 14.5213C15.9509 15.8827 18.8898 16.6654 21.8944 16.8188C21.7781 16.2563 21.7069 15.6731 21.7069 15.0881C21.7064 14.0962 21.9014 13.1139 22.2808 12.1973C22.6601 11.2808 23.2164 10.448 23.9179 9.74662C24.6193 9.04521 25.452 8.48892 26.3686 8.10954C27.2851 7.73017 28.2674 7.53515 29.2594 7.53565C31.4344 7.53565 33.3975 8.4469 34.7775 9.92065C36.4683 9.59368 38.0898 8.97644 39.57 8.09627C39.0064 9.84155 37.8258 11.3215 36.2494 12.2588C37.749 12.0877 39.2146 11.6934 40.5975 11.0888C39.5646 12.5946 38.2847 13.915 36.8119 14.9944Z" fill="#634CC2"/>
</svg>
