<svg width="45" height="45" viewBox="0 0 45 45" fill="none" xmlns="http://www.w3.org/2000/svg">
<path d="M40.4869 13.5056C40.2733 12.7133 39.8559 11.9906 39.2763 11.4097C38.6967 10.8288 37.975 10.4098 37.1831 10.1944C34.2469 9.38814 22.5 9.37501 22.5 9.37501C22.5 9.37501 10.755 9.36189 7.81688 10.1325C7.02549 10.3578 6.3053 10.7827 5.72544 11.3665C5.14559 11.9503 4.72554 12.6734 4.50563 13.4663C3.73126 16.4025 3.72376 22.4925 3.72376 22.4925C3.72376 22.4925 3.71626 28.6125 4.48501 31.5188C4.91626 33.1256 6.18188 34.395 7.79063 34.8281C10.7569 35.6344 22.4719 35.6475 22.4719 35.6475C22.4719 35.6475 34.2188 35.6606 37.155 34.8919C37.9472 34.6769 38.6695 34.2589 39.2506 33.6791C39.8317 33.0993 40.2514 32.378 40.4681 31.5863C41.2444 28.6519 41.25 22.5638 41.25 22.5638C41.25 22.5638 41.2875 16.4419 40.4869 13.5056ZM18.7425 28.1344L18.7519 16.8844L28.515 22.5188L18.7425 28.1344Z" fill="#634CC2"/>
</svg>
