<svg width="61" height="60" viewBox="0 0 61 60" fill="none" xmlns="http://www.w3.org/2000/svg">
<path d="M8.408 33.6H1.208C0.889741 33.6 0.584517 33.7264 0.359473 33.9515C0.13443 34.1765 0.00800105 34.4817 0.00800105 34.8V58.8C0.00800105 59.1183 0.13443 59.4235 0.359473 59.6485C0.584517 59.8736 0.889741 60 1.208 60H8.408C8.72626 60 9.03148 59.8736 9.25653 59.6485C9.48157 59.4235 9.608 59.1183 9.608 58.8V57.6963C11.2624 59.1666 13.3948 59.9853 15.608 60H54.008C55.0277 59.9714 56.0293 59.7236 56.9447 59.2734C57.8751 58.7428 58.6486 57.9755 59.1866 57.0493C59.7246 56.1231 60.008 55.0711 60.008 54C60.008 52.9289 59.7246 51.8769 59.1866 50.9507C58.6486 50.0245 57.8751 49.2572 56.9447 48.7266C56.0293 48.2763 55.0277 48.0285 54.008 48H37.3532C38.0805 46.9436 38.4502 45.6819 38.408 44.4C38.4378 43.16 38.0871 41.9406 37.4029 40.9059C40.0738 39.1046 41.9916 36.3867 42.7935 33.2666C43.5954 30.1465 43.2257 26.8406 41.7544 23.9747C41.8395 23.9793 41.9224 24 42.008 24C43.4713 23.8855 44.8877 23.4313 46.1447 22.6734C47.0777 22.1016 48.1221 21.7356 49.208 21.6H50.408V25.2C50.408 25.5183 50.5344 25.8235 50.7595 26.0485C50.9845 26.2736 51.2897 26.4 51.608 26.4H58.808C59.1263 26.4 59.4315 26.2736 59.6565 26.0485C59.8816 25.8235 60.008 25.5183 60.008 25.2V1.2C60.008 0.88174 59.8816 0.576516 59.6565 0.351472C59.4315 0.126428 59.1263 0 58.808 0H51.608C51.2897 0 50.9845 0.126428 50.7595 0.351472C50.5344 0.576516 50.408 0.88174 50.408 1.2V2.30369C48.7536 0.83344 46.6212 0.014705 44.408 0H6.008C4.98829 0.0286038 3.98669 0.276406 3.07128 0.726564C2.10283 1.21203 1.29713 1.96959 0.752995 2.90633C0.208856 3.84307 -0.0500607 4.91825 0.00800105 6C-0.0500607 7.08175 0.208856 8.15693 0.752995 9.09367C1.29713 10.0304 2.10283 10.788 3.07128 11.2734C3.98665 11.7237 4.98828 11.9715 6.008 12H22.6628C21.9355 13.0564 21.5658 14.3181 21.608 15.6C21.5782 16.84 21.9289 18.0594 22.6131 19.0941C19.9422 20.8954 18.0244 23.6133 17.2225 26.7334C16.4206 29.8535 16.7903 33.1594 18.2616 36.0253C18.1765 36.0207 18.0936 36 18.008 36C16.5447 36.1145 15.1283 36.5687 13.8713 37.3266C12.9383 37.8984 11.8939 38.2644 10.808 38.4H9.608V34.8C9.608 34.4817 9.48157 34.1765 9.25653 33.9515C9.03148 33.7264 8.72626 33.6 8.408 33.6ZM7.208 39.6V57.6H2.408V36H7.208V39.6ZM52.808 20.4V2.4H57.608V24H52.808V20.4ZM6.008 9.6C5.36171 9.56749 4.72833 9.40677 4.14473 9.1272C3.57312 8.84252 3.1012 8.39132 2.79116 7.83306C2.48113 7.2748 2.34754 6.6357 2.408 6C2.38231 5.52048 2.45784 5.04093 2.62967 4.59252C2.8015 4.14412 3.06579 3.7369 3.40534 3.39734C3.7449 3.05779 4.15212 2.7935 4.60053 2.62167C5.04893 2.44984 5.52849 2.37431 6.008 2.4H44.408C44.6529 2.4 50.408 2.46797 50.408 8.4V19.2H49.208C47.7447 19.3145 46.3283 19.7687 45.0713 20.5266C44.1383 21.0984 43.0939 21.4644 42.008 21.6C41.0342 21.4932 40.0945 21.1796 39.2518 20.6801L39.2506 20.6797L38.926 20.5178C37.6747 19.7639 36.2646 19.3126 34.808 19.2H27.608C26.7511 19.1647 25.9216 18.8877 25.2154 18.4011C24.8019 18.0673 24.4758 17.6378 24.2655 17.1498C24.0551 16.6618 23.9667 16.1298 24.008 15.6C23.9824 15.1205 24.0579 14.641 24.2298 14.1926C24.4017 13.7442 24.6659 13.337 25.0055 12.9975C25.345 12.6579 25.7522 12.3937 26.2006 12.2218C26.649 12.0499 27.1285 11.9744 27.608 12H39.608C39.9263 12 40.2315 11.8736 40.4565 11.6485C40.6816 11.4235 40.808 11.1183 40.808 10.8C40.808 10.4817 40.6816 10.1765 40.4565 9.95147C40.2315 9.72643 39.9263 9.6 39.608 9.6H6.008ZM24.4428 20.7545C24.6296 20.8578 24.8217 20.9515 25.0181 21.0352C25.0579 21.0522 25.096 21.0642 25.1356 21.0802C25.2943 21.1446 25.4516 21.204 25.6042 21.2533C25.6692 21.2743 25.7311 21.2907 25.7945 21.3092C25.9173 21.3451 26.0386 21.3792 26.1539 21.4066C26.2195 21.4221 26.2823 21.4355 26.3449 21.4486C26.4505 21.4706 26.5531 21.4908 26.649 21.5067C26.7056 21.5161 26.7617 21.5255 26.8145 21.533C26.9051 21.5458 26.9898 21.5565 27.0676 21.5647C27.1099 21.5691 27.1554 21.5746 27.1934 21.5779C27.2706 21.5847 27.3375 21.5892 27.3955 21.5922L27.4638 21.5963C27.5299 21.599 27.5833 21.5999 27.608 21.5999H34.808C35.8873 21.7337 36.9256 22.0967 37.8531 22.6646L37.9902 22.7331C39.0667 23.9126 39.8677 25.3166 40.3354 26.8434C40.8031 28.3703 40.9257 29.982 40.6944 31.562C40.4631 33.1421 39.8837 34.651 38.9981 35.9798C38.1124 37.3086 36.9426 38.424 35.5732 39.2455C35.3864 39.1422 35.1943 39.0485 34.9979 38.9648C34.9581 38.9478 34.92 38.9358 34.8804 38.9198C34.7214 38.8553 34.5647 38.7961 34.4118 38.7467C34.3468 38.7257 34.2849 38.7093 34.2215 38.6908C34.0981 38.6548 33.978 38.6209 33.8621 38.5934C33.7965 38.5779 33.7337 38.5645 33.6711 38.5514C33.5644 38.5292 33.4639 38.5093 33.367 38.4933C33.3104 38.4839 33.2543 38.4745 33.2015 38.467C33.1093 38.4538 33.0274 38.4436 32.9484 38.4353C32.9061 38.4309 32.8606 38.4254 32.8226 38.4221C32.7433 38.4152 32.6796 38.4109 32.6205 38.4078L32.5522 38.4037C32.4842 38.4009 32.4331 38.4 32.408 38.4H25.208C24.1287 38.2662 23.0904 37.9032 22.1629 37.3353L22.0258 37.2668C20.9493 36.0873 20.1483 34.6834 19.6806 33.1565C19.213 31.6297 19.0904 30.018 19.3217 28.4379C19.5529 26.8579 20.1323 25.349 21.018 24.0202C21.9036 22.6914 23.0734 21.576 24.4428 20.7545V20.7545ZM10.808 40.8C12.2713 40.6855 13.6877 40.2313 14.9447 39.4734C15.8777 38.9016 16.9221 38.5356 18.008 38.4C18.9818 38.5068 19.9215 38.8204 20.7643 39.3199L20.7655 39.3202L21.09 39.4822C22.3413 40.2361 23.7514 40.6874 25.208 40.8H32.408C33.2649 40.8353 34.0944 41.1123 34.8006 41.5989C35.2141 41.9327 35.5402 42.3622 35.7505 42.8502C35.9609 43.3382 36.0493 43.8702 36.008 44.4C36.0336 44.8795 35.9581 45.359 35.7862 45.8074C35.6143 46.2558 35.3501 46.663 35.0105 47.0025C34.671 47.3421 34.2638 47.6063 33.8154 47.7782C33.367 47.9501 32.8875 48.0256 32.408 48H20.408C20.0897 48 19.7845 48.1264 19.5595 48.3515C19.3344 48.5765 19.208 48.8817 19.208 49.2C19.208 49.5183 19.3344 49.8235 19.5595 50.0485C19.7845 50.2736 20.0897 50.4 20.408 50.4H54.008C54.6543 50.4325 55.2877 50.5932 55.8713 50.8728C56.4429 51.1575 56.9148 51.6087 57.2248 52.1669C57.5349 52.7252 57.6685 53.3643 57.608 54C57.6337 54.4795 57.5582 54.9591 57.3863 55.4075C57.2145 55.8559 56.9502 56.2631 56.6107 56.6027C56.2711 56.9422 55.8639 57.2065 55.4155 57.3783C54.9671 57.5502 54.4875 57.6257 54.008 57.6H15.608C15.3631 57.6 9.608 57.532 9.608 51.6V40.8H10.808Z" fill="white"/>
<path d="M28.808 22.8V24.2211C28.0926 24.4705 27.4748 24.9405 27.0437 25.5635C26.6125 26.1865 26.3903 26.9303 26.4091 27.6877C26.4279 28.4451 26.6866 29.177 27.148 29.7779C27.6095 30.3788 28.2498 30.8177 28.9767 31.0313C29.3103 31.1381 29.6578 31.195 30.008 31.2C30.2454 31.2 30.4774 31.2704 30.6747 31.4022C30.872 31.5341 31.0258 31.7215 31.1167 31.9408C31.2075 32.16 31.2313 32.4013 31.185 32.6341C31.1387 32.8669 31.0244 33.0807 30.8565 33.2485C30.6887 33.4163 30.4749 33.5306 30.2421 33.5769C30.0093 33.6232 29.7681 33.5995 29.5488 33.5087C29.3295 33.4178 29.1421 33.264 29.0103 33.0667C28.8784 32.8693 28.808 32.6373 28.808 32.4C28.808 32.0817 28.6816 31.7765 28.4565 31.5515C28.2315 31.3264 27.9263 31.2 27.608 31.2C27.2898 31.2 26.9845 31.3264 26.7595 31.5515C26.5344 31.7765 26.408 32.0817 26.408 32.4C26.4103 33.1421 26.6422 33.8652 27.0719 34.4702C27.5017 35.0752 28.1081 35.5323 28.808 35.7788V37.2C28.808 37.5183 28.9344 37.8235 29.1595 38.0485C29.3845 38.2736 29.6898 38.4 30.008 38.4C30.3263 38.4 30.6315 38.2736 30.8565 38.0485C31.0816 37.8235 31.208 37.5183 31.208 37.2V35.7789C31.9234 35.5295 32.5412 35.0595 32.9723 34.4365C33.4035 33.8135 33.6257 33.0697 33.6069 32.3123C33.5882 31.5549 33.3294 30.823 32.868 30.2221C32.4066 29.6211 31.7663 29.1822 31.0394 28.9686C30.7058 28.8618 30.3583 28.805 30.008 28.8C29.7707 28.8 29.5387 28.7296 29.3413 28.5978C29.144 28.4659 28.9902 28.2785 28.8994 28.0592C28.8085 27.8399 28.7848 27.5987 28.8311 27.3659C28.8774 27.1331 28.9917 26.9193 29.1595 26.7515C29.3273 26.5836 29.5411 26.4694 29.7739 26.4231C30.0067 26.3768 30.248 26.4005 30.4672 26.4913C30.6865 26.5822 30.8739 26.736 31.0058 26.9333C31.1376 27.1307 31.208 27.3627 31.208 27.6C31.208 27.9183 31.3344 28.2235 31.5595 28.4485C31.7845 28.6736 32.0898 28.8 32.408 28.8C32.7263 28.8 33.0315 28.6736 33.2565 28.4485C33.4816 28.2235 33.608 27.9183 33.608 27.6C33.6057 26.8579 33.3738 26.1348 32.9441 25.5298C32.5144 24.9248 31.9079 24.4677 31.208 24.2211V22.8C31.208 22.4817 31.0816 22.1765 30.8565 21.9515C30.6315 21.7264 30.3263 21.6 30.008 21.6C29.6898 21.6 29.3845 21.7264 29.1595 21.9515C28.9344 22.1765 28.808 22.4817 28.808 22.8Z" fill="white"/>
</svg>
