<svg width="60" height="61" viewBox="0 0 60 61" fill="none" xmlns="http://www.w3.org/2000/svg">
<path d="M41.1042 16.6586C40.6509 16.7184 40.2318 16.9316 39.9167 17.2628L17.25 39.9295C17.0454 40.1108 16.8802 40.3322 16.7645 40.5799C16.6488 40.8277 16.5851 41.0965 16.5774 41.3698C16.5697 41.6431 16.6181 41.9151 16.7196 42.169C16.8211 42.4228 16.9736 42.6532 17.1677 42.8458C17.3617 43.0384 17.5932 43.1892 17.8478 43.2889C18.1024 43.3885 18.3747 43.4349 18.648 43.4252C18.9212 43.4155 19.1896 43.3498 19.4364 43.2323C19.6833 43.1148 19.9035 42.9479 20.0833 42.742L42.75 20.0753C43.05 19.7827 43.2506 19.4033 43.3234 18.9906C43.3962 18.5779 43.3375 18.1527 43.1556 17.7752C42.9737 17.3976 42.6779 17.0867 42.3098 16.8864C41.9417 16.686 41.52 16.6064 41.1042 16.6586V16.6586Z" fill="white"/>
<path d="M18.4375 16.6586C18.0606 16.6991 17.7029 16.8457 17.4062 17.0816C17.1094 17.3174 16.8858 17.6327 16.7614 17.9908C16.6369 18.3488 16.6168 18.7349 16.7033 19.1039C16.7898 19.473 16.9794 19.8099 17.25 20.0753L39.9167 42.742C40.0965 42.9479 40.3167 43.1148 40.5636 43.2323C40.8104 43.3498 41.0788 43.4155 41.352 43.4252C41.6253 43.4349 41.8976 43.3885 42.1522 43.2889C42.4068 43.1892 42.6383 43.0384 42.8323 42.8458C43.0264 42.6532 43.1789 42.4228 43.2804 42.169C43.3819 41.9151 43.4303 41.6431 43.4226 41.3698C43.4149 41.0965 43.3512 40.8277 43.2355 40.5799C43.1199 40.3322 42.9546 40.1108 42.75 39.9295L20.0833 17.2628C19.8729 17.0437 19.6153 16.8755 19.3301 16.7708C19.045 16.6661 18.7397 16.6278 18.4375 16.6586V16.6586Z" fill="white"/>
<path d="M4 0.0128174C1.81859 0.0128174 0 1.83141 0 4.01282V56.0128C0 58.1942 1.81859 60.0128 4 60.0128H56C58.1814 60.0128 60 58.1942 60 56.0128V4.01282C60 1.83141 58.1814 0.0128174 56 0.0128174H4ZM4 4.01282H56V56.0128H4V4.01282Z" fill="white"/>
</svg>
