<svg width="57" height="60" viewBox="0 0 57 60" fill="none" xmlns="http://www.w3.org/2000/svg">
<path d="M31.4994 60C29.7059 60 26.6896 59.1848 23.1842 58.2065L22.532 58.0435C18.2928 56.9022 13.4831 55.5163 9.73307 55.5163H8.18415C7.69502 55.5163 7.69502 55.5163 5.90155 53.1522C4.35263 51.1957 1.9885 48.0978 0.195025 46.3043C0.0319812 46.1413 -0.0495403 45.8152 0.0319814 45.5706C0.113503 45.3261 0.358069 45.0815 0.602634 45C2.80372 44.5109 5.00481 43.5326 7.36894 42.5543C11.8526 40.5978 16.4178 38.5598 21.3092 40.0272C28.32 42.1467 35.0048 45.5706 35.0863 45.5706C37.0428 46.6304 37.532 48.913 36.9613 50.462C36.3092 52.337 34.2711 53.2337 31.907 52.663C27.0157 51.5217 23.9994 50.7065 22.9396 50.3804C22.532 50.2174 22.2874 49.8098 22.4505 49.4022C22.6135 48.9946 23.0211 48.75 23.4287 48.913C24.4885 49.2391 27.4233 50.0543 32.2331 51.1141C33.8635 51.5217 35.0048 51.0326 35.4939 49.8913C35.82 48.913 35.4939 47.6087 34.3526 46.9565C34.2711 46.9565 27.7494 43.5326 20.9015 41.4946C16.6624 40.1902 12.2602 42.1467 8.10263 44.0217C6.22763 44.837 4.27111 45.7337 2.31459 46.3043C4.02655 48.1793 5.90155 50.625 7.20589 52.337C7.77655 53.0707 8.3472 53.7228 8.59176 54.0489H9.81459C13.7276 54.0489 18.7005 55.4348 23.0211 56.5761L23.6733 56.7391C26.9342 57.6359 29.9505 58.5326 31.5809 58.5326C36.9613 58.5326 38.9994 57.5543 52.695 50.8696L53.1026 50.7065C54.8146 49.8913 55.0591 48.5054 54.7331 47.4457C54.407 46.3859 53.3472 45.8967 51.8798 46.1413L39.407 50.5435C38.9994 50.7065 38.5918 50.462 38.4287 50.0543C38.2657 49.6467 38.5102 49.2391 38.9178 49.0761L51.3907 44.6739H51.4722C53.7548 44.1848 55.6298 45.0815 56.2005 46.9565C56.7711 48.6685 56.2005 50.8696 53.6733 52.0924L53.2657 52.2554C39.3255 59.0217 37.2059 60 31.4994 60Z" fill="white"/>
<path d="M42.2602 0H15.8472C15.4396 0 15.032 0.326087 15.032 0.815217V36.1956C15.032 36.6033 15.3581 37.0109 15.8472 37.0109H34.5972C34.6787 37.0109 34.8418 37.0109 34.9233 36.9293C35.0048 36.9293 35.0863 36.8478 35.1678 36.7663L42.8309 28.9402C42.8309 28.9402 42.8309 28.8587 42.9124 28.8587C42.9939 28.7772 42.9939 28.7772 42.9939 28.6957C42.9939 28.6141 42.9939 28.5326 42.9939 28.5326V28.4511V0.733696C42.9939 0.326087 42.6678 0 42.2602 0ZM16.6624 1.54891H41.5265V27.5543H34.6787C34.2711 27.5543 33.8635 27.8804 33.8635 28.3696V35.462H16.6624V1.54891ZM40.3852 29.1033L35.4124 34.2391V29.1033H40.3852Z" fill="white"/>
<path d="M29.2168 21.1141C28.9722 21.1141 28.8092 21.0326 28.6461 20.8696L25.0592 17.1196C24.7331 16.7935 24.7331 16.3044 25.0592 16.0598C25.3852 15.7337 25.8744 15.7337 26.1189 16.0598L29.0537 19.0761L35.9015 8.88587C36.1461 8.55978 36.6352 8.39674 36.9613 8.64131C37.2874 8.88587 37.4505 9.375 37.2059 9.70109L29.7874 20.7065C29.7874 20.9511 29.5428 21.1141 29.2168 21.1141C29.2983 21.1141 29.2983 21.1141 29.2168 21.1141Z" fill="white"/>
<path d="M29.5428 24.9457C24.9776 24.9457 21.3907 21.3587 21.3907 16.7935C21.3907 12.3098 25.0592 8.64131 29.6244 8.64131C30.5211 8.64131 31.3363 8.72283 32.07 8.9674C32.4776 9.13044 32.7222 9.53805 32.5592 9.94566C32.3961 10.3533 31.9885 10.5978 31.5809 10.4348C31.0102 10.2717 30.4396 10.1902 29.6244 10.1902C25.9559 10.1902 22.9396 13.125 22.9396 16.7935C22.9396 20.5435 25.8744 23.3967 29.5428 23.3967C33.2113 23.3967 36.1461 20.462 36.1461 16.7935C36.1461 16.2228 36.0646 15.7337 35.9015 15.0815C35.82 14.6739 36.0646 14.2663 36.4722 14.1033C36.8798 14.0217 37.2874 14.2663 37.4505 14.6739C37.6135 15.4076 37.695 15.9783 37.695 16.712C37.695 21.2772 34.0265 24.9457 29.5428 24.9457Z" fill="white"/>
</svg>
