<svg width="19" height="18" viewBox="0 0 19 18" fill="none" xmlns="http://www.w3.org/2000/svg">
<path d="M9.55348 1.59488C7.44089 -0.490975 4.01794 -0.544459 1.85186 1.51465C1.77164 1.56814 1.71816 1.64836 1.66467 1.70185C-0.554891 4.00164 -0.554891 7.61177 1.66467 9.9383L8.75123 17.2121C8.96517 17.4527 9.25932 17.5597 9.55348 17.5597C9.84764 17.5597 10.1151 17.4527 10.329 17.2388L17.3353 10.072C19.5549 7.77222 19.5549 4.16209 17.3353 1.83556C15.2495 -0.330525 11.773 -0.437491 9.55348 1.59488ZM16.9609 9.69763L9.95461 16.8644C9.71393 17.1051 9.33955 17.0783 9.09887 16.8644L2.03906 9.59066C0.00668546 7.5048 0.00668546 4.21557 2.03906 2.10297C2.09254 2.04949 2.14602 1.96926 2.22625 1.91578C3.18895 1.00656 4.44581 0.551953 5.67593 0.551953C6.98628 0.551953 8.32336 1.06005 9.28607 2.10297L9.52674 2.37039L9.71393 2.15646C9.76742 2.10297 9.79416 2.07623 9.84764 2.02275C11.8533 0.124085 15.0088 0.20431 16.9342 2.20994C18.9666 4.32254 18.9666 7.61177 16.9609 9.69763Z" fill="#634CC2"/>
</svg>
