<svg width="17" height="13" viewBox="0 0 17 13" fill="none" xmlns="http://www.w3.org/2000/svg">
<path fill-rule="evenodd" clip-rule="evenodd" d="M14.1425 2.97882C15.2613 3.85895 16.2441 5.03268 17 6.5C14.5523 11.2515 9.72559 12.9243 5.60275 11.5186L7.32384 9.79748C7.69143 9.9286 8.08738 10 8.5 10C10.433 10 12 8.433 12 6.5C12 6.08738 11.9286 5.69143 11.7975 5.32385L14.1425 2.97882ZM11.3972 1.48143L9.67616 3.20253C9.30857 3.0714 8.91262 3 8.5 3C6.567 3 5 4.567 5 6.5C5 6.91262 5.0714 7.30857 5.20252 7.67616L2.8575 10.0212C1.73865 9.14105 0.755893 7.96732 0 6.5C2.44773 1.74852 7.27441 0.0756605 11.3972 1.48143ZM2.13604 12.1569L14.1569 0.13604L14.864 0.843147L2.84315 12.864L2.13604 12.1569Z" fill="#4F4F4F"/>
</svg>
