<svg width="61" height="47" viewBox="0 0 61 47" fill="none" xmlns="http://www.w3.org/2000/svg">
<g opacity="0.6">
<path d="M4.40005 0.680176C2.20697 0.680176 0.399841 2.4873 0.399841 4.68038V42.0134C0.399841 44.2065 2.20697 46.0136 4.40005 46.0136H56.3996C58.5927 46.0136 60.3998 44.2065 60.3998 42.0134V4.68038C60.3998 2.4873 58.5927 0.680176 56.3996 0.680176H4.40005ZM4.40005 3.34658H56.3996C57.1613 3.34658 57.7328 3.9181 57.7328 4.67979V36.5545L46.0453 23.763C45.7761 23.4765 45.3752 23.3193 44.9827 23.3463C44.646 23.3649 44.3182 23.5174 44.0871 23.763L34.5453 33.888L20.7335 18.45C20.4386 18.1143 19.9666 17.9432 19.5254 18.0124C19.2315 18.0603 18.9553 18.2096 18.7544 18.4291L3.06758 35.2825V4.67921C3.06758 3.91751 3.6391 3.34601 4.40079 3.34601L4.40005 3.34658ZM35.0665 10.0132C32.1369 10.0132 29.7331 12.4169 29.7331 15.3466C29.7331 18.2763 32.1367 20.68 35.0665 20.68C37.9962 20.68 40.3999 18.2763 40.3999 15.3466C40.3999 12.4169 37.9962 10.0132 35.0665 10.0132ZM35.0665 12.6796C36.555 12.6796 37.7329 13.8575 37.7329 15.346C37.7329 16.8345 36.555 18.0124 35.0665 18.0124C33.578 18.0124 32.4001 16.8345 32.4001 15.346C32.4001 13.8575 33.578 12.6796 35.0665 12.6796ZM19.7118 21.3254L39.42 43.3466H4.39886C3.63715 43.3466 3.06565 42.7751 3.06565 42.0134V39.2009L19.7118 21.3254ZM45.045 26.6378L57.7318 40.5127V42.0129C57.7318 42.7746 57.1602 43.3461 56.3986 43.3461H43.0034L36.3368 35.8881L45.045 26.6378Z" fill="white"/>
</g>
</svg>
