<svg width="44" height="43" viewBox="0 0 44 43" fill="none" xmlns="http://www.w3.org/2000/svg">
<path fill-rule="evenodd" clip-rule="evenodd" d="M5.12152 21.5C5.12152 21.8572 5.29005 22.1999 5.59003 22.4525C5.89002 22.7051 6.29688 22.847 6.72112 22.847H25.254L18.3854 28.6284C18.2366 28.7536 18.1187 28.9023 18.0382 29.0659C17.9577 29.2296 17.9163 29.4049 17.9163 29.5821C17.9163 29.7592 17.9577 29.9346 18.0382 30.0982C18.1187 30.2618 18.2366 30.4105 18.3854 30.5357C18.5341 30.661 18.7107 30.7603 18.905 30.8281C19.0993 30.8959 19.3076 30.9308 19.5179 30.9308C19.7282 30.9308 19.9365 30.8959 20.1308 30.8281C20.3251 30.7603 20.5017 30.661 20.6504 30.5357L30.248 22.4537C30.3969 22.3286 30.5151 22.1799 30.5958 22.0163C30.6764 21.8526 30.7179 21.6772 30.7179 21.5C30.7179 21.3228 30.6764 21.1474 30.5958 20.9837C30.5151 20.8201 30.3969 20.6714 30.248 20.5463L20.6504 12.4642C20.35 12.2113 19.9427 12.0692 19.5179 12.0692C19.0931 12.0692 18.6857 12.2113 18.3854 12.4642C18.085 12.7172 17.9163 13.0602 17.9163 13.4179C17.9163 13.7756 18.085 14.1187 18.3854 14.3716L25.254 20.153H6.72112C6.29688 20.153 5.89002 20.2949 5.59003 20.5475C5.29005 20.8001 5.12152 21.1427 5.12152 21.5Z" fill="#634CC2"/>
</svg>
