<svg width="60" height="60" viewBox="0 0 60 60" fill="none" xmlns="http://www.w3.org/2000/svg">
<path d="M47.2783 60.0245H12.6487C10.7222 60.0241 8.82114 59.5837 7.09064 58.7369C5.36014 57.8901 3.84589 56.6593 2.6634 55.1383C1.4809 53.6173 0.661399 51.8464 0.267394 49.9605C-0.126611 48.0746 -0.0847092 46.1237 0.389903 44.2565L7.40815 15.6064C7.53455 15.0941 7.83258 14.6407 8.25263 14.3214C8.67269 14.0022 9.18941 13.8364 9.71678 13.8518H48.3864C48.8956 13.8285 49.3983 13.9744 49.8159 14.2667C50.2335 14.5591 50.5426 14.9814 50.695 15.4678L59.4217 43.5408C60.0183 45.4476 60.1557 47.4683 59.8227 49.4383C59.4897 51.4082 58.6957 53.2715 57.5055 54.8762C56.3348 56.4877 54.7957 57.7958 53.0166 58.6914C51.2375 59.5869 49.27 60.044 47.2783 60.0245V60.0245ZM11.4483 18.4691L4.77631 45.3647C4.4792 46.5513 4.45539 47.7899 4.70668 48.9871C4.95796 50.1843 5.47779 51.3087 6.22695 52.2758C6.97612 53.2428 7.93506 54.0271 9.03148 54.5695C10.1279 55.112 11.3332 55.3984 12.5564 55.4072H47.1859C48.4423 55.4092 49.6813 55.1131 50.801 54.5432C51.9207 53.9734 52.8892 53.1459 53.627 52.129C54.386 51.1062 54.8925 49.9184 55.1052 48.6626C55.3178 47.4069 55.2306 46.1186 54.8506 44.9029L46.7242 18.4691H11.4483Z" fill="white"/>
<path d="M39.1519 32.3209C38.5396 32.3209 37.9524 32.0776 37.5194 31.6447C37.0865 31.2117 36.8432 30.6245 36.8432 30.0122V11.5432C36.8432 9.70631 36.1135 7.94468 34.8147 6.64582C33.5158 5.34696 31.7542 4.61727 29.9173 4.61727C28.0805 4.61727 26.3188 5.34696 25.02 6.64582C23.7211 7.94468 22.9914 9.70631 22.9914 11.5432V30.0122C22.9914 30.6245 22.7482 31.2117 22.3152 31.6447C21.8823 32.0776 21.2951 32.3209 20.6828 32.3209C20.0705 32.3209 19.4833 32.0776 19.0503 31.6447C18.6174 31.2117 18.3742 30.6245 18.3742 30.0122V11.5432C18.3742 8.48173 19.5903 5.54568 21.7551 3.38092C23.9198 1.21615 26.8559 0 29.9173 0C32.9788 0 35.9148 1.21615 38.0796 3.38092C40.2443 5.54568 41.4605 8.48173 41.4605 11.5432V30.0122C41.4605 30.6245 41.2173 31.2117 40.7843 31.6447C40.3514 32.0776 39.7642 32.3209 39.1519 32.3209Z" fill="white"/>
</svg>
