<svg width="60" height="60" viewBox="0 0 60 60" fill="none" xmlns="http://www.w3.org/2000/svg">
<path d="M30 0C24.0666 0 18.2664 1.75947 13.3329 5.05591C8.39943 8.35235 4.55426 13.0377 2.28363 18.5195C0.0129987 24.0013 -0.581101 30.0333 0.576455 35.8527C1.73401 41.6721 4.59123 47.0176 8.78681 51.2132C12.9824 55.4088 18.3279 58.266 24.1473 59.4235C29.9667 60.5811 35.9987 59.987 41.4805 57.7164C46.9623 55.4457 51.6476 51.6006 54.9441 46.6671C58.2405 41.7336 60 35.9334 60 30C59.991 22.0463 56.8274 14.4209 51.2033 8.79672C45.5791 3.17258 37.9537 0.00898832 30 0V0ZM30 58.5018C24.3629 58.5018 18.8524 56.8302 14.1653 53.6983C9.47818 50.5665 5.82504 46.1152 3.66781 40.9071C1.51058 35.6991 0.946147 29.9684 2.04589 24.4396C3.14564 18.9108 5.86017 13.8322 9.84621 9.8462C13.8323 5.86016 18.9108 3.14563 24.4396 2.04588C29.9684 0.946133 35.6991 1.51056 40.9072 3.66779C46.1152 5.82503 50.5665 9.47817 53.6984 14.1653C56.8302 18.8524 58.5018 24.3629 58.5018 30C58.4932 37.5565 55.4876 44.801 50.1443 50.1443C44.8011 55.4875 37.5565 58.4932 30 58.5018V58.5018Z" fill="white"/>
<path d="M49.2547 15.7454C49.1078 15.5466 48.9197 15.3818 48.7034 15.2623C48.487 15.1428 48.2474 15.0714 48.0009 15.0529C47.7544 15.0344 47.5068 15.0693 47.275 15.1552C47.0433 15.2411 46.8327 15.3759 46.6578 15.5506L15.5521 46.6553C15.3776 46.8303 15.2429 47.0408 15.1571 47.2725C15.0713 47.5042 15.0363 47.7517 15.0547 47.9981C15.0731 48.2445 15.1444 48.4841 15.2636 48.7005C15.3829 48.9169 15.5474 49.1051 15.7459 49.2522C19.8642 52.319 24.8652 53.9692 30 53.9556V53.9556C34.4362 53.9554 38.7852 52.7234 42.5624 50.397C46.3396 48.0706 49.3967 44.741 51.3931 40.7794C53.3894 36.8178 54.2465 32.3797 53.869 27.9596C53.4914 23.5395 51.894 19.311 49.2547 15.7454V15.7454ZM41.4555 22.9369C42.9452 21.6179 44.0444 20.9527 44.8844 21.7118C45.8363 22.5698 44.7191 24.1934 42.7664 26.7658C41.9578 27.7928 41.2042 28.8619 40.5086 29.9685C38.8207 32.6476 37.3178 35.4388 36.0104 38.3226C35.6164 39.2351 35.4231 41.1912 35.4371 44.1363C35.4502 45.1697 35.0831 46.1719 34.4058 46.9525C33.7284 47.7331 32.7879 48.2376 31.7629 48.3703C30.6033 48.5128 29.4353 48.5757 28.2671 48.5585C27.1959 48.5395 26.1723 48.1128 25.4047 47.3654C24.6372 46.618 24.1834 45.6061 24.1359 44.5358C24.0829 43.229 23.9315 41.928 23.683 40.6439L41.431 22.8944C41.439 22.9084 41.448 22.9229 41.4555 22.9379V22.9369ZM45.8637 45.8597C43.7872 47.9539 41.3158 49.6153 38.5928 50.7478C35.8698 51.8803 32.9492 52.4614 30 52.4574V52.4574C25.1874 52.4705 20.5 50.9242 16.6398 48.0501C16.6136 48.031 16.5919 48.0064 16.5762 47.978C16.5605 47.9496 16.5512 47.9182 16.5489 47.8858C16.5462 47.8544 16.5505 47.8227 16.5614 47.7931C16.5724 47.7634 16.5898 47.7366 16.6124 47.7145L22.381 41.9444C22.513 42.8252 22.5985 43.7124 22.6372 44.6022C22.7019 46.0538 23.3176 47.4262 24.3587 48.4398C25.3999 49.4534 26.7883 50.032 28.2411 50.0578C28.3773 50.0598 28.5141 50.0608 28.6516 50.0608C29.752 50.0602 30.8513 49.9935 31.9437 49.861C33.3337 49.6845 34.6104 49.0034 35.5312 47.9472C36.4519 46.891 36.9525 45.5334 36.9378 44.1323C36.9203 40.4092 37.2469 39.2461 37.3873 38.9194C38.6689 36.0974 40.1412 33.366 41.7941 30.7441C42.4621 29.6837 43.1854 28.6592 43.961 27.6747C45.9137 25.1028 47.9328 22.4434 45.8897 20.6031C45.4898 20.2203 44.979 19.9738 44.4304 19.8989L47.7175 16.6118C47.7374 16.5914 47.7613 16.5752 47.7877 16.5642C47.814 16.5532 47.8423 16.5477 47.8709 16.5479H47.8883C47.9207 16.55 47.9522 16.5591 47.9806 16.5748C48.009 16.5904 48.0336 16.6121 48.0526 16.6383C51.2563 20.9611 52.798 26.292 52.3964 31.6575C51.9948 37.023 49.6767 42.065 45.8652 45.8627L45.8637 45.8597Z" fill="white"/>
<path d="M45.2165 12.229C45.2004 11.9838 45.1321 11.7448 45.0162 11.5281C44.9003 11.3114 44.7394 11.122 44.5443 10.9725C39.9341 7.44735 34.2007 5.71613 28.4099 6.10069C22.6191 6.48524 17.165 8.95941 13.0614 13.0632C8.9578 17.1671 6.48396 22.6214 6.09974 28.4122C5.71553 34.203 7.44709 39.9363 10.9725 44.5463C11.1218 44.7414 11.311 44.9023 11.5276 45.0184C11.7441 45.1344 11.9829 45.2028 12.228 45.219C12.266 45.219 12.304 45.223 12.3419 45.223C12.797 45.2229 13.2335 45.0422 13.5555 44.7206L44.7186 13.5575C44.8915 13.3843 45.0254 13.1762 45.1113 12.9471C45.1972 12.718 45.233 12.4732 45.2165 12.229V12.229ZM21.8941 24.6908C21.6804 24.1859 19.7861 19.7741 19.2627 18.0142C18.7249 16.2138 18.9336 15.7384 19.2397 15.4927C19.3367 15.4097 19.4515 15.3504 19.5753 15.3194C19.699 15.2884 19.8283 15.2865 19.9529 15.3139C20.2663 15.4035 20.5562 15.5612 20.8018 15.7756C21.0473 15.99 21.2426 16.2559 21.3737 16.5544C21.8232 17.4848 24.2328 22.8969 24.8516 24.488C24.9063 24.6289 25.0024 24.75 25.1272 24.8353C25.252 24.9206 25.3996 24.9661 25.5508 24.9659C25.6435 24.9664 25.7355 24.9495 25.822 24.916C26.0071 24.8441 26.1561 24.7015 26.2362 24.5197C26.3162 24.338 26.3208 24.1318 26.2489 23.9467C25.6142 22.3136 22.411 15.3274 22.1009 14.1083C22.011 13.7949 22.0355 13.4598 22.1701 13.1629C22.3047 12.866 22.5406 12.6266 22.8355 12.4877C24.0615 11.9489 25.0369 13.507 25.5243 14.5473C25.9828 15.5251 28.4374 21.3637 28.9817 23.0872C29.0086 23.184 29.0547 23.2745 29.1173 23.3531C29.1799 23.4318 29.2577 23.4971 29.346 23.545C29.4343 23.593 29.5314 23.6227 29.6315 23.6324C29.7315 23.642 29.8325 23.6315 29.9284 23.6013C30.0243 23.5711 30.1131 23.522 30.1896 23.4567C30.2661 23.3915 30.3286 23.3116 30.3736 23.2217C30.4185 23.1317 30.4449 23.0337 30.4512 22.9334C30.4574 22.8331 30.4434 22.7325 30.41 22.6377C29.8412 20.8418 27.3187 15.228 27.0036 14.2476C26.7169 13.3607 26.8957 12.7564 27.06 12.5756C27.1692 12.4196 27.3189 12.2962 27.4929 12.2188C27.6669 12.1413 27.8588 12.1128 28.0478 12.1361C28.8579 12.2625 30.2103 13.4586 31.5746 16.4375C32.1085 17.6012 32.6234 19.0909 33.1183 20.5327C33.3545 21.2184 33.5678 21.8312 33.7715 22.3845L21.7832 34.3703C21.2489 32.962 20.6381 31.5182 19.9309 30.0185C19.47 29.0411 18.8487 27.9489 18.2484 26.8927C17.0998 24.8771 15.3688 21.8307 15.9511 21.0496C15.9886 20.9996 16.101 20.8468 16.493 20.8928C17.5852 21.0221 19.3112 22.4499 20.5197 25.2776C20.5584 25.3681 20.6146 25.45 20.6849 25.5188C20.7553 25.5876 20.8385 25.6418 20.9299 25.6784C21.0212 25.715 21.1188 25.7333 21.2172 25.7322C21.3156 25.7311 21.4128 25.7106 21.5033 25.6719C21.5938 25.6332 21.6758 25.577 21.7445 25.5067C21.8133 25.4363 21.8676 25.3531 21.9042 25.2617C21.9408 25.1704 21.959 25.0727 21.9579 24.9743C21.9568 24.876 21.9363 24.7787 21.8976 24.6883L21.8941 24.6908ZM43.6588 12.4967L34.9442 21.2129C34.7998 20.8039 34.661 20.4033 34.5371 20.0433C34.0287 18.5685 33.5029 17.0438 32.939 15.8133C32.1225 14.0309 30.4315 10.991 28.2805 10.6559C27.8471 10.5927 27.4047 10.6435 26.9969 10.8034C26.5891 10.9632 26.2299 11.2265 25.9548 11.5673C25.8247 11.7105 25.7145 11.8706 25.6272 12.0432C24.7113 11.1568 23.5137 10.5505 22.2312 11.1128C21.6962 11.3525 21.2485 11.7518 20.9495 12.256C20.6504 12.7602 20.5148 13.3446 20.5612 13.929C20.456 13.8937 20.3488 13.865 20.2401 13.8431C19.9012 13.7747 19.5514 13.7824 19.2159 13.8655C18.8804 13.9487 18.5675 14.1053 18.2999 14.324C17.0918 15.2949 17.358 16.877 17.8259 18.4422C17.9872 18.983 18.1815 19.5409 18.3902 20.0957C17.8758 19.7396 17.2875 19.5043 16.6693 19.4075C16.3115 19.3481 15.9443 19.3864 15.6065 19.5182C15.2686 19.6501 14.9726 19.8706 14.7496 20.1566C13.5834 21.7213 15.1421 24.4615 16.947 27.6343C17.5338 28.6656 18.14 29.7318 18.5765 30.6577C19.3756 32.3487 20.0463 33.9658 20.6191 35.5364L12.4942 43.6608C12.4716 43.6831 12.4444 43.7003 12.4145 43.7112C12.3847 43.7221 12.3528 43.7265 12.3211 43.7241C12.2894 43.7217 12.2586 43.7125 12.2308 43.6972C12.2029 43.6819 12.1787 43.6608 12.1596 43.6354C8.8524 39.3137 7.2274 33.938 7.58689 28.508C7.94638 23.078 10.2659 17.9634 14.114 14.1155C17.962 10.2676 23.0767 7.94837 28.5068 7.58915C33.9368 7.22992 39.3124 8.85517 43.6339 12.1626C43.6597 12.182 43.681 12.2068 43.6964 12.2353C43.7117 12.2637 43.7207 12.2951 43.7228 12.3274C43.7251 12.3586 43.7206 12.3899 43.7096 12.4191C43.6985 12.4484 43.6812 12.4749 43.6588 12.4967V12.4967Z" fill="white"/>
</svg>
