<svg width="43" height="43" viewBox="0 0 43 43" fill="none" xmlns="http://www.w3.org/2000/svg">
<path fill-rule="evenodd" clip-rule="evenodd" d="M37.8813 21.5C37.8813 21.1428 37.7128 20.8001 37.4128 20.5475C37.1128 20.2949 36.7059 20.153 36.2817 20.153L17.7488 20.153L24.6174 14.3716C24.7662 14.2464 24.8841 14.0977 24.9646 13.9341C25.0451 13.7704 25.0865 13.5951 25.0865 13.4179C25.0865 13.2408 25.0451 13.0654 24.9646 12.9018C24.8841 12.7382 24.7662 12.5895 24.6174 12.4643C24.4687 12.339 24.2922 12.2397 24.0978 12.1719C23.9035 12.1041 23.6953 12.0692 23.4849 12.0692C23.2746 12.0692 23.0663 12.1041 22.872 12.1719C22.6777 12.2397 22.5011 12.339 22.3524 12.4643L12.7548 20.5463C12.6059 20.6714 12.4877 20.8201 12.407 20.9837C12.3264 21.1474 12.2849 21.3228 12.2849 21.5C12.2849 21.6772 12.3264 21.8526 12.407 22.0163C12.4877 22.1799 12.6059 22.3286 12.7548 22.4537L22.3524 30.5358C22.6528 30.7887 23.0601 30.9308 23.4849 30.9308C23.9097 30.9308 24.3171 30.7887 24.6174 30.5358C24.9178 30.2828 25.0865 29.9398 25.0865 29.5821C25.0865 29.2244 24.9178 28.8813 24.6174 28.6284L17.7488 22.847L36.2817 22.847C36.7059 22.847 37.1128 22.7051 37.4128 22.4525C37.7128 22.1999 37.8813 21.8573 37.8813 21.5Z" fill="#634CC2"/>
</svg>
