<svg width="19" height="18" viewBox="0 0 19 18" fill="none" xmlns="http://www.w3.org/2000/svg">
<path d="M3.07353 12.0147C2.46564 12.0147 1.87141 11.8345 1.36597 11.4968C0.86053 11.159 0.466588 10.679 0.23396 10.1174C0.00133172 9.55578 -0.0595344 8.9378 0.0590584 8.34159C0.177651 7.74538 0.470377 7.19773 0.900217 6.76789C1.33006 6.33805 1.87771 6.04533 2.47391 5.92673C3.07012 5.80814 3.68811 5.86901 4.24972 6.10164C4.81133 6.33426 5.29135 6.72821 5.62908 7.23365C5.9668 7.73908 6.14706 8.33332 6.14706 8.94121C6.1461 9.75606 5.82197 10.5373 5.24578 11.1135C4.66959 11.6896 3.88839 12.0138 3.07353 12.0147ZM3.07353 6.4265C2.57617 6.4265 2.08998 6.57399 1.67643 6.85031C1.26289 7.12662 0.940578 7.51937 0.750245 7.97887C0.559913 8.43837 0.510114 8.944 0.607144 9.4318C0.704175 9.91961 0.943677 10.3677 1.29536 10.7194C1.64705 11.0711 2.09513 11.3106 2.58294 11.4076C3.07074 11.5046 3.57636 11.4548 4.03587 11.2645C4.49537 11.0742 4.88811 10.7518 5.16443 10.3383C5.44075 9.92476 5.58824 9.43857 5.58824 8.94121C5.5875 8.27449 5.32232 7.6353 4.85088 7.16386C4.37944 6.69242 3.74024 6.42724 3.07353 6.4265Z" fill="#634CC2"/>
<path d="M15.9265 6.14706C15.3186 6.14706 14.7244 5.9668 14.2189 5.62908C13.7135 5.29135 13.3196 4.81133 13.0869 4.24972C12.8543 3.68811 12.7934 3.07012 12.912 2.47391C13.0306 1.87771 13.3233 1.33006 13.7532 0.900217C14.183 0.470376 14.7307 0.177651 15.3269 0.0590584C15.9231 -0.0595344 16.5411 0.00133172 17.1027 0.23396C17.6643 0.466588 18.1443 0.86053 18.482 1.36597C18.8198 1.87141 19 2.46564 19 3.07353C18.9991 3.88839 18.6749 4.66959 18.0987 5.24578C17.5226 5.82197 16.7414 6.1461 15.9265 6.14706ZM15.9265 0.558825C15.4291 0.558825 14.9429 0.70631 14.5294 0.982629C14.1159 1.25895 13.7935 1.65169 13.6032 2.11119C13.4129 2.5707 13.3631 3.07632 13.4601 3.56413C13.5571 4.05193 13.7966 4.50001 14.1483 4.8517C14.5 5.20338 14.9481 5.44289 15.4359 5.53992C15.9237 5.63695 16.4293 5.58715 16.8888 5.39682C17.3483 5.20648 17.7411 4.88417 18.0174 4.47063C18.2937 4.05709 18.4412 3.57089 18.4412 3.07353C18.4405 2.40682 18.1753 1.76762 17.7038 1.29618C17.2324 0.824743 16.5932 0.559564 15.9265 0.558825Z" fill="#634CC2"/>
<path d="M15.9265 17.8824C15.3186 17.8824 14.7244 17.7021 14.2189 17.3644C13.7135 17.0266 13.3196 16.5466 13.0869 15.985C12.8543 15.4234 12.7934 14.8054 12.912 14.2092C13.0306 13.613 13.3233 13.0653 13.7532 12.6355C14.183 12.2057 14.7307 11.9129 15.3269 11.7943C15.9231 11.6758 16.5411 11.7366 17.1027 11.9693C17.6643 12.2019 18.1443 12.5958 18.482 13.1013C18.8198 13.6067 19 14.2009 19 14.8088C18.9991 15.6237 18.6749 16.4049 18.0987 16.9811C17.5226 17.5573 16.7414 17.8814 15.9265 17.8824ZM15.9265 12.2941C15.4291 12.2941 14.9429 12.4416 14.5294 12.7179C14.1159 12.9942 13.7935 13.387 13.6032 13.8465C13.4129 14.306 13.3631 14.8116 13.4601 15.2994C13.5571 15.7872 13.7966 16.2353 14.1483 16.587C14.5 16.9387 14.9481 17.1782 15.4359 17.2752C15.9237 17.3722 16.4293 17.3224 16.8888 17.1321C17.3483 16.9418 17.7411 16.6195 18.0174 16.2059C18.2937 15.7924 18.4412 15.3062 18.4412 14.8088C18.4405 14.1421 18.1753 13.5029 17.7038 13.0315C17.2324 12.56 16.5932 12.2949 15.9265 12.2941Z" fill="#634CC2"/>
<path d="M5.73182 9.84766L5.49976 10.356L13.2682 13.9024L13.5003 13.394L5.73182 9.84766Z" fill="#634CC2"/>
<path d="M13.2687 3.98079L5.49896 7.52576L5.73092 8.03416L13.5006 4.4892L13.2687 3.98079Z" fill="#634CC2"/>
</svg>
