<svg width="17" height="11" viewBox="0 0 17 11" fill="none" xmlns="http://www.w3.org/2000/svg">
<path fill-rule="evenodd" clip-rule="evenodd" d="M17 5.5C13.2222 -1.83333 3.77778 -1.83333 0 5.5C3.77778 12.8333 13.2222 12.8333 17 5.5ZM8.5 9C10.433 9 12 7.433 12 5.5C12 3.567 10.433 2 8.5 2C6.567 2 5 3.567 5 5.5C5 7.433 6.567 9 8.5 9ZM8.73941 3.51418C8.58885 3.72061 8.5 3.97493 8.5 4.25C8.5 4.94036 9.05964 5.5 9.75 5.5C10.0251 5.5 10.2794 5.41115 10.4858 5.26059C10.4952 5.33909 10.5 5.41898 10.5 5.5C10.5 6.60457 9.60457 7.5 8.5 7.5C7.39543 7.5 6.5 6.60457 6.5 5.5C6.5 4.39543 7.39543 3.5 8.5 3.5C8.58102 3.5 8.66091 3.50482 8.73941 3.51418Z" fill="#4F4F4F"/>
</svg>
