<svg width="70" height="67" viewBox="0 0 70 67" fill="none" xmlns="http://www.w3.org/2000/svg">
<path fill-rule="evenodd" clip-rule="evenodd" d="M34.9288 0.00142528C34.2635 0.0297236 33.6864 0.468628 33.4816 1.10228L25.9887 24.3253L1.59379 24.2771C0.903532 24.2759 0.290961 24.7204 0.0778782 25.3768C-0.13519 26.0332 0.0989636 26.7523 0.657709 27.1573L20.4248 41.4613L12.8347 64.6602L12.8353 64.6597C12.6205 65.3161 12.8536 66.0352 13.4123 66.4414C13.9705 66.847 14.7268 66.8464 15.2845 66.4397L34.9962 52.0547L54.7149 66.4397V66.4391C55.2726 66.8459 56.0289 66.8464 56.5877 66.4408C57.1459 66.0346 57.3789 65.315 57.1642 64.6591L49.5741 41.4602L69.3412 27.1562L69.3417 27.1568C69.901 26.7517 70.1352 26.0326 69.9221 25.3757C69.7085 24.7193 69.0965 24.2748 68.4056 24.2765L44.0107 24.3248L36.5094 1.10171C36.2897 0.421439 35.6433 -0.0285473 34.9292 0.00141011L34.9288 0.00142528Z" fill="white"/>
</svg>
