<svg width="11" height="11" viewBox="0 0 11 11" fill="none" xmlns="http://www.w3.org/2000/svg">
<path d="M10.059 4.20705C10.0302 4.12219 9.97721 4.04764 9.90651 3.99257C9.83581 3.93751 9.75053 3.90436 9.66121 3.89721L7.04825 3.68959L5.91754 1.18663C5.88153 1.10602 5.82296 1.03755 5.7489 0.989483C5.67483 0.94142 5.58844 0.91582 5.50015 0.915772C5.41186 0.915723 5.32544 0.941229 5.25132 0.98921C5.1772 1.03719 5.11856 1.1056 5.08246 1.18617L3.95175 3.68959L1.33879 3.89721C1.251 3.90417 1.16707 3.93627 1.09705 3.98967C1.02702 4.04308 0.973865 4.11553 0.943936 4.19835C0.914007 4.28118 0.908573 4.37087 0.928285 4.4567C0.947997 4.54254 0.992019 4.62087 1.05509 4.68234L2.98604 6.56471L2.30313 9.52188C2.28239 9.61139 2.28904 9.70507 2.3222 9.79076C2.35537 9.87645 2.41352 9.95019 2.48912 10.0024C2.56472 10.0546 2.65426 10.0829 2.74614 10.0836C2.83802 10.0843 2.92799 10.0574 3.00438 10.0063L5.5 8.34259L7.99563 10.0063C8.0737 10.0582 8.16577 10.0849 8.25946 10.0828C8.35315 10.0807 8.44396 10.0501 8.51968 9.99485C8.5954 9.93964 8.65241 9.86257 8.68302 9.774C8.71363 9.68543 8.71639 9.58961 8.69092 9.49942L7.85263 6.56609L9.93163 4.69517C10.0678 4.57234 10.1177 4.38076 10.059 4.20705Z" fill="#F2994A"/>
</svg>
