<svg width="60" height="56" viewBox="0 0 60 56" fill="none" xmlns="http://www.w3.org/2000/svg">
<path d="M21.5831 55.3691C20.5151 55.3691 19.5143 54.9687 18.78 54.2345L1.2942 36.2148C-0.374291 34.6799 -0.44091 32.077 1.16059 30.4086C2.69549 28.7401 5.29834 28.6734 6.96683 30.2749L19.7809 39.4182C20.515 40.0858 21.6496 39.9522 22.2501 39.1514L52.6167 1.64367C53.9514 -0.158424 56.5542 -0.558743 58.3563 0.842935C60.1584 2.17761 60.5587 4.78046 59.1571 6.58255L24.8528 53.7008C24.1187 54.6352 23.0507 55.2357 21.9162 55.3027C21.783 55.3693 21.716 55.3693 21.5828 55.3693L21.5831 55.3691Z" fill="#634CC2"/>
</svg>
